%TF.GenerationSoftware,KiCad,Pcbnew,(5.1.10)-1*%
%TF.CreationDate,2022-07-05T19:15:51+09:00*%
%TF.ProjectId,MZ_CVBS,4d5a5f43-5642-4532-9e6b-696361645f70,rev?*%
%TF.SameCoordinates,Original*%
%TF.FileFunction,Legend,Top*%
%TF.FilePolarity,Positive*%
%FSLAX46Y46*%
G04 Gerber Fmt 4.6, Leading zero omitted, Abs format (unit mm)*
G04 Created by KiCad (PCBNEW (5.1.10)-1) date 2022-07-05 19:15:51*
%MOMM*%
%LPD*%
G01*
G04 APERTURE LIST*
%ADD10C,0.120000*%
%ADD11C,0.127000*%
%ADD12C,0.400000*%
%ADD13C,0.150000*%
G04 APERTURE END LIST*
D10*
%TO.C,C1*%
X-338880000Y423000000D02*
G75*
G03*
X-338880000Y423000000I-2120000J0D01*
G01*
X-341000000Y420920000D02*
X-341000000Y425080000D01*
X-341040000Y420920000D02*
X-341040000Y425080000D01*
X-341080000Y420921000D02*
X-341080000Y425079000D01*
X-341120000Y420923000D02*
X-341120000Y425077000D01*
X-341160000Y420926000D02*
X-341160000Y425074000D01*
X-341200000Y420929000D02*
X-341200000Y422160000D01*
X-341200000Y423840000D02*
X-341200000Y425071000D01*
X-341240000Y420933000D02*
X-341240000Y422160000D01*
X-341240000Y423840000D02*
X-341240000Y425067000D01*
X-341280000Y420938000D02*
X-341280000Y422160000D01*
X-341280000Y423840000D02*
X-341280000Y425062000D01*
X-341320000Y420944000D02*
X-341320000Y422160000D01*
X-341320000Y423840000D02*
X-341320000Y425056000D01*
X-341360000Y420950000D02*
X-341360000Y422160000D01*
X-341360000Y423840000D02*
X-341360000Y425050000D01*
X-341400000Y420958000D02*
X-341400000Y422160000D01*
X-341400000Y423840000D02*
X-341400000Y425042000D01*
X-341440000Y420966000D02*
X-341440000Y422160000D01*
X-341440000Y423840000D02*
X-341440000Y425034000D01*
X-341480000Y420975000D02*
X-341480000Y422160000D01*
X-341480000Y423840000D02*
X-341480000Y425025000D01*
X-341520000Y420984000D02*
X-341520000Y422160000D01*
X-341520000Y423840000D02*
X-341520000Y425016000D01*
X-341560000Y420995000D02*
X-341560000Y422160000D01*
X-341560000Y423840000D02*
X-341560000Y425005000D01*
X-341600000Y421006000D02*
X-341600000Y422160000D01*
X-341600000Y423840000D02*
X-341600000Y424994000D01*
X-341640000Y421018000D02*
X-341640000Y422160000D01*
X-341640000Y423840000D02*
X-341640000Y424982000D01*
X-341680000Y421032000D02*
X-341680000Y422160000D01*
X-341680000Y423840000D02*
X-341680000Y424968000D01*
X-341721000Y421046000D02*
X-341721000Y422160000D01*
X-341721000Y423840000D02*
X-341721000Y424954000D01*
X-341761000Y421060000D02*
X-341761000Y422160000D01*
X-341761000Y423840000D02*
X-341761000Y424940000D01*
X-341801000Y421076000D02*
X-341801000Y422160000D01*
X-341801000Y423840000D02*
X-341801000Y424924000D01*
X-341841000Y421093000D02*
X-341841000Y422160000D01*
X-341841000Y423840000D02*
X-341841000Y424907000D01*
X-341881000Y421111000D02*
X-341881000Y422160000D01*
X-341881000Y423840000D02*
X-341881000Y424889000D01*
X-341921000Y421130000D02*
X-341921000Y422160000D01*
X-341921000Y423840000D02*
X-341921000Y424870000D01*
X-341961000Y421149000D02*
X-341961000Y422160000D01*
X-341961000Y423840000D02*
X-341961000Y424851000D01*
X-342001000Y421170000D02*
X-342001000Y422160000D01*
X-342001000Y423840000D02*
X-342001000Y424830000D01*
X-342041000Y421192000D02*
X-342041000Y422160000D01*
X-342041000Y423840000D02*
X-342041000Y424808000D01*
X-342081000Y421215000D02*
X-342081000Y422160000D01*
X-342081000Y423840000D02*
X-342081000Y424785000D01*
X-342121000Y421240000D02*
X-342121000Y422160000D01*
X-342121000Y423840000D02*
X-342121000Y424760000D01*
X-342161000Y421265000D02*
X-342161000Y422160000D01*
X-342161000Y423840000D02*
X-342161000Y424735000D01*
X-342201000Y421292000D02*
X-342201000Y422160000D01*
X-342201000Y423840000D02*
X-342201000Y424708000D01*
X-342241000Y421320000D02*
X-342241000Y422160000D01*
X-342241000Y423840000D02*
X-342241000Y424680000D01*
X-342281000Y421350000D02*
X-342281000Y422160000D01*
X-342281000Y423840000D02*
X-342281000Y424650000D01*
X-342321000Y421381000D02*
X-342321000Y422160000D01*
X-342321000Y423840000D02*
X-342321000Y424619000D01*
X-342361000Y421413000D02*
X-342361000Y422160000D01*
X-342361000Y423840000D02*
X-342361000Y424587000D01*
X-342401000Y421448000D02*
X-342401000Y422160000D01*
X-342401000Y423840000D02*
X-342401000Y424552000D01*
X-342441000Y421484000D02*
X-342441000Y422160000D01*
X-342441000Y423840000D02*
X-342441000Y424516000D01*
X-342481000Y421522000D02*
X-342481000Y422160000D01*
X-342481000Y423840000D02*
X-342481000Y424478000D01*
X-342521000Y421562000D02*
X-342521000Y422160000D01*
X-342521000Y423840000D02*
X-342521000Y424438000D01*
X-342561000Y421604000D02*
X-342561000Y422160000D01*
X-342561000Y423840000D02*
X-342561000Y424396000D01*
X-342601000Y421649000D02*
X-342601000Y422160000D01*
X-342601000Y423840000D02*
X-342601000Y424351000D01*
X-342641000Y421696000D02*
X-342641000Y422160000D01*
X-342641000Y423840000D02*
X-342641000Y424304000D01*
X-342681000Y421746000D02*
X-342681000Y422160000D01*
X-342681000Y423840000D02*
X-342681000Y424254000D01*
X-342721000Y421800000D02*
X-342721000Y422160000D01*
X-342721000Y423840000D02*
X-342721000Y424200000D01*
X-342761000Y421858000D02*
X-342761000Y422160000D01*
X-342761000Y423840000D02*
X-342761000Y424142000D01*
X-342801000Y421920000D02*
X-342801000Y422160000D01*
X-342801000Y423840000D02*
X-342801000Y424080000D01*
X-342841000Y421987000D02*
X-342841000Y424013000D01*
X-342881000Y422060000D02*
X-342881000Y423940000D01*
X-342921000Y422141000D02*
X-342921000Y423859000D01*
X-342961000Y422232000D02*
X-342961000Y423768000D01*
X-343001000Y422336000D02*
X-343001000Y423664000D01*
X-343041000Y422463000D02*
X-343041000Y423537000D01*
X-343081000Y422630000D02*
X-343081000Y423370000D01*
X-338730199Y421805000D02*
X-339130199Y421805000D01*
X-338930199Y421605000D02*
X-338930199Y422005000D01*
%TO.C,C2*%
X-346380000Y388000000D02*
G75*
G03*
X-346380000Y388000000I-2620000J0D01*
G01*
X-349000000Y389040000D02*
X-349000000Y390580000D01*
X-349000000Y385420000D02*
X-349000000Y386960000D01*
X-349040000Y389040000D02*
X-349040000Y390580000D01*
X-349040000Y385420000D02*
X-349040000Y386960000D01*
X-349080000Y385421000D02*
X-349080000Y386960000D01*
X-349080000Y389040000D02*
X-349080000Y390579000D01*
X-349120000Y385422000D02*
X-349120000Y386960000D01*
X-349120000Y389040000D02*
X-349120000Y390578000D01*
X-349160000Y385424000D02*
X-349160000Y386960000D01*
X-349160000Y389040000D02*
X-349160000Y390576000D01*
X-349200000Y385427000D02*
X-349200000Y386960000D01*
X-349200000Y389040000D02*
X-349200000Y390573000D01*
X-349240000Y385431000D02*
X-349240000Y386960000D01*
X-349240000Y389040000D02*
X-349240000Y390569000D01*
X-349280000Y385435000D02*
X-349280000Y386960000D01*
X-349280000Y389040000D02*
X-349280000Y390565000D01*
X-349320000Y385439000D02*
X-349320000Y386960000D01*
X-349320000Y389040000D02*
X-349320000Y390561000D01*
X-349360000Y385444000D02*
X-349360000Y386960000D01*
X-349360000Y389040000D02*
X-349360000Y390556000D01*
X-349400000Y385450000D02*
X-349400000Y386960000D01*
X-349400000Y389040000D02*
X-349400000Y390550000D01*
X-349440000Y385457000D02*
X-349440000Y386960000D01*
X-349440000Y389040000D02*
X-349440000Y390543000D01*
X-349480000Y385464000D02*
X-349480000Y386960000D01*
X-349480000Y389040000D02*
X-349480000Y390536000D01*
X-349520000Y385472000D02*
X-349520000Y386960000D01*
X-349520000Y389040000D02*
X-349520000Y390528000D01*
X-349560000Y385480000D02*
X-349560000Y386960000D01*
X-349560000Y389040000D02*
X-349560000Y390520000D01*
X-349600000Y385489000D02*
X-349600000Y386960000D01*
X-349600000Y389040000D02*
X-349600000Y390511000D01*
X-349640000Y385499000D02*
X-349640000Y386960000D01*
X-349640000Y389040000D02*
X-349640000Y390501000D01*
X-349680000Y385509000D02*
X-349680000Y386960000D01*
X-349680000Y389040000D02*
X-349680000Y390491000D01*
X-349721000Y385520000D02*
X-349721000Y386960000D01*
X-349721000Y389040000D02*
X-349721000Y390480000D01*
X-349761000Y385532000D02*
X-349761000Y386960000D01*
X-349761000Y389040000D02*
X-349761000Y390468000D01*
X-349801000Y385545000D02*
X-349801000Y386960000D01*
X-349801000Y389040000D02*
X-349801000Y390455000D01*
X-349841000Y385558000D02*
X-349841000Y386960000D01*
X-349841000Y389040000D02*
X-349841000Y390442000D01*
X-349881000Y385572000D02*
X-349881000Y386960000D01*
X-349881000Y389040000D02*
X-349881000Y390428000D01*
X-349921000Y385586000D02*
X-349921000Y386960000D01*
X-349921000Y389040000D02*
X-349921000Y390414000D01*
X-349961000Y385602000D02*
X-349961000Y386960000D01*
X-349961000Y389040000D02*
X-349961000Y390398000D01*
X-350001000Y385618000D02*
X-350001000Y386960000D01*
X-350001000Y389040000D02*
X-350001000Y390382000D01*
X-350041000Y385635000D02*
X-350041000Y386960000D01*
X-350041000Y389040000D02*
X-350041000Y390365000D01*
X-350081000Y385652000D02*
X-350081000Y386960000D01*
X-350081000Y389040000D02*
X-350081000Y390348000D01*
X-350121000Y385671000D02*
X-350121000Y386960000D01*
X-350121000Y389040000D02*
X-350121000Y390329000D01*
X-350161000Y385690000D02*
X-350161000Y386960000D01*
X-350161000Y389040000D02*
X-350161000Y390310000D01*
X-350201000Y385710000D02*
X-350201000Y386960000D01*
X-350201000Y389040000D02*
X-350201000Y390290000D01*
X-350241000Y385732000D02*
X-350241000Y386960000D01*
X-350241000Y389040000D02*
X-350241000Y390268000D01*
X-350281000Y385753000D02*
X-350281000Y386960000D01*
X-350281000Y389040000D02*
X-350281000Y390247000D01*
X-350321000Y385776000D02*
X-350321000Y386960000D01*
X-350321000Y389040000D02*
X-350321000Y390224000D01*
X-350361000Y385800000D02*
X-350361000Y386960000D01*
X-350361000Y389040000D02*
X-350361000Y390200000D01*
X-350401000Y385825000D02*
X-350401000Y386960000D01*
X-350401000Y389040000D02*
X-350401000Y390175000D01*
X-350441000Y385851000D02*
X-350441000Y386960000D01*
X-350441000Y389040000D02*
X-350441000Y390149000D01*
X-350481000Y385878000D02*
X-350481000Y386960000D01*
X-350481000Y389040000D02*
X-350481000Y390122000D01*
X-350521000Y385905000D02*
X-350521000Y386960000D01*
X-350521000Y389040000D02*
X-350521000Y390095000D01*
X-350561000Y385935000D02*
X-350561000Y386960000D01*
X-350561000Y389040000D02*
X-350561000Y390065000D01*
X-350601000Y385965000D02*
X-350601000Y386960000D01*
X-350601000Y389040000D02*
X-350601000Y390035000D01*
X-350641000Y385996000D02*
X-350641000Y386960000D01*
X-350641000Y389040000D02*
X-350641000Y390004000D01*
X-350681000Y386029000D02*
X-350681000Y386960000D01*
X-350681000Y389040000D02*
X-350681000Y389971000D01*
X-350721000Y386063000D02*
X-350721000Y386960000D01*
X-350721000Y389040000D02*
X-350721000Y389937000D01*
X-350761000Y386099000D02*
X-350761000Y386960000D01*
X-350761000Y389040000D02*
X-350761000Y389901000D01*
X-350801000Y386136000D02*
X-350801000Y386960000D01*
X-350801000Y389040000D02*
X-350801000Y389864000D01*
X-350841000Y386174000D02*
X-350841000Y386960000D01*
X-350841000Y389040000D02*
X-350841000Y389826000D01*
X-350881000Y386215000D02*
X-350881000Y386960000D01*
X-350881000Y389040000D02*
X-350881000Y389785000D01*
X-350921000Y386257000D02*
X-350921000Y386960000D01*
X-350921000Y389040000D02*
X-350921000Y389743000D01*
X-350961000Y386301000D02*
X-350961000Y386960000D01*
X-350961000Y389040000D02*
X-350961000Y389699000D01*
X-351001000Y386347000D02*
X-351001000Y386960000D01*
X-351001000Y389040000D02*
X-351001000Y389653000D01*
X-351041000Y386395000D02*
X-351041000Y389605000D01*
X-351081000Y386446000D02*
X-351081000Y389554000D01*
X-351121000Y386500000D02*
X-351121000Y389500000D01*
X-351161000Y386557000D02*
X-351161000Y389443000D01*
X-351201000Y386617000D02*
X-351201000Y389383000D01*
X-351241000Y386681000D02*
X-351241000Y389319000D01*
X-351281000Y386749000D02*
X-351281000Y389251000D01*
X-351321000Y386822000D02*
X-351321000Y389178000D01*
X-351361000Y386902000D02*
X-351361000Y389098000D01*
X-351401000Y386989000D02*
X-351401000Y389011000D01*
X-351441000Y387085000D02*
X-351441000Y388915000D01*
X-351481000Y387195000D02*
X-351481000Y388805000D01*
X-351521000Y387323000D02*
X-351521000Y388677000D01*
X-351561000Y387482000D02*
X-351561000Y388518000D01*
X-351601000Y387716000D02*
X-351601000Y388284000D01*
X-346195225Y386525000D02*
X-346695225Y386525000D01*
X-346445225Y386275000D02*
X-346445225Y386775000D01*
%TO.C,C3*%
X-336055000Y413880000D02*
X-336370000Y413880000D01*
X-333630000Y413880000D02*
X-333945000Y413880000D01*
X-336055000Y419120000D02*
X-336370000Y419120000D01*
X-333630000Y419120000D02*
X-333945000Y419120000D01*
X-336370000Y419120000D02*
X-336370000Y413880000D01*
X-333630000Y419120000D02*
X-333630000Y413880000D01*
%TO.C,C4*%
X-338380000Y412000000D02*
G75*
G03*
X-338380000Y412000000I-2620000J0D01*
G01*
X-341000000Y413040000D02*
X-341000000Y414580000D01*
X-341000000Y409420000D02*
X-341000000Y410960000D01*
X-341040000Y413040000D02*
X-341040000Y414580000D01*
X-341040000Y409420000D02*
X-341040000Y410960000D01*
X-341080000Y409421000D02*
X-341080000Y410960000D01*
X-341080000Y413040000D02*
X-341080000Y414579000D01*
X-341120000Y409422000D02*
X-341120000Y410960000D01*
X-341120000Y413040000D02*
X-341120000Y414578000D01*
X-341160000Y409424000D02*
X-341160000Y410960000D01*
X-341160000Y413040000D02*
X-341160000Y414576000D01*
X-341200000Y409427000D02*
X-341200000Y410960000D01*
X-341200000Y413040000D02*
X-341200000Y414573000D01*
X-341240000Y409431000D02*
X-341240000Y410960000D01*
X-341240000Y413040000D02*
X-341240000Y414569000D01*
X-341280000Y409435000D02*
X-341280000Y410960000D01*
X-341280000Y413040000D02*
X-341280000Y414565000D01*
X-341320000Y409439000D02*
X-341320000Y410960000D01*
X-341320000Y413040000D02*
X-341320000Y414561000D01*
X-341360000Y409444000D02*
X-341360000Y410960000D01*
X-341360000Y413040000D02*
X-341360000Y414556000D01*
X-341400000Y409450000D02*
X-341400000Y410960000D01*
X-341400000Y413040000D02*
X-341400000Y414550000D01*
X-341440000Y409457000D02*
X-341440000Y410960000D01*
X-341440000Y413040000D02*
X-341440000Y414543000D01*
X-341480000Y409464000D02*
X-341480000Y410960000D01*
X-341480000Y413040000D02*
X-341480000Y414536000D01*
X-341520000Y409472000D02*
X-341520000Y410960000D01*
X-341520000Y413040000D02*
X-341520000Y414528000D01*
X-341560000Y409480000D02*
X-341560000Y410960000D01*
X-341560000Y413040000D02*
X-341560000Y414520000D01*
X-341600000Y409489000D02*
X-341600000Y410960000D01*
X-341600000Y413040000D02*
X-341600000Y414511000D01*
X-341640000Y409499000D02*
X-341640000Y410960000D01*
X-341640000Y413040000D02*
X-341640000Y414501000D01*
X-341680000Y409509000D02*
X-341680000Y410960000D01*
X-341680000Y413040000D02*
X-341680000Y414491000D01*
X-341721000Y409520000D02*
X-341721000Y410960000D01*
X-341721000Y413040000D02*
X-341721000Y414480000D01*
X-341761000Y409532000D02*
X-341761000Y410960000D01*
X-341761000Y413040000D02*
X-341761000Y414468000D01*
X-341801000Y409545000D02*
X-341801000Y410960000D01*
X-341801000Y413040000D02*
X-341801000Y414455000D01*
X-341841000Y409558000D02*
X-341841000Y410960000D01*
X-341841000Y413040000D02*
X-341841000Y414442000D01*
X-341881000Y409572000D02*
X-341881000Y410960000D01*
X-341881000Y413040000D02*
X-341881000Y414428000D01*
X-341921000Y409586000D02*
X-341921000Y410960000D01*
X-341921000Y413040000D02*
X-341921000Y414414000D01*
X-341961000Y409602000D02*
X-341961000Y410960000D01*
X-341961000Y413040000D02*
X-341961000Y414398000D01*
X-342001000Y409618000D02*
X-342001000Y410960000D01*
X-342001000Y413040000D02*
X-342001000Y414382000D01*
X-342041000Y409635000D02*
X-342041000Y410960000D01*
X-342041000Y413040000D02*
X-342041000Y414365000D01*
X-342081000Y409652000D02*
X-342081000Y410960000D01*
X-342081000Y413040000D02*
X-342081000Y414348000D01*
X-342121000Y409671000D02*
X-342121000Y410960000D01*
X-342121000Y413040000D02*
X-342121000Y414329000D01*
X-342161000Y409690000D02*
X-342161000Y410960000D01*
X-342161000Y413040000D02*
X-342161000Y414310000D01*
X-342201000Y409710000D02*
X-342201000Y410960000D01*
X-342201000Y413040000D02*
X-342201000Y414290000D01*
X-342241000Y409732000D02*
X-342241000Y410960000D01*
X-342241000Y413040000D02*
X-342241000Y414268000D01*
X-342281000Y409753000D02*
X-342281000Y410960000D01*
X-342281000Y413040000D02*
X-342281000Y414247000D01*
X-342321000Y409776000D02*
X-342321000Y410960000D01*
X-342321000Y413040000D02*
X-342321000Y414224000D01*
X-342361000Y409800000D02*
X-342361000Y410960000D01*
X-342361000Y413040000D02*
X-342361000Y414200000D01*
X-342401000Y409825000D02*
X-342401000Y410960000D01*
X-342401000Y413040000D02*
X-342401000Y414175000D01*
X-342441000Y409851000D02*
X-342441000Y410960000D01*
X-342441000Y413040000D02*
X-342441000Y414149000D01*
X-342481000Y409878000D02*
X-342481000Y410960000D01*
X-342481000Y413040000D02*
X-342481000Y414122000D01*
X-342521000Y409905000D02*
X-342521000Y410960000D01*
X-342521000Y413040000D02*
X-342521000Y414095000D01*
X-342561000Y409935000D02*
X-342561000Y410960000D01*
X-342561000Y413040000D02*
X-342561000Y414065000D01*
X-342601000Y409965000D02*
X-342601000Y410960000D01*
X-342601000Y413040000D02*
X-342601000Y414035000D01*
X-342641000Y409996000D02*
X-342641000Y410960000D01*
X-342641000Y413040000D02*
X-342641000Y414004000D01*
X-342681000Y410029000D02*
X-342681000Y410960000D01*
X-342681000Y413040000D02*
X-342681000Y413971000D01*
X-342721000Y410063000D02*
X-342721000Y410960000D01*
X-342721000Y413040000D02*
X-342721000Y413937000D01*
X-342761000Y410099000D02*
X-342761000Y410960000D01*
X-342761000Y413040000D02*
X-342761000Y413901000D01*
X-342801000Y410136000D02*
X-342801000Y410960000D01*
X-342801000Y413040000D02*
X-342801000Y413864000D01*
X-342841000Y410174000D02*
X-342841000Y410960000D01*
X-342841000Y413040000D02*
X-342841000Y413826000D01*
X-342881000Y410215000D02*
X-342881000Y410960000D01*
X-342881000Y413040000D02*
X-342881000Y413785000D01*
X-342921000Y410257000D02*
X-342921000Y410960000D01*
X-342921000Y413040000D02*
X-342921000Y413743000D01*
X-342961000Y410301000D02*
X-342961000Y410960000D01*
X-342961000Y413040000D02*
X-342961000Y413699000D01*
X-343001000Y410347000D02*
X-343001000Y410960000D01*
X-343001000Y413040000D02*
X-343001000Y413653000D01*
X-343041000Y410395000D02*
X-343041000Y413605000D01*
X-343081000Y410446000D02*
X-343081000Y413554000D01*
X-343121000Y410500000D02*
X-343121000Y413500000D01*
X-343161000Y410557000D02*
X-343161000Y413443000D01*
X-343201000Y410617000D02*
X-343201000Y413383000D01*
X-343241000Y410681000D02*
X-343241000Y413319000D01*
X-343281000Y410749000D02*
X-343281000Y413251000D01*
X-343321000Y410822000D02*
X-343321000Y413178000D01*
X-343361000Y410902000D02*
X-343361000Y413098000D01*
X-343401000Y410989000D02*
X-343401000Y413011000D01*
X-343441000Y411085000D02*
X-343441000Y412915000D01*
X-343481000Y411195000D02*
X-343481000Y412805000D01*
X-343521000Y411323000D02*
X-343521000Y412677000D01*
X-343561000Y411482000D02*
X-343561000Y412518000D01*
X-343601000Y411716000D02*
X-343601000Y412284000D01*
X-338195225Y410525000D02*
X-338695225Y410525000D01*
X-338445225Y410275000D02*
X-338445225Y410775000D01*
%TO.C,C5*%
X-345880000Y403630000D02*
X-351120000Y403630000D01*
X-345880000Y406370000D02*
X-351120000Y406370000D01*
X-345880000Y403630000D02*
X-345880000Y403945000D01*
X-345880000Y406055000D02*
X-345880000Y406370000D01*
X-351120000Y403630000D02*
X-351120000Y403945000D01*
X-351120000Y406055000D02*
X-351120000Y406370000D01*
%TO.C,C6*%
X-346445225Y395275000D02*
X-346445225Y395775000D01*
X-346195225Y395525000D02*
X-346695225Y395525000D01*
X-351601000Y396716000D02*
X-351601000Y397284000D01*
X-351561000Y396482000D02*
X-351561000Y397518000D01*
X-351521000Y396323000D02*
X-351521000Y397677000D01*
X-351481000Y396195000D02*
X-351481000Y397805000D01*
X-351441000Y396085000D02*
X-351441000Y397915000D01*
X-351401000Y395989000D02*
X-351401000Y398011000D01*
X-351361000Y395902000D02*
X-351361000Y398098000D01*
X-351321000Y395822000D02*
X-351321000Y398178000D01*
X-351281000Y395749000D02*
X-351281000Y398251000D01*
X-351241000Y395681000D02*
X-351241000Y398319000D01*
X-351201000Y395617000D02*
X-351201000Y398383000D01*
X-351161000Y395557000D02*
X-351161000Y398443000D01*
X-351121000Y395500000D02*
X-351121000Y398500000D01*
X-351081000Y395446000D02*
X-351081000Y398554000D01*
X-351041000Y395395000D02*
X-351041000Y398605000D01*
X-351001000Y398040000D02*
X-351001000Y398653000D01*
X-351001000Y395347000D02*
X-351001000Y395960000D01*
X-350961000Y398040000D02*
X-350961000Y398699000D01*
X-350961000Y395301000D02*
X-350961000Y395960000D01*
X-350921000Y398040000D02*
X-350921000Y398743000D01*
X-350921000Y395257000D02*
X-350921000Y395960000D01*
X-350881000Y398040000D02*
X-350881000Y398785000D01*
X-350881000Y395215000D02*
X-350881000Y395960000D01*
X-350841000Y398040000D02*
X-350841000Y398826000D01*
X-350841000Y395174000D02*
X-350841000Y395960000D01*
X-350801000Y398040000D02*
X-350801000Y398864000D01*
X-350801000Y395136000D02*
X-350801000Y395960000D01*
X-350761000Y398040000D02*
X-350761000Y398901000D01*
X-350761000Y395099000D02*
X-350761000Y395960000D01*
X-350721000Y398040000D02*
X-350721000Y398937000D01*
X-350721000Y395063000D02*
X-350721000Y395960000D01*
X-350681000Y398040000D02*
X-350681000Y398971000D01*
X-350681000Y395029000D02*
X-350681000Y395960000D01*
X-350641000Y398040000D02*
X-350641000Y399004000D01*
X-350641000Y394996000D02*
X-350641000Y395960000D01*
X-350601000Y398040000D02*
X-350601000Y399035000D01*
X-350601000Y394965000D02*
X-350601000Y395960000D01*
X-350561000Y398040000D02*
X-350561000Y399065000D01*
X-350561000Y394935000D02*
X-350561000Y395960000D01*
X-350521000Y398040000D02*
X-350521000Y399095000D01*
X-350521000Y394905000D02*
X-350521000Y395960000D01*
X-350481000Y398040000D02*
X-350481000Y399122000D01*
X-350481000Y394878000D02*
X-350481000Y395960000D01*
X-350441000Y398040000D02*
X-350441000Y399149000D01*
X-350441000Y394851000D02*
X-350441000Y395960000D01*
X-350401000Y398040000D02*
X-350401000Y399175000D01*
X-350401000Y394825000D02*
X-350401000Y395960000D01*
X-350361000Y398040000D02*
X-350361000Y399200000D01*
X-350361000Y394800000D02*
X-350361000Y395960000D01*
X-350321000Y398040000D02*
X-350321000Y399224000D01*
X-350321000Y394776000D02*
X-350321000Y395960000D01*
X-350281000Y398040000D02*
X-350281000Y399247000D01*
X-350281000Y394753000D02*
X-350281000Y395960000D01*
X-350241000Y398040000D02*
X-350241000Y399268000D01*
X-350241000Y394732000D02*
X-350241000Y395960000D01*
X-350201000Y398040000D02*
X-350201000Y399290000D01*
X-350201000Y394710000D02*
X-350201000Y395960000D01*
X-350161000Y398040000D02*
X-350161000Y399310000D01*
X-350161000Y394690000D02*
X-350161000Y395960000D01*
X-350121000Y398040000D02*
X-350121000Y399329000D01*
X-350121000Y394671000D02*
X-350121000Y395960000D01*
X-350081000Y398040000D02*
X-350081000Y399348000D01*
X-350081000Y394652000D02*
X-350081000Y395960000D01*
X-350041000Y398040000D02*
X-350041000Y399365000D01*
X-350041000Y394635000D02*
X-350041000Y395960000D01*
X-350001000Y398040000D02*
X-350001000Y399382000D01*
X-350001000Y394618000D02*
X-350001000Y395960000D01*
X-349961000Y398040000D02*
X-349961000Y399398000D01*
X-349961000Y394602000D02*
X-349961000Y395960000D01*
X-349921000Y398040000D02*
X-349921000Y399414000D01*
X-349921000Y394586000D02*
X-349921000Y395960000D01*
X-349881000Y398040000D02*
X-349881000Y399428000D01*
X-349881000Y394572000D02*
X-349881000Y395960000D01*
X-349841000Y398040000D02*
X-349841000Y399442000D01*
X-349841000Y394558000D02*
X-349841000Y395960000D01*
X-349801000Y398040000D02*
X-349801000Y399455000D01*
X-349801000Y394545000D02*
X-349801000Y395960000D01*
X-349761000Y398040000D02*
X-349761000Y399468000D01*
X-349761000Y394532000D02*
X-349761000Y395960000D01*
X-349721000Y398040000D02*
X-349721000Y399480000D01*
X-349721000Y394520000D02*
X-349721000Y395960000D01*
X-349680000Y398040000D02*
X-349680000Y399491000D01*
X-349680000Y394509000D02*
X-349680000Y395960000D01*
X-349640000Y398040000D02*
X-349640000Y399501000D01*
X-349640000Y394499000D02*
X-349640000Y395960000D01*
X-349600000Y398040000D02*
X-349600000Y399511000D01*
X-349600000Y394489000D02*
X-349600000Y395960000D01*
X-349560000Y398040000D02*
X-349560000Y399520000D01*
X-349560000Y394480000D02*
X-349560000Y395960000D01*
X-349520000Y398040000D02*
X-349520000Y399528000D01*
X-349520000Y394472000D02*
X-349520000Y395960000D01*
X-349480000Y398040000D02*
X-349480000Y399536000D01*
X-349480000Y394464000D02*
X-349480000Y395960000D01*
X-349440000Y398040000D02*
X-349440000Y399543000D01*
X-349440000Y394457000D02*
X-349440000Y395960000D01*
X-349400000Y398040000D02*
X-349400000Y399550000D01*
X-349400000Y394450000D02*
X-349400000Y395960000D01*
X-349360000Y398040000D02*
X-349360000Y399556000D01*
X-349360000Y394444000D02*
X-349360000Y395960000D01*
X-349320000Y398040000D02*
X-349320000Y399561000D01*
X-349320000Y394439000D02*
X-349320000Y395960000D01*
X-349280000Y398040000D02*
X-349280000Y399565000D01*
X-349280000Y394435000D02*
X-349280000Y395960000D01*
X-349240000Y398040000D02*
X-349240000Y399569000D01*
X-349240000Y394431000D02*
X-349240000Y395960000D01*
X-349200000Y398040000D02*
X-349200000Y399573000D01*
X-349200000Y394427000D02*
X-349200000Y395960000D01*
X-349160000Y398040000D02*
X-349160000Y399576000D01*
X-349160000Y394424000D02*
X-349160000Y395960000D01*
X-349120000Y398040000D02*
X-349120000Y399578000D01*
X-349120000Y394422000D02*
X-349120000Y395960000D01*
X-349080000Y398040000D02*
X-349080000Y399579000D01*
X-349080000Y394421000D02*
X-349080000Y395960000D01*
X-349040000Y394420000D02*
X-349040000Y395960000D01*
X-349040000Y398040000D02*
X-349040000Y399580000D01*
X-349000000Y394420000D02*
X-349000000Y395960000D01*
X-349000000Y398040000D02*
X-349000000Y399580000D01*
X-346380000Y397000000D02*
G75*
G03*
X-346380000Y397000000I-2620000J0D01*
G01*
%TO.C,C7*%
X-314554775Y418725000D02*
X-314554775Y418225000D01*
X-314804775Y418475000D02*
X-314304775Y418475000D01*
X-309399000Y417284000D02*
X-309399000Y416716000D01*
X-309439000Y417518000D02*
X-309439000Y416482000D01*
X-309479000Y417677000D02*
X-309479000Y416323000D01*
X-309519000Y417805000D02*
X-309519000Y416195000D01*
X-309559000Y417915000D02*
X-309559000Y416085000D01*
X-309599000Y418011000D02*
X-309599000Y415989000D01*
X-309639000Y418098000D02*
X-309639000Y415902000D01*
X-309679000Y418178000D02*
X-309679000Y415822000D01*
X-309719000Y418251000D02*
X-309719000Y415749000D01*
X-309759000Y418319000D02*
X-309759000Y415681000D01*
X-309799000Y418383000D02*
X-309799000Y415617000D01*
X-309839000Y418443000D02*
X-309839000Y415557000D01*
X-309879000Y418500000D02*
X-309879000Y415500000D01*
X-309919000Y418554000D02*
X-309919000Y415446000D01*
X-309959000Y418605000D02*
X-309959000Y415395000D01*
X-309999000Y415960000D02*
X-309999000Y415347000D01*
X-309999000Y418653000D02*
X-309999000Y418040000D01*
X-310039000Y415960000D02*
X-310039000Y415301000D01*
X-310039000Y418699000D02*
X-310039000Y418040000D01*
X-310079000Y415960000D02*
X-310079000Y415257000D01*
X-310079000Y418743000D02*
X-310079000Y418040000D01*
X-310119000Y415960000D02*
X-310119000Y415215000D01*
X-310119000Y418785000D02*
X-310119000Y418040000D01*
X-310159000Y415960000D02*
X-310159000Y415174000D01*
X-310159000Y418826000D02*
X-310159000Y418040000D01*
X-310199000Y415960000D02*
X-310199000Y415136000D01*
X-310199000Y418864000D02*
X-310199000Y418040000D01*
X-310239000Y415960000D02*
X-310239000Y415099000D01*
X-310239000Y418901000D02*
X-310239000Y418040000D01*
X-310279000Y415960000D02*
X-310279000Y415063000D01*
X-310279000Y418937000D02*
X-310279000Y418040000D01*
X-310319000Y415960000D02*
X-310319000Y415029000D01*
X-310319000Y418971000D02*
X-310319000Y418040000D01*
X-310359000Y415960000D02*
X-310359000Y414996000D01*
X-310359000Y419004000D02*
X-310359000Y418040000D01*
X-310399000Y415960000D02*
X-310399000Y414965000D01*
X-310399000Y419035000D02*
X-310399000Y418040000D01*
X-310439000Y415960000D02*
X-310439000Y414935000D01*
X-310439000Y419065000D02*
X-310439000Y418040000D01*
X-310479000Y415960000D02*
X-310479000Y414905000D01*
X-310479000Y419095000D02*
X-310479000Y418040000D01*
X-310519000Y415960000D02*
X-310519000Y414878000D01*
X-310519000Y419122000D02*
X-310519000Y418040000D01*
X-310559000Y415960000D02*
X-310559000Y414851000D01*
X-310559000Y419149000D02*
X-310559000Y418040000D01*
X-310599000Y415960000D02*
X-310599000Y414825000D01*
X-310599000Y419175000D02*
X-310599000Y418040000D01*
X-310639000Y415960000D02*
X-310639000Y414800000D01*
X-310639000Y419200000D02*
X-310639000Y418040000D01*
X-310679000Y415960000D02*
X-310679000Y414776000D01*
X-310679000Y419224000D02*
X-310679000Y418040000D01*
X-310719000Y415960000D02*
X-310719000Y414753000D01*
X-310719000Y419247000D02*
X-310719000Y418040000D01*
X-310759000Y415960000D02*
X-310759000Y414732000D01*
X-310759000Y419268000D02*
X-310759000Y418040000D01*
X-310799000Y415960000D02*
X-310799000Y414710000D01*
X-310799000Y419290000D02*
X-310799000Y418040000D01*
X-310839000Y415960000D02*
X-310839000Y414690000D01*
X-310839000Y419310000D02*
X-310839000Y418040000D01*
X-310879000Y415960000D02*
X-310879000Y414671000D01*
X-310879000Y419329000D02*
X-310879000Y418040000D01*
X-310919000Y415960000D02*
X-310919000Y414652000D01*
X-310919000Y419348000D02*
X-310919000Y418040000D01*
X-310959000Y415960000D02*
X-310959000Y414635000D01*
X-310959000Y419365000D02*
X-310959000Y418040000D01*
X-310999000Y415960000D02*
X-310999000Y414618000D01*
X-310999000Y419382000D02*
X-310999000Y418040000D01*
X-311039000Y415960000D02*
X-311039000Y414602000D01*
X-311039000Y419398000D02*
X-311039000Y418040000D01*
X-311079000Y415960000D02*
X-311079000Y414586000D01*
X-311079000Y419414000D02*
X-311079000Y418040000D01*
X-311119000Y415960000D02*
X-311119000Y414572000D01*
X-311119000Y419428000D02*
X-311119000Y418040000D01*
X-311159000Y415960000D02*
X-311159000Y414558000D01*
X-311159000Y419442000D02*
X-311159000Y418040000D01*
X-311199000Y415960000D02*
X-311199000Y414545000D01*
X-311199000Y419455000D02*
X-311199000Y418040000D01*
X-311239000Y415960000D02*
X-311239000Y414532000D01*
X-311239000Y419468000D02*
X-311239000Y418040000D01*
X-311279000Y415960000D02*
X-311279000Y414520000D01*
X-311279000Y419480000D02*
X-311279000Y418040000D01*
X-311320000Y415960000D02*
X-311320000Y414509000D01*
X-311320000Y419491000D02*
X-311320000Y418040000D01*
X-311360000Y415960000D02*
X-311360000Y414499000D01*
X-311360000Y419501000D02*
X-311360000Y418040000D01*
X-311400000Y415960000D02*
X-311400000Y414489000D01*
X-311400000Y419511000D02*
X-311400000Y418040000D01*
X-311440000Y415960000D02*
X-311440000Y414480000D01*
X-311440000Y419520000D02*
X-311440000Y418040000D01*
X-311480000Y415960000D02*
X-311480000Y414472000D01*
X-311480000Y419528000D02*
X-311480000Y418040000D01*
X-311520000Y415960000D02*
X-311520000Y414464000D01*
X-311520000Y419536000D02*
X-311520000Y418040000D01*
X-311560000Y415960000D02*
X-311560000Y414457000D01*
X-311560000Y419543000D02*
X-311560000Y418040000D01*
X-311600000Y415960000D02*
X-311600000Y414450000D01*
X-311600000Y419550000D02*
X-311600000Y418040000D01*
X-311640000Y415960000D02*
X-311640000Y414444000D01*
X-311640000Y419556000D02*
X-311640000Y418040000D01*
X-311680000Y415960000D02*
X-311680000Y414439000D01*
X-311680000Y419561000D02*
X-311680000Y418040000D01*
X-311720000Y415960000D02*
X-311720000Y414435000D01*
X-311720000Y419565000D02*
X-311720000Y418040000D01*
X-311760000Y415960000D02*
X-311760000Y414431000D01*
X-311760000Y419569000D02*
X-311760000Y418040000D01*
X-311800000Y415960000D02*
X-311800000Y414427000D01*
X-311800000Y419573000D02*
X-311800000Y418040000D01*
X-311840000Y415960000D02*
X-311840000Y414424000D01*
X-311840000Y419576000D02*
X-311840000Y418040000D01*
X-311880000Y415960000D02*
X-311880000Y414422000D01*
X-311880000Y419578000D02*
X-311880000Y418040000D01*
X-311920000Y415960000D02*
X-311920000Y414421000D01*
X-311920000Y419579000D02*
X-311920000Y418040000D01*
X-311960000Y419580000D02*
X-311960000Y418040000D01*
X-311960000Y415960000D02*
X-311960000Y414420000D01*
X-312000000Y419580000D02*
X-312000000Y418040000D01*
X-312000000Y415960000D02*
X-312000000Y414420000D01*
X-309380000Y417000000D02*
G75*
G03*
X-309380000Y417000000I-2620000J0D01*
G01*
%TO.C,J1*%
X-357330000Y412590000D02*
X-354670000Y412590000D01*
X-357330000Y417730000D02*
X-357330000Y412590000D01*
X-354670000Y417730000D02*
X-354670000Y412590000D01*
X-357330000Y417730000D02*
X-354670000Y417730000D01*
X-357330000Y419000000D02*
X-357330000Y420330000D01*
X-357330000Y420330000D02*
X-356000000Y420330000D01*
%TO.C,J2*%
X-357330000Y388970000D02*
X-354670000Y388970000D01*
X-357330000Y401730000D02*
X-357330000Y388970000D01*
X-354670000Y401730000D02*
X-354670000Y388970000D01*
X-357330000Y401730000D02*
X-354670000Y401730000D01*
X-357330000Y403000000D02*
X-357330000Y404330000D01*
X-357330000Y404330000D02*
X-356000000Y404330000D01*
%TO.C,J3*%
X-296560000Y419060000D02*
X-296560000Y414940000D01*
X-296560000Y414940000D02*
X-294940000Y414940000D01*
X-294940000Y414940000D02*
X-294940000Y419060000D01*
X-294940000Y419060000D02*
X-296560000Y419060000D01*
X-294940000Y418310000D02*
X-290740000Y418310000D01*
X-290740000Y418310000D02*
X-290740000Y417690000D01*
X-290740000Y417690000D02*
X-294940000Y417690000D01*
X-294940000Y418250000D02*
X-290740000Y418250000D01*
X-294940000Y418130000D02*
X-290740000Y418130000D01*
X-294940000Y418010000D02*
X-290740000Y418010000D01*
X-294940000Y417890000D02*
X-290740000Y417890000D01*
X-294940000Y417770000D02*
X-290740000Y417770000D01*
X-297065000Y418310000D02*
X-296560000Y418310000D01*
X-297065000Y417690000D02*
X-296560000Y417690000D01*
X-296560000Y417000000D02*
X-294940000Y417000000D01*
X-294940000Y416310000D02*
X-290740000Y416310000D01*
X-290740000Y416310000D02*
X-290740000Y415690000D01*
X-290740000Y415690000D02*
X-294940000Y415690000D01*
X-297117886Y416310000D02*
X-296560000Y416310000D01*
X-297117886Y415690000D02*
X-296560000Y415690000D01*
X-299000000Y418000000D02*
X-299000000Y419000000D01*
X-299000000Y419000000D02*
X-298000000Y419000000D01*
D11*
%TO.C,J4*%
X-298750000Y393850000D02*
X-290750000Y393850000D01*
X-290750000Y393850000D02*
X-290750000Y402150000D01*
X-290750000Y402150000D02*
X-298750000Y402150000D01*
X-298750000Y402150000D02*
X-298750000Y403300000D01*
X-298750000Y403300000D02*
X-301850000Y403300000D01*
X-298750000Y392700000D02*
X-298750000Y393850000D01*
X-301950000Y392700000D02*
X-298750000Y392700000D01*
X-305250000Y401350000D02*
X-305250000Y398800000D01*
X-305250000Y397100000D02*
X-305250000Y394600000D01*
D12*
X-306600000Y392800000D02*
G75*
G03*
X-306600000Y392800000I-200000J0D01*
G01*
D10*
%TO.C,R1*%
X-343540000Y416960000D02*
X-343540000Y416630000D01*
X-343540000Y416630000D02*
X-350080000Y416630000D01*
X-350080000Y416630000D02*
X-350080000Y416960000D01*
X-343540000Y419040000D02*
X-343540000Y419370000D01*
X-343540000Y419370000D02*
X-350080000Y419370000D01*
X-350080000Y419370000D02*
X-350080000Y419040000D01*
%TO.C,R2*%
X-322920000Y400630000D02*
X-322920000Y400960000D01*
X-329460000Y400630000D02*
X-322920000Y400630000D01*
X-329460000Y400960000D02*
X-329460000Y400630000D01*
X-322920000Y403370000D02*
X-322920000Y403040000D01*
X-329460000Y403370000D02*
X-322920000Y403370000D01*
X-329460000Y403040000D02*
X-329460000Y403370000D01*
%TO.C,R3*%
X-329460000Y408040000D02*
X-329460000Y408370000D01*
X-329460000Y408370000D02*
X-322920000Y408370000D01*
X-322920000Y408370000D02*
X-322920000Y408040000D01*
X-329460000Y405960000D02*
X-329460000Y405630000D01*
X-329460000Y405630000D02*
X-322920000Y405630000D01*
X-322920000Y405630000D02*
X-322920000Y405960000D01*
%TO.C,R4*%
X-318080000Y408370000D02*
X-318080000Y408040000D01*
X-311540000Y408370000D02*
X-318080000Y408370000D01*
X-311540000Y408040000D02*
X-311540000Y408370000D01*
X-318080000Y405630000D02*
X-318080000Y405960000D01*
X-311540000Y405630000D02*
X-318080000Y405630000D01*
X-311540000Y405960000D02*
X-311540000Y405630000D01*
%TO.C,U1*%
X-331330000Y391810000D02*
X-331330000Y390160000D01*
X-331330000Y390160000D02*
X-313430000Y390160000D01*
X-313430000Y390160000D02*
X-313430000Y395460000D01*
X-313430000Y395460000D02*
X-331330000Y395460000D01*
X-331330000Y395460000D02*
X-331330000Y393810000D01*
X-331330000Y393810000D02*
G75*
G02*
X-331330000Y391810000I0J-1000000D01*
G01*
%TO.C,U2*%
X-344270000Y388420000D02*
X-344270000Y398660000D01*
X-339629000Y388420000D02*
X-339629000Y398660000D01*
X-344270000Y388420000D02*
X-339629000Y388420000D01*
X-344270000Y398660000D02*
X-339629000Y398660000D01*
X-342760000Y388420000D02*
X-342760000Y398660000D01*
X-344270000Y391690000D02*
X-342760000Y391690000D01*
X-344270000Y395391000D02*
X-342760000Y395391000D01*
%TO.C,U3*%
X-322810000Y413670000D02*
X-321160000Y413670000D01*
X-321160000Y413670000D02*
X-321160000Y423950000D01*
X-321160000Y423950000D02*
X-326460000Y423950000D01*
X-326460000Y423950000D02*
X-326460000Y413670000D01*
X-326460000Y413670000D02*
X-324810000Y413670000D01*
X-324810000Y413670000D02*
G75*
G02*
X-322810000Y413670000I1000000J0D01*
G01*
%TO.C,*%
D13*
%TO.C,C1*%
X-341166666Y419392857D02*
X-341214285Y419345238D01*
X-341357142Y419297619D01*
X-341452380Y419297619D01*
X-341595238Y419345238D01*
X-341690476Y419440476D01*
X-341738095Y419535714D01*
X-341785714Y419726190D01*
X-341785714Y419869047D01*
X-341738095Y420059523D01*
X-341690476Y420154761D01*
X-341595238Y420250000D01*
X-341452380Y420297619D01*
X-341357142Y420297619D01*
X-341214285Y420250000D01*
X-341166666Y420202380D01*
X-340214285Y419297619D02*
X-340785714Y419297619D01*
X-340500000Y419297619D02*
X-340500000Y420297619D01*
X-340595238Y420154761D01*
X-340690476Y420059523D01*
X-340785714Y420011904D01*
%TO.C,C2*%
X-349166666Y383892857D02*
X-349214285Y383845238D01*
X-349357142Y383797619D01*
X-349452380Y383797619D01*
X-349595238Y383845238D01*
X-349690476Y383940476D01*
X-349738095Y384035714D01*
X-349785714Y384226190D01*
X-349785714Y384369047D01*
X-349738095Y384559523D01*
X-349690476Y384654761D01*
X-349595238Y384750000D01*
X-349452380Y384797619D01*
X-349357142Y384797619D01*
X-349214285Y384750000D01*
X-349166666Y384702380D01*
X-348785714Y384702380D02*
X-348738095Y384750000D01*
X-348642857Y384797619D01*
X-348404761Y384797619D01*
X-348309523Y384750000D01*
X-348261904Y384702380D01*
X-348214285Y384607142D01*
X-348214285Y384511904D01*
X-348261904Y384369047D01*
X-348833333Y383797619D01*
X-348214285Y383797619D01*
%TO.C,C3*%
X-332142857Y416333333D02*
X-332095238Y416285714D01*
X-332047619Y416142857D01*
X-332047619Y416047619D01*
X-332095238Y415904761D01*
X-332190476Y415809523D01*
X-332285714Y415761904D01*
X-332476190Y415714285D01*
X-332619047Y415714285D01*
X-332809523Y415761904D01*
X-332904761Y415809523D01*
X-333000000Y415904761D01*
X-333047619Y416047619D01*
X-333047619Y416142857D01*
X-333000000Y416285714D01*
X-332952380Y416333333D01*
X-333047619Y416666666D02*
X-333047619Y417285714D01*
X-332666666Y416952380D01*
X-332666666Y417095238D01*
X-332619047Y417190476D01*
X-332571428Y417238095D01*
X-332476190Y417285714D01*
X-332238095Y417285714D01*
X-332142857Y417238095D01*
X-332095238Y417190476D01*
X-332047619Y417095238D01*
X-332047619Y416809523D01*
X-332095238Y416714285D01*
X-332142857Y416666666D01*
%TO.C,C4*%
X-341166666Y407892857D02*
X-341214285Y407845238D01*
X-341357142Y407797619D01*
X-341452380Y407797619D01*
X-341595238Y407845238D01*
X-341690476Y407940476D01*
X-341738095Y408035714D01*
X-341785714Y408226190D01*
X-341785714Y408369047D01*
X-341738095Y408559523D01*
X-341690476Y408654761D01*
X-341595238Y408750000D01*
X-341452380Y408797619D01*
X-341357142Y408797619D01*
X-341214285Y408750000D01*
X-341166666Y408702380D01*
X-340309523Y408464285D02*
X-340309523Y407797619D01*
X-340547619Y408845238D02*
X-340785714Y408130952D01*
X-340166666Y408130952D01*
%TO.C,C5*%
X-348666666Y402142857D02*
X-348714285Y402095238D01*
X-348857142Y402047619D01*
X-348952380Y402047619D01*
X-349095238Y402095238D01*
X-349190476Y402190476D01*
X-349238095Y402285714D01*
X-349285714Y402476190D01*
X-349285714Y402619047D01*
X-349238095Y402809523D01*
X-349190476Y402904761D01*
X-349095238Y403000000D01*
X-348952380Y403047619D01*
X-348857142Y403047619D01*
X-348714285Y403000000D01*
X-348666666Y402952380D01*
X-347761904Y403047619D02*
X-348238095Y403047619D01*
X-348285714Y402571428D01*
X-348238095Y402619047D01*
X-348142857Y402666666D01*
X-347904761Y402666666D01*
X-347809523Y402619047D01*
X-347761904Y402571428D01*
X-347714285Y402476190D01*
X-347714285Y402238095D01*
X-347761904Y402142857D01*
X-347809523Y402095238D01*
X-347904761Y402047619D01*
X-348142857Y402047619D01*
X-348238095Y402095238D01*
X-348285714Y402142857D01*
%TO.C,C6*%
X-349166666Y392892857D02*
X-349214285Y392845238D01*
X-349357142Y392797619D01*
X-349452380Y392797619D01*
X-349595238Y392845238D01*
X-349690476Y392940476D01*
X-349738095Y393035714D01*
X-349785714Y393226190D01*
X-349785714Y393369047D01*
X-349738095Y393559523D01*
X-349690476Y393654761D01*
X-349595238Y393750000D01*
X-349452380Y393797619D01*
X-349357142Y393797619D01*
X-349214285Y393750000D01*
X-349166666Y393702380D01*
X-348309523Y393797619D02*
X-348500000Y393797619D01*
X-348595238Y393750000D01*
X-348642857Y393702380D01*
X-348738095Y393559523D01*
X-348785714Y393369047D01*
X-348785714Y392988095D01*
X-348738095Y392892857D01*
X-348690476Y392845238D01*
X-348595238Y392797619D01*
X-348404761Y392797619D01*
X-348309523Y392845238D01*
X-348261904Y392892857D01*
X-348214285Y392988095D01*
X-348214285Y393226190D01*
X-348261904Y393321428D01*
X-348309523Y393369047D01*
X-348404761Y393416666D01*
X-348595238Y393416666D01*
X-348690476Y393369047D01*
X-348738095Y393321428D01*
X-348785714Y393226190D01*
%TO.C,C7*%
X-312166666Y420392857D02*
X-312214285Y420345238D01*
X-312357142Y420297619D01*
X-312452380Y420297619D01*
X-312595238Y420345238D01*
X-312690476Y420440476D01*
X-312738095Y420535714D01*
X-312785714Y420726190D01*
X-312785714Y420869047D01*
X-312738095Y421059523D01*
X-312690476Y421154761D01*
X-312595238Y421250000D01*
X-312452380Y421297619D01*
X-312357142Y421297619D01*
X-312214285Y421250000D01*
X-312166666Y421202380D01*
X-311833333Y421297619D02*
X-311166666Y421297619D01*
X-311595238Y420297619D01*
%TO.C,J1*%
X-356333333Y421877619D02*
X-356333333Y421163333D01*
X-356380952Y421020476D01*
X-356476190Y420925238D01*
X-356619047Y420877619D01*
X-356714285Y420877619D01*
X-355333333Y420877619D02*
X-355904761Y420877619D01*
X-355619047Y420877619D02*
X-355619047Y421877619D01*
X-355714285Y421734761D01*
X-355809523Y421639523D01*
X-355904761Y421591904D01*
%TO.C,J2*%
X-356333333Y405877619D02*
X-356333333Y405163333D01*
X-356380952Y405020476D01*
X-356476190Y404925238D01*
X-356619047Y404877619D01*
X-356714285Y404877619D01*
X-355904761Y405782380D02*
X-355857142Y405830000D01*
X-355761904Y405877619D01*
X-355523809Y405877619D01*
X-355428571Y405830000D01*
X-355380952Y405782380D01*
X-355333333Y405687142D01*
X-355333333Y405591904D01*
X-355380952Y405449047D01*
X-355952380Y404877619D01*
X-355333333Y404877619D01*
%TO.C,J3*%
X-295233333Y420547619D02*
X-295233333Y419833333D01*
X-295280952Y419690476D01*
X-295376190Y419595238D01*
X-295519047Y419547619D01*
X-295614285Y419547619D01*
X-294852380Y420547619D02*
X-294233333Y420547619D01*
X-294566666Y420166666D01*
X-294423809Y420166666D01*
X-294328571Y420119047D01*
X-294280952Y420071428D01*
X-294233333Y419976190D01*
X-294233333Y419738095D01*
X-294280952Y419642857D01*
X-294328571Y419595238D01*
X-294423809Y419547619D01*
X-294709523Y419547619D01*
X-294804761Y419595238D01*
X-294852380Y419642857D01*
%TO.C,J4*%
X-294303150Y392785306D02*
X-294303150Y392070019D01*
X-294350836Y391926962D01*
X-294446208Y391831590D01*
X-294589265Y391783904D01*
X-294684637Y391783904D01*
X-293397120Y392451506D02*
X-293397120Y391783904D01*
X-293635549Y392832992D02*
X-293873978Y392117705D01*
X-293254062Y392117705D01*
%TO.C,R1*%
X-346976666Y415177619D02*
X-347310000Y415653809D01*
X-347548095Y415177619D02*
X-347548095Y416177619D01*
X-347167142Y416177619D01*
X-347071904Y416130000D01*
X-347024285Y416082380D01*
X-346976666Y415987142D01*
X-346976666Y415844285D01*
X-347024285Y415749047D01*
X-347071904Y415701428D01*
X-347167142Y415653809D01*
X-347548095Y415653809D01*
X-346024285Y415177619D02*
X-346595714Y415177619D01*
X-346310000Y415177619D02*
X-346310000Y416177619D01*
X-346405238Y416034761D01*
X-346500476Y415939523D01*
X-346595714Y415891904D01*
%TO.C,R2*%
X-326356666Y403917619D02*
X-326690000Y404393809D01*
X-326928095Y403917619D02*
X-326928095Y404917619D01*
X-326547142Y404917619D01*
X-326451904Y404870000D01*
X-326404285Y404822380D01*
X-326356666Y404727142D01*
X-326356666Y404584285D01*
X-326404285Y404489047D01*
X-326451904Y404441428D01*
X-326547142Y404393809D01*
X-326928095Y404393809D01*
X-325975714Y404822380D02*
X-325928095Y404870000D01*
X-325832857Y404917619D01*
X-325594761Y404917619D01*
X-325499523Y404870000D01*
X-325451904Y404822380D01*
X-325404285Y404727142D01*
X-325404285Y404631904D01*
X-325451904Y404489047D01*
X-326023333Y403917619D01*
X-325404285Y403917619D01*
%TO.C,R3*%
X-326356666Y408917619D02*
X-326690000Y409393809D01*
X-326928095Y408917619D02*
X-326928095Y409917619D01*
X-326547142Y409917619D01*
X-326451904Y409870000D01*
X-326404285Y409822380D01*
X-326356666Y409727142D01*
X-326356666Y409584285D01*
X-326404285Y409489047D01*
X-326451904Y409441428D01*
X-326547142Y409393809D01*
X-326928095Y409393809D01*
X-326023333Y409917619D02*
X-325404285Y409917619D01*
X-325737619Y409536666D01*
X-325594761Y409536666D01*
X-325499523Y409489047D01*
X-325451904Y409441428D01*
X-325404285Y409346190D01*
X-325404285Y409108095D01*
X-325451904Y409012857D01*
X-325499523Y408965238D01*
X-325594761Y408917619D01*
X-325880476Y408917619D01*
X-325975714Y408965238D01*
X-326023333Y409012857D01*
%TO.C,R4*%
X-314976666Y404177619D02*
X-315310000Y404653809D01*
X-315548095Y404177619D02*
X-315548095Y405177619D01*
X-315167142Y405177619D01*
X-315071904Y405130000D01*
X-315024285Y405082380D01*
X-314976666Y404987142D01*
X-314976666Y404844285D01*
X-315024285Y404749047D01*
X-315071904Y404701428D01*
X-315167142Y404653809D01*
X-315548095Y404653809D01*
X-314119523Y404844285D02*
X-314119523Y404177619D01*
X-314357619Y405225238D02*
X-314595714Y404510952D01*
X-313976666Y404510952D01*
%TO.C,U1*%
X-332877619Y392048095D02*
X-332068095Y392048095D01*
X-331972857Y392095714D01*
X-331925238Y392143333D01*
X-331877619Y392238571D01*
X-331877619Y392429047D01*
X-331925238Y392524285D01*
X-331972857Y392571904D01*
X-332068095Y392619523D01*
X-332877619Y392619523D01*
X-331877619Y393619523D02*
X-331877619Y393048095D01*
X-331877619Y393333809D02*
X-332877619Y393333809D01*
X-332734761Y393238571D01*
X-332639523Y393143333D01*
X-332591904Y393048095D01*
%TO.C,U2*%
X-345817619Y392778095D02*
X-345008095Y392778095D01*
X-344912857Y392825714D01*
X-344865238Y392873333D01*
X-344817619Y392968571D01*
X-344817619Y393159047D01*
X-344865238Y393254285D01*
X-344912857Y393301904D01*
X-345008095Y393349523D01*
X-345817619Y393349523D01*
X-345722380Y393778095D02*
X-345770000Y393825714D01*
X-345817619Y393920952D01*
X-345817619Y394159047D01*
X-345770000Y394254285D01*
X-345722380Y394301904D01*
X-345627142Y394349523D01*
X-345531904Y394349523D01*
X-345389047Y394301904D01*
X-344817619Y393730476D01*
X-344817619Y394349523D01*
%TO.C,U3*%
X-324571904Y413217619D02*
X-324571904Y412408095D01*
X-324524285Y412312857D01*
X-324476666Y412265238D01*
X-324381428Y412217619D01*
X-324190952Y412217619D01*
X-324095714Y412265238D01*
X-324048095Y412312857D01*
X-324000476Y412408095D01*
X-324000476Y413217619D01*
X-323619523Y413217619D02*
X-323000476Y413217619D01*
X-323333809Y412836666D01*
X-323190952Y412836666D01*
X-323095714Y412789047D01*
X-323048095Y412741428D01*
X-323000476Y412646190D01*
X-323000476Y412408095D01*
X-323048095Y412312857D01*
X-323095714Y412265238D01*
X-323190952Y412217619D01*
X-323476666Y412217619D01*
X-323571904Y412265238D01*
X-323619523Y412312857D01*
%TD*%
M02*
