%TF.GenerationSoftware,KiCad,Pcbnew,(5.1.10)-1*%
%TF.CreationDate,2022-07-05T19:15:51+09:00*%
%TF.ProjectId,MZ_CVBS,4d5a5f43-5642-4532-9e6b-696361645f70,rev?*%
%TF.SameCoordinates,Original*%
%TF.FileFunction,Copper,L1,Top*%
%TF.FilePolarity,Positive*%
%FSLAX46Y46*%
G04 Gerber Fmt 4.6, Leading zero omitted, Abs format (unit mm)*
G04 Created by KiCad (PCBNEW (5.1.10)-1) date 2022-07-05 19:15:51*
%MOMM*%
%LPD*%
G01*
G04 APERTURE LIST*
%TA.AperFunction,ComponentPad*%
%ADD10R,1.200000X1.200000*%
%TD*%
%TA.AperFunction,ComponentPad*%
%ADD11C,1.200000*%
%TD*%
%TA.AperFunction,ComponentPad*%
%ADD12R,1.600000X1.600000*%
%TD*%
%TA.AperFunction,ComponentPad*%
%ADD13C,1.600000*%
%TD*%
%TA.AperFunction,ComponentPad*%
%ADD14R,1.700000X1.700000*%
%TD*%
%TA.AperFunction,ComponentPad*%
%ADD15O,1.700000X1.700000*%
%TD*%
%TA.AperFunction,ComponentPad*%
%ADD16R,1.350000X1.350000*%
%TD*%
%TA.AperFunction,ComponentPad*%
%ADD17O,1.350000X1.350000*%
%TD*%
%TA.AperFunction,ComponentPad*%
%ADD18C,2.550000*%
%TD*%
%TA.AperFunction,ComponentPad*%
%ADD19C,3.616000*%
%TD*%
%TA.AperFunction,ComponentPad*%
%ADD20O,1.600000X1.600000*%
%TD*%
%TA.AperFunction,ComponentPad*%
%ADD21R,2.000000X1.905000*%
%TD*%
%TA.AperFunction,ComponentPad*%
%ADD22O,2.000000X1.905000*%
%TD*%
%TA.AperFunction,Conductor*%
%ADD23C,1.000000*%
%TD*%
%TA.AperFunction,Conductor*%
%ADD24C,2.000000*%
%TD*%
%TA.AperFunction,Conductor*%
%ADD25C,0.254000*%
%TD*%
%TA.AperFunction,Conductor*%
%ADD26C,0.100000*%
%TD*%
G04 APERTURE END LIST*
D10*
%TO.P,C1,1*%
%TO.N,Net-(C1-Pad1)*%
X-340000000Y423000000D03*
D11*
%TO.P,C1,2*%
%TO.N,Net-(C1-Pad2)*%
X-342000000Y423000000D03*
%TD*%
D12*
%TO.P,C2,1*%
%TO.N,+12V*%
X-348000000Y388000000D03*
D13*
%TO.P,C2,2*%
%TO.N,GND*%
X-350000000Y388000000D03*
%TD*%
%TO.P,C3,2*%
%TO.N,Net-(C3-Pad2)*%
X-335000000Y414000000D03*
%TO.P,C3,1*%
%TO.N,Net-(C1-Pad1)*%
X-335000000Y419000000D03*
%TD*%
D12*
%TO.P,C4,1*%
%TO.N,Net-(C3-Pad2)*%
X-340000000Y412000000D03*
D13*
%TO.P,C4,2*%
%TO.N,Net-(C4-Pad2)*%
X-342000000Y412000000D03*
%TD*%
%TO.P,C5,1*%
%TO.N,+5V*%
X-346000000Y405000000D03*
%TO.P,C5,2*%
%TO.N,GND*%
X-351000000Y405000000D03*
%TD*%
%TO.P,C6,2*%
%TO.N,GND*%
X-350000000Y397000000D03*
D12*
%TO.P,C6,1*%
%TO.N,+5V*%
X-348000000Y397000000D03*
%TD*%
D13*
%TO.P,C7,2*%
%TO.N,/SP+*%
X-311000000Y417000000D03*
D12*
%TO.P,C7,1*%
%TO.N,Net-(C7-Pad1)*%
X-313000000Y417000000D03*
%TD*%
D14*
%TO.P,J1,1*%
%TO.N,Net-(C1-Pad2)*%
X-356000000Y419000000D03*
D15*
%TO.P,J1,2*%
%TO.N,/Sound*%
X-356000000Y416460000D03*
%TO.P,J1,3*%
%TO.N,GND*%
X-356000000Y413920000D03*
%TD*%
D14*
%TO.P,J2,1*%
%TO.N,/Sound*%
X-356000000Y403000000D03*
D15*
%TO.P,J2,2*%
%TO.N,/Sync*%
X-356000000Y400460000D03*
%TO.P,J2,3*%
%TO.N,/Video*%
X-356000000Y397920000D03*
%TO.P,J2,4*%
%TO.N,GND*%
X-356000000Y395380000D03*
%TO.P,J2,5*%
X-356000000Y392840000D03*
%TO.P,J2,6*%
%TO.N,+12V*%
X-356000000Y390300000D03*
%TD*%
D16*
%TO.P,J3,1*%
%TO.N,/SP+*%
X-298000000Y418000000D03*
D17*
%TO.P,J3,2*%
%TO.N,GND*%
X-298000000Y416000000D03*
%TD*%
D18*
%TO.P,J4,2*%
%TO.N,Net-(J4-Pad2)*%
X-303950000Y398000000D03*
D19*
%TO.P,J4,1A*%
%TO.N,GND*%
X-303950000Y393000000D03*
%TO.P,J4,1B*%
X-303950000Y403000000D03*
%TO.P,J4,1C*%
X-299450000Y398000000D03*
%TD*%
D13*
%TO.P,R1,1*%
%TO.N,Net-(C4-Pad2)*%
X-343000000Y418000000D03*
D20*
%TO.P,R1,2*%
%TO.N,GND*%
X-350620000Y418000000D03*
%TD*%
%TO.P,R2,2*%
%TO.N,Net-(J4-Pad2)*%
X-322380000Y402000000D03*
D13*
%TO.P,R2,1*%
%TO.N,+5V*%
X-330000000Y402000000D03*
%TD*%
%TO.P,R3,1*%
%TO.N,+5V*%
X-330000000Y407000000D03*
D20*
%TO.P,R3,2*%
%TO.N,Net-(R3-Pad2)*%
X-322380000Y407000000D03*
%TD*%
%TO.P,R4,2*%
%TO.N,Net-(R3-Pad2)*%
X-318620000Y407000000D03*
D13*
%TO.P,R4,1*%
%TO.N,Net-(J4-Pad2)*%
X-311000000Y407000000D03*
%TD*%
D12*
%TO.P,U1,1*%
%TO.N,/Sync*%
X-330000000Y389000000D03*
D20*
%TO.P,U1,8*%
%TO.N,N/C*%
X-314760000Y396620000D03*
%TO.P,U1,2*%
%TO.N,Net-(J4-Pad2)*%
X-327460000Y389000000D03*
%TO.P,U1,9*%
%TO.N,N/C*%
X-317300000Y396620000D03*
%TO.P,U1,3*%
%TO.N,/Video*%
X-324920000Y389000000D03*
%TO.P,U1,10*%
%TO.N,N/C*%
X-319840000Y396620000D03*
%TO.P,U1,4*%
%TO.N,Net-(R3-Pad2)*%
X-322380000Y389000000D03*
%TO.P,U1,11*%
%TO.N,N/C*%
X-322380000Y396620000D03*
%TO.P,U1,5*%
X-319840000Y389000000D03*
%TO.P,U1,12*%
X-324920000Y396620000D03*
%TO.P,U1,6*%
X-317300000Y389000000D03*
%TO.P,U1,13*%
X-327460000Y396620000D03*
%TO.P,U1,7*%
%TO.N,GND*%
X-314760000Y389000000D03*
%TO.P,U1,14*%
%TO.N,+5V*%
X-330000000Y396620000D03*
%TD*%
D21*
%TO.P,U2,1*%
%TO.N,+12V*%
X-341000000Y391000000D03*
D22*
%TO.P,U2,2*%
%TO.N,GND*%
X-341000000Y393540000D03*
%TO.P,U2,3*%
%TO.N,+5V*%
X-341000000Y396080000D03*
%TD*%
D12*
%TO.P,U3,1*%
%TO.N,Net-(C7-Pad1)*%
X-320000000Y415000000D03*
D20*
%TO.P,U3,5*%
%TO.N,N/C*%
X-327620000Y422620000D03*
%TO.P,U3,2*%
%TO.N,+12V*%
X-320000000Y417540000D03*
%TO.P,U3,6*%
%TO.N,N/C*%
X-327620000Y420080000D03*
%TO.P,U3,3*%
X-320000000Y420080000D03*
%TO.P,U3,7*%
%TO.N,Net-(C1-Pad1)*%
X-327620000Y417540000D03*
%TO.P,U3,4*%
%TO.N,GND*%
X-320000000Y422620000D03*
%TO.P,U3,8*%
%TO.N,Net-(C3-Pad2)*%
X-327620000Y415000000D03*
%TD*%
D23*
%TO.N,Net-(C1-Pad1)*%
X-340000000Y423000000D02*
X-338000000Y423000000D01*
X-335000000Y420000000D02*
X-335000000Y419000000D01*
X-338000000Y423000000D02*
X-335000000Y420000000D01*
X-335000000Y419000000D02*
X-331000000Y419000000D01*
X-329540000Y417540000D02*
X-327620000Y417540000D01*
X-331000000Y419000000D02*
X-329540000Y417540000D01*
%TO.N,Net-(C1-Pad2)*%
X-346080000Y421080000D02*
X-344160000Y423000000D01*
X-344160000Y423000000D02*
X-342000000Y423000000D01*
X-353920000Y421080000D02*
X-356000000Y419000000D01*
X-346080000Y421080000D02*
X-353920000Y421080000D01*
%TO.N,Net-(C3-Pad2)*%
X-340000000Y412000000D02*
X-338000000Y414000000D01*
X-338000000Y414000000D02*
X-335000000Y414000000D01*
X-328620000Y414000000D02*
X-327620000Y415000000D01*
X-335000000Y414000000D02*
X-328620000Y414000000D01*
%TO.N,Net-(C4-Pad2)*%
X-343000000Y413000000D02*
X-342000000Y412000000D01*
X-343000000Y418000000D02*
X-343000000Y413000000D01*
D24*
%TO.N,+5V*%
X-330000000Y396620000D02*
X-338380000Y405000000D01*
X-338380000Y405000000D02*
X-346000000Y405000000D01*
D23*
%TO.N,Net-(J4-Pad2)*%
X-322380000Y401380000D02*
X-322380000Y402000000D01*
X-321000000Y400000000D02*
X-322380000Y401380000D01*
X-312000000Y400000000D02*
X-321000000Y400000000D01*
X-311000000Y395000000D02*
X-311000000Y399000000D01*
X-312000000Y394000000D02*
X-311000000Y395000000D01*
X-311000000Y399000000D02*
X-312000000Y400000000D01*
X-326000000Y394000000D02*
X-312000000Y394000000D01*
X-327460000Y392540000D02*
X-326000000Y394000000D01*
X-327460000Y389000000D02*
X-327460000Y392540000D01*
X-322380000Y402000000D02*
X-324000000Y402000000D01*
X-324000000Y402000000D02*
X-325000000Y403000000D01*
X-325000000Y403000000D02*
X-325000000Y408000000D01*
X-325000000Y408000000D02*
X-324000000Y409000000D01*
X-313000000Y409000000D02*
X-311000000Y407000000D01*
X-324000000Y409000000D02*
X-313000000Y409000000D01*
X-303950000Y398000000D02*
X-306000000Y398000000D01*
X-311000000Y407000000D02*
X-311000000Y403000000D01*
X-311000000Y403000000D02*
X-306000000Y398000000D01*
%TO.N,Net-(R3-Pad2)*%
X-322380000Y389000000D02*
X-322380000Y390620000D01*
X-322380000Y390620000D02*
X-321000000Y392000000D01*
X-322380000Y407000000D02*
X-318620000Y407000000D01*
X-321000000Y392000000D02*
X-311000000Y392000000D01*
X-311000000Y392000000D02*
X-309000000Y394000000D01*
X-309000000Y394000000D02*
X-309000000Y399000000D01*
X-309000000Y399000000D02*
X-312000000Y402000000D01*
X-317380000Y402000000D02*
X-322380000Y407000000D01*
X-312000000Y402000000D02*
X-317380000Y402000000D01*
%TO.N,/SP+*%
X-298000000Y418000000D02*
X-305000000Y418000000D01*
X-306000000Y417000000D02*
X-311000000Y417000000D01*
X-305000000Y418000000D02*
X-306000000Y417000000D01*
%TO.N,/Sound*%
X-354000000Y405000000D02*
X-356000000Y403000000D01*
X-356000000Y416460000D02*
X-354460000Y416460000D01*
X-354000000Y416000000D02*
X-354000000Y405000000D01*
X-354460000Y416460000D02*
X-354000000Y416000000D01*
%TO.N,/Sync*%
X-356000000Y400460000D02*
X-337460000Y400460000D01*
X-337460000Y400460000D02*
X-333000000Y396000000D01*
X-333000000Y396000000D02*
X-333000000Y390000000D01*
X-332000000Y389000000D02*
X-330000000Y389000000D01*
X-333000000Y390000000D02*
X-332000000Y389000000D01*
%TO.N,/Video*%
X-332000000Y386000000D02*
X-326000000Y386000000D01*
X-324920000Y387080000D02*
X-324920000Y389000000D01*
X-335000000Y389000000D02*
X-332000000Y386000000D01*
X-335000000Y395000000D02*
X-335000000Y389000000D01*
X-338769999Y398769999D02*
X-335000000Y395000000D01*
X-326000000Y386000000D02*
X-324920000Y387080000D01*
X-355150001Y398769999D02*
X-338769999Y398769999D01*
X-356000000Y397920000D02*
X-355150001Y398769999D01*
%TO.N,Net-(C7-Pad1)*%
X-320000000Y415000000D02*
X-314000000Y415000000D01*
X-313000000Y416000000D02*
X-313000000Y417000000D01*
X-314000000Y415000000D02*
X-313000000Y416000000D01*
%TD*%
D25*
%TO.N,GND*%
X-291127000Y381127000D02*
X-358873000Y381127000D01*
X-358873000Y384220128D01*
X-358235000Y384220128D01*
X-358235000Y383779872D01*
X-358149110Y383348075D01*
X-357980631Y382941331D01*
X-357736038Y382575271D01*
X-357424729Y382263962D01*
X-357058669Y382019369D01*
X-356651925Y381850890D01*
X-356220128Y381765000D01*
X-355779872Y381765000D01*
X-355348075Y381850890D01*
X-354941331Y382019369D01*
X-354575271Y382263962D01*
X-354263962Y382575271D01*
X-354019369Y382941331D01*
X-353850890Y383348075D01*
X-353765000Y383779872D01*
X-353765000Y384220128D01*
X-296235000Y384220128D01*
X-296235000Y383779872D01*
X-296149110Y383348075D01*
X-295980631Y382941331D01*
X-295736038Y382575271D01*
X-295424729Y382263962D01*
X-295058669Y382019369D01*
X-294651925Y381850890D01*
X-294220128Y381765000D01*
X-293779872Y381765000D01*
X-293348075Y381850890D01*
X-292941331Y382019369D01*
X-292575271Y382263962D01*
X-292263962Y382575271D01*
X-292019369Y382941331D01*
X-291850890Y383348075D01*
X-291765000Y383779872D01*
X-291765000Y384220128D01*
X-291850890Y384651925D01*
X-292019369Y385058669D01*
X-292263962Y385424729D01*
X-292575271Y385736038D01*
X-292941331Y385980631D01*
X-293348075Y386149110D01*
X-293779872Y386235000D01*
X-294220128Y386235000D01*
X-294651925Y386149110D01*
X-295058669Y385980631D01*
X-295424729Y385736038D01*
X-295736038Y385424729D01*
X-295980631Y385058669D01*
X-296149110Y384651925D01*
X-296235000Y384220128D01*
X-353765000Y384220128D01*
X-353850890Y384651925D01*
X-354019369Y385058669D01*
X-354263962Y385424729D01*
X-354575271Y385736038D01*
X-354941331Y385980631D01*
X-355348075Y386149110D01*
X-355779872Y386235000D01*
X-356220128Y386235000D01*
X-356651925Y386149110D01*
X-357058669Y385980631D01*
X-357424729Y385736038D01*
X-357736038Y385424729D01*
X-357980631Y385058669D01*
X-358149110Y384651925D01*
X-358235000Y384220128D01*
X-358873000Y384220128D01*
X-358873000Y387929488D01*
X-351440217Y387929488D01*
X-351398787Y387649870D01*
X-351303603Y387383708D01*
X-351236671Y387258486D01*
X-350992702Y387186903D01*
X-350179605Y388000000D01*
X-350992702Y388813097D01*
X-351236671Y388741514D01*
X-351357571Y388486004D01*
X-351426300Y388211816D01*
X-351440217Y387929488D01*
X-358873000Y387929488D01*
X-358873000Y390446260D01*
X-357485000Y390446260D01*
X-357485000Y390153740D01*
X-357427932Y389866842D01*
X-357315990Y389596589D01*
X-357153475Y389353368D01*
X-356946632Y389146525D01*
X-356703411Y388984010D01*
X-356433158Y388872068D01*
X-356146260Y388815000D01*
X-355853740Y388815000D01*
X-355566842Y388872068D01*
X-355296589Y388984010D01*
X-355283581Y388992702D01*
X-350813097Y388992702D01*
X-350000000Y388179605D01*
X-349985858Y388193748D01*
X-349806253Y388014143D01*
X-349820395Y388000000D01*
X-349806253Y387985858D01*
X-349985858Y387806253D01*
X-350000000Y387820395D01*
X-350813097Y387007298D01*
X-350741514Y386763329D01*
X-350486004Y386642429D01*
X-350211816Y386573700D01*
X-349929488Y386559783D01*
X-349649870Y386601213D01*
X-349383708Y386696397D01*
X-349261691Y386761616D01*
X-349251185Y386748815D01*
X-349154494Y386669463D01*
X-349044180Y386610498D01*
X-348924482Y386574188D01*
X-348800000Y386561928D01*
X-347200000Y386561928D01*
X-347075518Y386574188D01*
X-346955820Y386610498D01*
X-346845506Y386669463D01*
X-346748815Y386748815D01*
X-346669463Y386845506D01*
X-346610498Y386955820D01*
X-346574188Y387075518D01*
X-346561928Y387200000D01*
X-346561928Y388800000D01*
X-346574188Y388924482D01*
X-346610498Y389044180D01*
X-346669463Y389154494D01*
X-346748815Y389251185D01*
X-346845506Y389330537D01*
X-346955820Y389389502D01*
X-347075518Y389425812D01*
X-347200000Y389438072D01*
X-348800000Y389438072D01*
X-348924482Y389425812D01*
X-349044180Y389389502D01*
X-349154494Y389330537D01*
X-349251185Y389251185D01*
X-349261807Y389238242D01*
X-349513996Y389357571D01*
X-349788184Y389426300D01*
X-350070512Y389440217D01*
X-350350130Y389398787D01*
X-350616292Y389303603D01*
X-350741514Y389236671D01*
X-350813097Y388992702D01*
X-355283581Y388992702D01*
X-355053368Y389146525D01*
X-354846525Y389353368D01*
X-354684010Y389596589D01*
X-354572068Y389866842D01*
X-354515000Y390153740D01*
X-354515000Y390446260D01*
X-354572068Y390733158D01*
X-354684010Y391003411D01*
X-354846525Y391246632D01*
X-355053368Y391453475D01*
X-355235534Y391575195D01*
X-355118645Y391644822D01*
X-354902412Y391839731D01*
X-354818299Y391952500D01*
X-342638072Y391952500D01*
X-342638072Y390047500D01*
X-342625812Y389923018D01*
X-342589502Y389803320D01*
X-342530537Y389693006D01*
X-342451185Y389596315D01*
X-342354494Y389516963D01*
X-342244180Y389457998D01*
X-342124482Y389421688D01*
X-342000000Y389409428D01*
X-340000000Y389409428D01*
X-339875518Y389421688D01*
X-339755820Y389457998D01*
X-339645506Y389516963D01*
X-339548815Y389596315D01*
X-339469463Y389693006D01*
X-339410498Y389803320D01*
X-339374188Y389923018D01*
X-339361928Y390047500D01*
X-339361928Y391952500D01*
X-339374188Y392076982D01*
X-339410498Y392196680D01*
X-339469463Y392306994D01*
X-339548815Y392403685D01*
X-339645506Y392483037D01*
X-339737219Y392532059D01*
X-339624031Y392673077D01*
X-339480429Y392948906D01*
X-339409437Y393167020D01*
X-339529406Y393413000D01*
X-340873000Y393413000D01*
X-340873000Y393393000D01*
X-341127000Y393393000D01*
X-341127000Y393413000D01*
X-342470594Y393413000D01*
X-342590563Y393167020D01*
X-342519571Y392948906D01*
X-342375969Y392673077D01*
X-342262781Y392532059D01*
X-342354494Y392483037D01*
X-342451185Y392403685D01*
X-342530537Y392306994D01*
X-342589502Y392196680D01*
X-342625812Y392076982D01*
X-342638072Y391952500D01*
X-354818299Y391952500D01*
X-354728359Y392073080D01*
X-354603175Y392335901D01*
X-354558524Y392483110D01*
X-354679845Y392713000D01*
X-355873000Y392713000D01*
X-355873000Y392693000D01*
X-356127000Y392693000D01*
X-356127000Y392713000D01*
X-357320155Y392713000D01*
X-357441476Y392483110D01*
X-357396825Y392335901D01*
X-357271641Y392073080D01*
X-357097588Y391839731D01*
X-356881355Y391644822D01*
X-356764466Y391575195D01*
X-356946632Y391453475D01*
X-357153475Y391246632D01*
X-357315990Y391003411D01*
X-357427932Y390733158D01*
X-357485000Y390446260D01*
X-358873000Y390446260D01*
X-358873000Y395023110D01*
X-357441476Y395023110D01*
X-357396825Y394875901D01*
X-357271641Y394613080D01*
X-357097588Y394379731D01*
X-356881355Y394184822D01*
X-356755745Y394110000D01*
X-356881355Y394035178D01*
X-357097588Y393840269D01*
X-357271641Y393606920D01*
X-357396825Y393344099D01*
X-357441476Y393196890D01*
X-357320155Y392967000D01*
X-356127000Y392967000D01*
X-356127000Y395253000D01*
X-355873000Y395253000D01*
X-355873000Y392967000D01*
X-354679845Y392967000D01*
X-354558524Y393196890D01*
X-354603175Y393344099D01*
X-354728359Y393606920D01*
X-354902412Y393840269D01*
X-355118645Y394035178D01*
X-355244255Y394110000D01*
X-355118645Y394184822D01*
X-354902412Y394379731D01*
X-354728359Y394613080D01*
X-354603175Y394875901D01*
X-354558524Y395023110D01*
X-354679845Y395253000D01*
X-355873000Y395253000D01*
X-356127000Y395253000D01*
X-357320155Y395253000D01*
X-357441476Y395023110D01*
X-358873000Y395023110D01*
X-358873000Y413563110D01*
X-357441476Y413563110D01*
X-357396825Y413415901D01*
X-357271641Y413153080D01*
X-357097588Y412919731D01*
X-356881355Y412724822D01*
X-356631252Y412575843D01*
X-356356891Y412478519D01*
X-356127000Y412599186D01*
X-356127000Y413793000D01*
X-357320155Y413793000D01*
X-357441476Y413563110D01*
X-358873000Y413563110D01*
X-358873000Y419850000D01*
X-357488072Y419850000D01*
X-357488072Y418150000D01*
X-357475812Y418025518D01*
X-357439502Y417905820D01*
X-357380537Y417795506D01*
X-357301185Y417698815D01*
X-357204494Y417619463D01*
X-357094180Y417560498D01*
X-357021620Y417538487D01*
X-357153475Y417406632D01*
X-357315990Y417163411D01*
X-357427932Y416893158D01*
X-357485000Y416606260D01*
X-357485000Y416313740D01*
X-357427932Y416026842D01*
X-357315990Y415756589D01*
X-357153475Y415513368D01*
X-356946632Y415306525D01*
X-356764466Y415184805D01*
X-356881355Y415115178D01*
X-357097588Y414920269D01*
X-357271641Y414686920D01*
X-357396825Y414424099D01*
X-357441476Y414276890D01*
X-357320155Y414047000D01*
X-356127000Y414047000D01*
X-356127000Y414067000D01*
X-355873000Y414067000D01*
X-355873000Y414047000D01*
X-355853000Y414047000D01*
X-355853000Y413793000D01*
X-355873000Y413793000D01*
X-355873000Y412599186D01*
X-355643109Y412478519D01*
X-355368748Y412575843D01*
X-355135000Y412715080D01*
X-355134999Y405470133D01*
X-356117059Y404488072D01*
X-356850000Y404488072D01*
X-356974482Y404475812D01*
X-357094180Y404439502D01*
X-357204494Y404380537D01*
X-357301185Y404301185D01*
X-357380537Y404204494D01*
X-357439502Y404094180D01*
X-357475812Y403974482D01*
X-357488072Y403850000D01*
X-357488072Y402150000D01*
X-357475812Y402025518D01*
X-357439502Y401905820D01*
X-357380537Y401795506D01*
X-357301185Y401698815D01*
X-357204494Y401619463D01*
X-357094180Y401560498D01*
X-357021620Y401538487D01*
X-357153475Y401406632D01*
X-357315990Y401163411D01*
X-357427932Y400893158D01*
X-357485000Y400606260D01*
X-357485000Y400313740D01*
X-357427932Y400026842D01*
X-357315990Y399756589D01*
X-357153475Y399513368D01*
X-356946632Y399306525D01*
X-356772240Y399190000D01*
X-356946632Y399073475D01*
X-357153475Y398866632D01*
X-357315990Y398623411D01*
X-357427932Y398353158D01*
X-357485000Y398066260D01*
X-357485000Y397773740D01*
X-357427932Y397486842D01*
X-357315990Y397216589D01*
X-357153475Y396973368D01*
X-356946632Y396766525D01*
X-356764466Y396644805D01*
X-356881355Y396575178D01*
X-357097588Y396380269D01*
X-357271641Y396146920D01*
X-357396825Y395884099D01*
X-357441476Y395736890D01*
X-357320155Y395507000D01*
X-356127000Y395507000D01*
X-356127000Y395527000D01*
X-355873000Y395527000D01*
X-355873000Y395507000D01*
X-354679845Y395507000D01*
X-354558524Y395736890D01*
X-354603175Y395884099D01*
X-354728359Y396146920D01*
X-354902412Y396380269D01*
X-355118645Y396575178D01*
X-355235534Y396644805D01*
X-355053368Y396766525D01*
X-354846525Y396973368D01*
X-354684010Y397216589D01*
X-354572068Y397486842D01*
X-354542598Y397634999D01*
X-351287071Y397634999D01*
X-351357571Y397486004D01*
X-351426300Y397211816D01*
X-351440217Y396929488D01*
X-351398787Y396649870D01*
X-351303603Y396383708D01*
X-351236671Y396258486D01*
X-350992702Y396186903D01*
X-350179605Y397000000D01*
X-350193748Y397014143D01*
X-350014143Y397193748D01*
X-350000000Y397179605D01*
X-349985858Y397193748D01*
X-349806253Y397014143D01*
X-349820395Y397000000D01*
X-349806253Y396985858D01*
X-349985858Y396806253D01*
X-350000000Y396820395D01*
X-350813097Y396007298D01*
X-350741514Y395763329D01*
X-350486004Y395642429D01*
X-350211816Y395573700D01*
X-349929488Y395559783D01*
X-349649870Y395601213D01*
X-349383708Y395696397D01*
X-349261691Y395761616D01*
X-349251185Y395748815D01*
X-349154494Y395669463D01*
X-349044180Y395610498D01*
X-348924482Y395574188D01*
X-348800000Y395561928D01*
X-347200000Y395561928D01*
X-347075518Y395574188D01*
X-346955820Y395610498D01*
X-346845506Y395669463D01*
X-346748815Y395748815D01*
X-346669463Y395845506D01*
X-346610498Y395955820D01*
X-346574188Y396075518D01*
X-346561928Y396200000D01*
X-346561928Y397634999D01*
X-341390123Y397634999D01*
X-341657949Y397553755D01*
X-341933735Y397406345D01*
X-342175463Y397207963D01*
X-342373845Y396966235D01*
X-342521255Y396690449D01*
X-342612030Y396391204D01*
X-342642681Y396080000D01*
X-342612030Y395768796D01*
X-342521255Y395469551D01*
X-342373845Y395193765D01*
X-342175463Y394952037D01*
X-341996101Y394804837D01*
X-342181315Y394649437D01*
X-342375969Y394406923D01*
X-342519571Y394131094D01*
X-342590563Y393912980D01*
X-342470594Y393667000D01*
X-341127000Y393667000D01*
X-341127000Y393687000D01*
X-340873000Y393687000D01*
X-340873000Y393667000D01*
X-339529406Y393667000D01*
X-339409437Y393912980D01*
X-339480429Y394131094D01*
X-339624031Y394406923D01*
X-339818685Y394649437D01*
X-340003899Y394804837D01*
X-339824537Y394952037D01*
X-339626155Y395193765D01*
X-339478745Y395469551D01*
X-339387970Y395768796D01*
X-339357319Y396080000D01*
X-339387970Y396391204D01*
X-339478745Y396690449D01*
X-339626155Y396966235D01*
X-339824537Y397207963D01*
X-340066265Y397406345D01*
X-340342051Y397553755D01*
X-340609877Y397634999D01*
X-339240130Y397634999D01*
X-336135000Y394529867D01*
X-336134999Y389055761D01*
X-336140491Y389000000D01*
X-336118577Y388777502D01*
X-336053676Y388563554D01*
X-336004616Y388471770D01*
X-335948283Y388366377D01*
X-335806448Y388193551D01*
X-335763142Y388158011D01*
X-332841987Y385236854D01*
X-332806449Y385193551D01*
X-332763146Y385158013D01*
X-332763144Y385158011D01*
X-332633623Y385051716D01*
X-332436447Y384946324D01*
X-332222499Y384881423D01*
X-332000000Y384859509D01*
X-331944248Y384865000D01*
X-326055751Y384865000D01*
X-326000000Y384859509D01*
X-325944249Y384865000D01*
X-325944248Y384865000D01*
X-325777501Y384881423D01*
X-325563553Y384946324D01*
X-325366377Y385051716D01*
X-325193551Y385193551D01*
X-325158005Y385236864D01*
X-324156854Y386238013D01*
X-324113551Y386273551D01*
X-323971716Y386446377D01*
X-323866324Y386643553D01*
X-323801423Y386857501D01*
X-323785000Y387024248D01*
X-323785000Y387024249D01*
X-323779509Y387080000D01*
X-323785000Y387135752D01*
X-323785000Y388115716D01*
X-323650000Y388317759D01*
X-323494637Y388085241D01*
X-323294759Y387885363D01*
X-323059727Y387728320D01*
X-322798574Y387620147D01*
X-322521335Y387565000D01*
X-322238665Y387565000D01*
X-321961426Y387620147D01*
X-321700273Y387728320D01*
X-321465241Y387885363D01*
X-321265363Y388085241D01*
X-321110000Y388317759D01*
X-320954637Y388085241D01*
X-320754759Y387885363D01*
X-320519727Y387728320D01*
X-320258574Y387620147D01*
X-319981335Y387565000D01*
X-319698665Y387565000D01*
X-319421426Y387620147D01*
X-319160273Y387728320D01*
X-318925241Y387885363D01*
X-318725363Y388085241D01*
X-318570000Y388317759D01*
X-318414637Y388085241D01*
X-318214759Y387885363D01*
X-317979727Y387728320D01*
X-317718574Y387620147D01*
X-317441335Y387565000D01*
X-317158665Y387565000D01*
X-316881426Y387620147D01*
X-316620273Y387728320D01*
X-316385241Y387885363D01*
X-316185363Y388085241D01*
X-316028320Y388320273D01*
X-316023933Y388330865D01*
X-315912385Y388144869D01*
X-315723414Y387936481D01*
X-315497420Y387768963D01*
X-315243087Y387648754D01*
X-315109039Y387608096D01*
X-314887000Y387730085D01*
X-314887000Y388873000D01*
X-314633000Y388873000D01*
X-314633000Y387730085D01*
X-314410961Y387608096D01*
X-314276913Y387648754D01*
X-314022580Y387768963D01*
X-313796586Y387936481D01*
X-313607615Y388144869D01*
X-313462930Y388386119D01*
X-313368091Y388650960D01*
X-313489376Y388873000D01*
X-314633000Y388873000D01*
X-314887000Y388873000D01*
X-314907000Y388873000D01*
X-314907000Y389127000D01*
X-314887000Y389127000D01*
X-314887000Y390269915D01*
X-314633000Y390269915D01*
X-314633000Y389127000D01*
X-313489376Y389127000D01*
X-313368091Y389349040D01*
X-313462930Y389613881D01*
X-313607615Y389855131D01*
X-313796586Y390063519D01*
X-314022580Y390231037D01*
X-314276913Y390351246D01*
X-314410961Y390391904D01*
X-314633000Y390269915D01*
X-314887000Y390269915D01*
X-315109039Y390391904D01*
X-315243087Y390351246D01*
X-315497420Y390231037D01*
X-315723414Y390063519D01*
X-315912385Y389855131D01*
X-316023933Y389669135D01*
X-316028320Y389679727D01*
X-316185363Y389914759D01*
X-316385241Y390114637D01*
X-316620273Y390271680D01*
X-316881426Y390379853D01*
X-317158665Y390435000D01*
X-317441335Y390435000D01*
X-317718574Y390379853D01*
X-317979727Y390271680D01*
X-318214759Y390114637D01*
X-318414637Y389914759D01*
X-318570000Y389682241D01*
X-318725363Y389914759D01*
X-318925241Y390114637D01*
X-319160273Y390271680D01*
X-319421426Y390379853D01*
X-319698665Y390435000D01*
X-319981335Y390435000D01*
X-320258574Y390379853D01*
X-320519727Y390271680D01*
X-320754759Y390114637D01*
X-320954637Y389914759D01*
X-321110000Y389682241D01*
X-321245000Y389884284D01*
X-321245000Y390149868D01*
X-320529868Y390865000D01*
X-311055751Y390865000D01*
X-311000000Y390859509D01*
X-310944249Y390865000D01*
X-310944248Y390865000D01*
X-310777501Y390881423D01*
X-310563553Y390946324D01*
X-310366377Y391051716D01*
X-310193551Y391193551D01*
X-310158004Y391236865D01*
X-310105753Y391289116D01*
X-305481279Y391289116D01*
X-305288230Y390942019D01*
X-304861024Y390720486D01*
X-304398808Y390586555D01*
X-303919345Y390545370D01*
X-303441059Y390598516D01*
X-302982332Y390743950D01*
X-302611770Y390942019D01*
X-302418721Y391289116D01*
X-303950000Y392820395D01*
X-305481279Y391289116D01*
X-310105753Y391289116D01*
X-308425524Y392969345D01*
X-306404630Y392969345D01*
X-306351484Y392491059D01*
X-306206050Y392032332D01*
X-306007981Y391661770D01*
X-305660884Y391468721D01*
X-304129605Y393000000D01*
X-303770395Y393000000D01*
X-302239116Y391468721D01*
X-301892019Y391661770D01*
X-301670486Y392088976D01*
X-301536555Y392551192D01*
X-301495370Y393030655D01*
X-301548516Y393508941D01*
X-301693950Y393967668D01*
X-301892019Y394338230D01*
X-302239116Y394531279D01*
X-303770395Y393000000D01*
X-304129605Y393000000D01*
X-305660884Y394531279D01*
X-306007981Y394338230D01*
X-306229514Y393911024D01*
X-306363445Y393448808D01*
X-306404630Y392969345D01*
X-308425524Y392969345D01*
X-308236859Y393158009D01*
X-308193551Y393193551D01*
X-308051716Y393366377D01*
X-307946324Y393563553D01*
X-307881423Y393777501D01*
X-307865000Y393944248D01*
X-307865000Y393944249D01*
X-307859509Y393999999D01*
X-307865000Y394055751D01*
X-307865000Y394710884D01*
X-305481279Y394710884D01*
X-303950000Y393179605D01*
X-302418721Y394710884D01*
X-302611770Y395057981D01*
X-303038976Y395279514D01*
X-303501192Y395413445D01*
X-303980655Y395454630D01*
X-304458941Y395401484D01*
X-304917668Y395256050D01*
X-305288230Y395057981D01*
X-305481279Y394710884D01*
X-307865000Y394710884D01*
X-307865000Y398259868D01*
X-306841991Y397236859D01*
X-306806449Y397193551D01*
X-306741795Y397140491D01*
X-306633623Y397051716D01*
X-306436447Y396946324D01*
X-306222499Y396881423D01*
X-306000000Y396859509D01*
X-305944248Y396865000D01*
X-305488755Y396865000D01*
X-305433594Y396782446D01*
X-305167554Y396516406D01*
X-304854724Y396307380D01*
X-304507127Y396163400D01*
X-304138119Y396090000D01*
X-303761881Y396090000D01*
X-303392873Y396163400D01*
X-303089370Y396289116D01*
X-300981279Y396289116D01*
X-300788230Y395942019D01*
X-300361024Y395720486D01*
X-299898808Y395586555D01*
X-299419345Y395545370D01*
X-298941059Y395598516D01*
X-298482332Y395743950D01*
X-298111770Y395942019D01*
X-297918721Y396289116D01*
X-299450000Y397820395D01*
X-300981279Y396289116D01*
X-303089370Y396289116D01*
X-303045276Y396307380D01*
X-302732446Y396516406D01*
X-302466406Y396782446D01*
X-302257380Y397095276D01*
X-302113400Y397442873D01*
X-302040000Y397811881D01*
X-302040000Y397969345D01*
X-301904630Y397969345D01*
X-301851484Y397491059D01*
X-301706050Y397032332D01*
X-301507981Y396661770D01*
X-301160884Y396468721D01*
X-299629605Y398000000D01*
X-299270395Y398000000D01*
X-297739116Y396468721D01*
X-297392019Y396661770D01*
X-297170486Y397088976D01*
X-297036555Y397551192D01*
X-296995370Y398030655D01*
X-297048516Y398508941D01*
X-297193950Y398967668D01*
X-297392019Y399338230D01*
X-297739116Y399531279D01*
X-299270395Y398000000D01*
X-299629605Y398000000D01*
X-301160884Y399531279D01*
X-301507981Y399338230D01*
X-301729514Y398911024D01*
X-301863445Y398448808D01*
X-301904630Y397969345D01*
X-302040000Y397969345D01*
X-302040000Y398188119D01*
X-302113400Y398557127D01*
X-302257380Y398904724D01*
X-302466406Y399217554D01*
X-302732446Y399483594D01*
X-303045276Y399692620D01*
X-303089369Y399710884D01*
X-300981279Y399710884D01*
X-299450000Y398179605D01*
X-297918721Y399710884D01*
X-298111770Y400057981D01*
X-298538976Y400279514D01*
X-299001192Y400413445D01*
X-299480655Y400454630D01*
X-299958941Y400401484D01*
X-300417668Y400256050D01*
X-300788230Y400057981D01*
X-300981279Y399710884D01*
X-303089369Y399710884D01*
X-303392873Y399836600D01*
X-303761881Y399910000D01*
X-304138119Y399910000D01*
X-304507127Y399836600D01*
X-304854724Y399692620D01*
X-305167554Y399483594D01*
X-305433594Y399217554D01*
X-305488755Y399135000D01*
X-305529868Y399135000D01*
X-307683984Y401289116D01*
X-305481279Y401289116D01*
X-305288230Y400942019D01*
X-304861024Y400720486D01*
X-304398808Y400586555D01*
X-303919345Y400545370D01*
X-303441059Y400598516D01*
X-302982332Y400743950D01*
X-302611770Y400942019D01*
X-302418721Y401289116D01*
X-303950000Y402820395D01*
X-305481279Y401289116D01*
X-307683984Y401289116D01*
X-309364213Y402969345D01*
X-306404630Y402969345D01*
X-306351484Y402491059D01*
X-306206050Y402032332D01*
X-306007981Y401661770D01*
X-305660884Y401468721D01*
X-304129605Y403000000D01*
X-303770395Y403000000D01*
X-302239116Y401468721D01*
X-301892019Y401661770D01*
X-301670486Y402088976D01*
X-301536555Y402551192D01*
X-301495370Y403030655D01*
X-301548516Y403508941D01*
X-301693950Y403967668D01*
X-301892019Y404338230D01*
X-302239116Y404531279D01*
X-303770395Y403000000D01*
X-304129605Y403000000D01*
X-305660884Y404531279D01*
X-306007981Y404338230D01*
X-306229514Y403911024D01*
X-306363445Y403448808D01*
X-306404630Y402969345D01*
X-309364213Y402969345D01*
X-309865000Y403470131D01*
X-309865000Y404710884D01*
X-305481279Y404710884D01*
X-303950000Y403179605D01*
X-302418721Y404710884D01*
X-302611770Y405057981D01*
X-303038976Y405279514D01*
X-303501192Y405413445D01*
X-303980655Y405454630D01*
X-304458941Y405401484D01*
X-304917668Y405256050D01*
X-305288230Y405057981D01*
X-305481279Y404710884D01*
X-309865000Y404710884D01*
X-309865000Y406115716D01*
X-309728320Y406320273D01*
X-309620147Y406581426D01*
X-309565000Y406858665D01*
X-309565000Y407141335D01*
X-309620147Y407418574D01*
X-309728320Y407679727D01*
X-309885363Y407914759D01*
X-310085241Y408114637D01*
X-310320273Y408271680D01*
X-310581426Y408379853D01*
X-310822718Y408427850D01*
X-312158004Y409763135D01*
X-312193551Y409806449D01*
X-312366377Y409948284D01*
X-312563553Y410053676D01*
X-312777501Y410118577D01*
X-312944248Y410135000D01*
X-312944249Y410135000D01*
X-313000000Y410140491D01*
X-313055751Y410135000D01*
X-323944248Y410135000D01*
X-324000000Y410140491D01*
X-324222499Y410118577D01*
X-324436447Y410053676D01*
X-324633623Y409948284D01*
X-324763144Y409841989D01*
X-324763145Y409841988D01*
X-324806449Y409806449D01*
X-324841987Y409763145D01*
X-325763141Y408841991D01*
X-325806448Y408806449D01*
X-325948283Y408633623D01*
X-325985735Y408563554D01*
X-326053676Y408436446D01*
X-326118577Y408222498D01*
X-326140491Y408000000D01*
X-326134999Y407944239D01*
X-326135000Y403055752D01*
X-326140491Y403000000D01*
X-326135000Y402944249D01*
X-326118577Y402777502D01*
X-326053676Y402563554D01*
X-325948284Y402366377D01*
X-325806449Y402193551D01*
X-325763136Y402158005D01*
X-324841987Y401236855D01*
X-324806449Y401193551D01*
X-324763146Y401158013D01*
X-324763144Y401158011D01*
X-324633623Y401051716D01*
X-324436447Y400946324D01*
X-324222499Y400881423D01*
X-324000000Y400859509D01*
X-323944248Y400865000D01*
X-323391689Y400865000D01*
X-323328284Y400746377D01*
X-323186449Y400573551D01*
X-323143136Y400538005D01*
X-321841987Y399236854D01*
X-321806449Y399193551D01*
X-321763146Y399158013D01*
X-321763144Y399158011D01*
X-321633623Y399051716D01*
X-321436447Y398946324D01*
X-321222499Y398881423D01*
X-321000000Y398859509D01*
X-320944248Y398865000D01*
X-312470132Y398865000D01*
X-312134999Y398529867D01*
X-312135000Y395470132D01*
X-312470132Y395135000D01*
X-325944248Y395135000D01*
X-326000000Y395140491D01*
X-326055752Y395135000D01*
X-326222499Y395118577D01*
X-326436447Y395053676D01*
X-326633623Y394948284D01*
X-326806449Y394806449D01*
X-326841989Y394763143D01*
X-328223140Y393381991D01*
X-328266448Y393346449D01*
X-328408283Y393173623D01*
X-328411812Y393167020D01*
X-328513676Y392976446D01*
X-328578577Y392762498D01*
X-328600491Y392540000D01*
X-328594999Y392484239D01*
X-328595000Y389993089D01*
X-328610498Y390044180D01*
X-328669463Y390154494D01*
X-328748815Y390251185D01*
X-328845506Y390330537D01*
X-328955820Y390389502D01*
X-329075518Y390425812D01*
X-329200000Y390438072D01*
X-330800000Y390438072D01*
X-330924482Y390425812D01*
X-331044180Y390389502D01*
X-331154494Y390330537D01*
X-331251185Y390251185D01*
X-331330537Y390154494D01*
X-331340957Y390135000D01*
X-331529868Y390135000D01*
X-331865000Y390470132D01*
X-331865000Y395944259D01*
X-331859510Y396000001D01*
X-331865000Y396055743D01*
X-331865000Y396055752D01*
X-331877783Y396185543D01*
X-331099324Y395407084D01*
X-330912753Y395253970D01*
X-330628715Y395102148D01*
X-330320517Y395008657D01*
X-330000000Y394977089D01*
X-329679484Y395008657D01*
X-329371285Y395102148D01*
X-329087248Y395253970D01*
X-328838287Y395458287D01*
X-328633970Y395707248D01*
X-328608197Y395755466D01*
X-328574637Y395705241D01*
X-328374759Y395505363D01*
X-328139727Y395348320D01*
X-327878574Y395240147D01*
X-327601335Y395185000D01*
X-327318665Y395185000D01*
X-327041426Y395240147D01*
X-326780273Y395348320D01*
X-326545241Y395505363D01*
X-326345363Y395705241D01*
X-326190000Y395937759D01*
X-326034637Y395705241D01*
X-325834759Y395505363D01*
X-325599727Y395348320D01*
X-325338574Y395240147D01*
X-325061335Y395185000D01*
X-324778665Y395185000D01*
X-324501426Y395240147D01*
X-324240273Y395348320D01*
X-324005241Y395505363D01*
X-323805363Y395705241D01*
X-323650000Y395937759D01*
X-323494637Y395705241D01*
X-323294759Y395505363D01*
X-323059727Y395348320D01*
X-322798574Y395240147D01*
X-322521335Y395185000D01*
X-322238665Y395185000D01*
X-321961426Y395240147D01*
X-321700273Y395348320D01*
X-321465241Y395505363D01*
X-321265363Y395705241D01*
X-321110000Y395937759D01*
X-320954637Y395705241D01*
X-320754759Y395505363D01*
X-320519727Y395348320D01*
X-320258574Y395240147D01*
X-319981335Y395185000D01*
X-319698665Y395185000D01*
X-319421426Y395240147D01*
X-319160273Y395348320D01*
X-318925241Y395505363D01*
X-318725363Y395705241D01*
X-318570000Y395937759D01*
X-318414637Y395705241D01*
X-318214759Y395505363D01*
X-317979727Y395348320D01*
X-317718574Y395240147D01*
X-317441335Y395185000D01*
X-317158665Y395185000D01*
X-316881426Y395240147D01*
X-316620273Y395348320D01*
X-316385241Y395505363D01*
X-316185363Y395705241D01*
X-316030000Y395937759D01*
X-315874637Y395705241D01*
X-315674759Y395505363D01*
X-315439727Y395348320D01*
X-315178574Y395240147D01*
X-314901335Y395185000D01*
X-314618665Y395185000D01*
X-314341426Y395240147D01*
X-314080273Y395348320D01*
X-313845241Y395505363D01*
X-313645363Y395705241D01*
X-313488320Y395940273D01*
X-313380147Y396201426D01*
X-313325000Y396478665D01*
X-313325000Y396761335D01*
X-313380147Y397038574D01*
X-313488320Y397299727D01*
X-313645363Y397534759D01*
X-313845241Y397734637D01*
X-314080273Y397891680D01*
X-314341426Y397999853D01*
X-314618665Y398055000D01*
X-314901335Y398055000D01*
X-315178574Y397999853D01*
X-315439727Y397891680D01*
X-315674759Y397734637D01*
X-315874637Y397534759D01*
X-316030000Y397302241D01*
X-316185363Y397534759D01*
X-316385241Y397734637D01*
X-316620273Y397891680D01*
X-316881426Y397999853D01*
X-317158665Y398055000D01*
X-317441335Y398055000D01*
X-317718574Y397999853D01*
X-317979727Y397891680D01*
X-318214759Y397734637D01*
X-318414637Y397534759D01*
X-318570000Y397302241D01*
X-318725363Y397534759D01*
X-318925241Y397734637D01*
X-319160273Y397891680D01*
X-319421426Y397999853D01*
X-319698665Y398055000D01*
X-319981335Y398055000D01*
X-320258574Y397999853D01*
X-320519727Y397891680D01*
X-320754759Y397734637D01*
X-320954637Y397534759D01*
X-321110000Y397302241D01*
X-321265363Y397534759D01*
X-321465241Y397734637D01*
X-321700273Y397891680D01*
X-321961426Y397999853D01*
X-322238665Y398055000D01*
X-322521335Y398055000D01*
X-322798574Y397999853D01*
X-323059727Y397891680D01*
X-323294759Y397734637D01*
X-323494637Y397534759D01*
X-323650000Y397302241D01*
X-323805363Y397534759D01*
X-324005241Y397734637D01*
X-324240273Y397891680D01*
X-324501426Y397999853D01*
X-324778665Y398055000D01*
X-325061335Y398055000D01*
X-325338574Y397999853D01*
X-325599727Y397891680D01*
X-325834759Y397734637D01*
X-326034637Y397534759D01*
X-326190000Y397302241D01*
X-326345363Y397534759D01*
X-326545241Y397734637D01*
X-326780273Y397891680D01*
X-327041426Y397999853D01*
X-327318665Y398055000D01*
X-327601335Y398055000D01*
X-327878574Y397999853D01*
X-328139727Y397891680D01*
X-328374759Y397734637D01*
X-328574637Y397534759D01*
X-328608196Y397484534D01*
X-328633970Y397532753D01*
X-328787084Y397719324D01*
X-333209096Y402141335D01*
X-331435000Y402141335D01*
X-331435000Y401858665D01*
X-331379853Y401581426D01*
X-331271680Y401320273D01*
X-331114637Y401085241D01*
X-330914759Y400885363D01*
X-330679727Y400728320D01*
X-330418574Y400620147D01*
X-330141335Y400565000D01*
X-329858665Y400565000D01*
X-329581426Y400620147D01*
X-329320273Y400728320D01*
X-329085241Y400885363D01*
X-328885363Y401085241D01*
X-328728320Y401320273D01*
X-328620147Y401581426D01*
X-328565000Y401858665D01*
X-328565000Y402141335D01*
X-328620147Y402418574D01*
X-328728320Y402679727D01*
X-328885363Y402914759D01*
X-329085241Y403114637D01*
X-329320273Y403271680D01*
X-329581426Y403379853D01*
X-329858665Y403435000D01*
X-330141335Y403435000D01*
X-330418574Y403379853D01*
X-330679727Y403271680D01*
X-330914759Y403114637D01*
X-331114637Y402914759D01*
X-331271680Y402679727D01*
X-331379853Y402418574D01*
X-331435000Y402141335D01*
X-333209096Y402141335D01*
X-337167075Y406099313D01*
X-337218286Y406161714D01*
X-337467248Y406366031D01*
X-337751285Y406517852D01*
X-338059484Y406611343D01*
X-338299678Y406635000D01*
X-338299681Y406635000D01*
X-338380000Y406642911D01*
X-338460319Y406635000D01*
X-346080322Y406635000D01*
X-346320516Y406611343D01*
X-346628715Y406517852D01*
X-346912752Y406366031D01*
X-347161714Y406161714D01*
X-347366031Y405912752D01*
X-347517852Y405628715D01*
X-347611343Y405320516D01*
X-347642911Y405000000D01*
X-347611343Y404679484D01*
X-347517852Y404371285D01*
X-347366031Y404087248D01*
X-347161714Y403838286D01*
X-346912752Y403633969D01*
X-346628715Y403482148D01*
X-346320516Y403388657D01*
X-346080322Y403365000D01*
X-339057238Y403365000D01*
X-337274455Y401582217D01*
X-337404248Y401595000D01*
X-337404249Y401595000D01*
X-337460000Y401600491D01*
X-337515751Y401595000D01*
X-354841272Y401595000D01*
X-354795506Y401619463D01*
X-354698815Y401698815D01*
X-354619463Y401795506D01*
X-354560498Y401905820D01*
X-354524188Y402025518D01*
X-354511928Y402150000D01*
X-354511928Y402882941D01*
X-353387571Y404007298D01*
X-351813097Y404007298D01*
X-351741514Y403763329D01*
X-351486004Y403642429D01*
X-351211816Y403573700D01*
X-350929488Y403559783D01*
X-350649870Y403601213D01*
X-350383708Y403696397D01*
X-350258486Y403763329D01*
X-350186903Y404007298D01*
X-351000000Y404820395D01*
X-351813097Y404007298D01*
X-353387571Y404007298D01*
X-353236859Y404158009D01*
X-353193551Y404193551D01*
X-353051716Y404366377D01*
X-352946324Y404563553D01*
X-352881423Y404777501D01*
X-352866454Y404929488D01*
X-352440217Y404929488D01*
X-352398787Y404649870D01*
X-352303603Y404383708D01*
X-352236671Y404258486D01*
X-351992702Y404186903D01*
X-351179605Y405000000D01*
X-350820395Y405000000D01*
X-350007298Y404186903D01*
X-349763329Y404258486D01*
X-349642429Y404513996D01*
X-349573700Y404788184D01*
X-349559783Y405070512D01*
X-349601213Y405350130D01*
X-349696397Y405616292D01*
X-349763329Y405741514D01*
X-350007298Y405813097D01*
X-350820395Y405000000D01*
X-351179605Y405000000D01*
X-351992702Y405813097D01*
X-352236671Y405741514D01*
X-352357571Y405486004D01*
X-352426300Y405211816D01*
X-352440217Y404929488D01*
X-352866454Y404929488D01*
X-352865000Y404944248D01*
X-352859509Y404999999D01*
X-352865000Y405055751D01*
X-352865000Y405992702D01*
X-351813097Y405992702D01*
X-351000000Y405179605D01*
X-350186903Y405992702D01*
X-350258486Y406236671D01*
X-350513996Y406357571D01*
X-350788184Y406426300D01*
X-351070512Y406440217D01*
X-351350130Y406398787D01*
X-351616292Y406303603D01*
X-351741514Y406236671D01*
X-351813097Y405992702D01*
X-352865000Y405992702D01*
X-352865000Y407141335D01*
X-331435000Y407141335D01*
X-331435000Y406858665D01*
X-331379853Y406581426D01*
X-331271680Y406320273D01*
X-331114637Y406085241D01*
X-330914759Y405885363D01*
X-330679727Y405728320D01*
X-330418574Y405620147D01*
X-330141335Y405565000D01*
X-329858665Y405565000D01*
X-329581426Y405620147D01*
X-329320273Y405728320D01*
X-329085241Y405885363D01*
X-328885363Y406085241D01*
X-328728320Y406320273D01*
X-328620147Y406581426D01*
X-328565000Y406858665D01*
X-328565000Y407141335D01*
X-328620147Y407418574D01*
X-328728320Y407679727D01*
X-328885363Y407914759D01*
X-329085241Y408114637D01*
X-329320273Y408271680D01*
X-329581426Y408379853D01*
X-329858665Y408435000D01*
X-330141335Y408435000D01*
X-330418574Y408379853D01*
X-330679727Y408271680D01*
X-330914759Y408114637D01*
X-331114637Y407914759D01*
X-331271680Y407679727D01*
X-331379853Y407418574D01*
X-331435000Y407141335D01*
X-352865000Y407141335D01*
X-352865000Y415944259D01*
X-352859510Y416000001D01*
X-352865000Y416055743D01*
X-352865000Y416055752D01*
X-352881423Y416222499D01*
X-352946324Y416436447D01*
X-353051716Y416633623D01*
X-353193551Y416806449D01*
X-353236865Y416841996D01*
X-353618004Y417223135D01*
X-353653551Y417266449D01*
X-353826377Y417408284D01*
X-354023553Y417513676D01*
X-354237501Y417578577D01*
X-354404248Y417595000D01*
X-354404249Y417595000D01*
X-354460000Y417600491D01*
X-354515751Y417595000D01*
X-354841272Y417595000D01*
X-354795506Y417619463D01*
X-354757126Y417650961D01*
X-352011904Y417650961D01*
X-351971246Y417516913D01*
X-351851037Y417262580D01*
X-351683519Y417036586D01*
X-351475131Y416847615D01*
X-351233881Y416702930D01*
X-350969040Y416608091D01*
X-350747000Y416729376D01*
X-350747000Y417873000D01*
X-350493000Y417873000D01*
X-350493000Y416729376D01*
X-350270960Y416608091D01*
X-350006119Y416702930D01*
X-349764869Y416847615D01*
X-349556481Y417036586D01*
X-349388963Y417262580D01*
X-349268754Y417516913D01*
X-349228096Y417650961D01*
X-349350085Y417873000D01*
X-350493000Y417873000D01*
X-350747000Y417873000D01*
X-351889915Y417873000D01*
X-352011904Y417650961D01*
X-354757126Y417650961D01*
X-354698815Y417698815D01*
X-354619463Y417795506D01*
X-354560498Y417905820D01*
X-354524188Y418025518D01*
X-354511928Y418150000D01*
X-354511928Y418349039D01*
X-352011904Y418349039D01*
X-351889915Y418127000D01*
X-350747000Y418127000D01*
X-350747000Y419270624D01*
X-350493000Y419270624D01*
X-350493000Y418127000D01*
X-349350085Y418127000D01*
X-349228096Y418349039D01*
X-349268754Y418483087D01*
X-349388963Y418737420D01*
X-349556481Y418963414D01*
X-349764869Y419152385D01*
X-350006119Y419297070D01*
X-350270960Y419391909D01*
X-350493000Y419270624D01*
X-350747000Y419270624D01*
X-350969040Y419391909D01*
X-351233881Y419297070D01*
X-351475131Y419152385D01*
X-351683519Y418963414D01*
X-351851037Y418737420D01*
X-351971246Y418483087D01*
X-352011904Y418349039D01*
X-354511928Y418349039D01*
X-354511928Y418882941D01*
X-353449868Y419945000D01*
X-346135751Y419945000D01*
X-346080000Y419939509D01*
X-346024249Y419945000D01*
X-346024248Y419945000D01*
X-345857501Y419961423D01*
X-345643553Y420026324D01*
X-345446377Y420131716D01*
X-345273551Y420273551D01*
X-345238004Y420316865D01*
X-343689868Y421865000D01*
X-342487079Y421865000D01*
X-342360236Y421812460D01*
X-342121637Y421765000D01*
X-341878363Y421765000D01*
X-341639764Y421812460D01*
X-341415008Y421905557D01*
X-341212733Y422040713D01*
X-341157499Y422095947D01*
X-341130537Y422045506D01*
X-341051185Y421948815D01*
X-340954494Y421869463D01*
X-340844180Y421810498D01*
X-340724482Y421774188D01*
X-340600000Y421761928D01*
X-339400000Y421761928D01*
X-339275518Y421774188D01*
X-339155820Y421810498D01*
X-339053856Y421865000D01*
X-338470131Y421865000D01*
X-336275540Y419670408D01*
X-336379853Y419418574D01*
X-336435000Y419141335D01*
X-336435000Y418858665D01*
X-336379853Y418581426D01*
X-336271680Y418320273D01*
X-336114637Y418085241D01*
X-335914759Y417885363D01*
X-335679727Y417728320D01*
X-335418574Y417620147D01*
X-335141335Y417565000D01*
X-334858665Y417565000D01*
X-334581426Y417620147D01*
X-334320273Y417728320D01*
X-334115716Y417865000D01*
X-331470131Y417865000D01*
X-330381992Y416776860D01*
X-330346449Y416733551D01*
X-330224685Y416633622D01*
X-330173623Y416591716D01*
X-329976447Y416486324D01*
X-329762499Y416421423D01*
X-329540000Y416399509D01*
X-329484248Y416405000D01*
X-328504284Y416405000D01*
X-328302241Y416270000D01*
X-328534759Y416114637D01*
X-328734637Y415914759D01*
X-328891680Y415679727D01*
X-328999853Y415418574D01*
X-329047850Y415177282D01*
X-329090132Y415135000D01*
X-334115716Y415135000D01*
X-334320273Y415271680D01*
X-334581426Y415379853D01*
X-334858665Y415435000D01*
X-335141335Y415435000D01*
X-335418574Y415379853D01*
X-335679727Y415271680D01*
X-335884284Y415135000D01*
X-337944249Y415135000D01*
X-338000001Y415140491D01*
X-338222500Y415118577D01*
X-338272295Y415103471D01*
X-338436447Y415053676D01*
X-338633623Y414948284D01*
X-338806449Y414806449D01*
X-338841989Y414763143D01*
X-340167059Y413438072D01*
X-340800000Y413438072D01*
X-340924482Y413425812D01*
X-341044180Y413389502D01*
X-341154494Y413330537D01*
X-341251185Y413251185D01*
X-341264790Y413234607D01*
X-341320273Y413271680D01*
X-341581426Y413379853D01*
X-341822718Y413427850D01*
X-341865000Y413470132D01*
X-341865000Y417115716D01*
X-341728320Y417320273D01*
X-341620147Y417581426D01*
X-341565000Y417858665D01*
X-341565000Y418141335D01*
X-341620147Y418418574D01*
X-341728320Y418679727D01*
X-341885363Y418914759D01*
X-342085241Y419114637D01*
X-342320273Y419271680D01*
X-342581426Y419379853D01*
X-342858665Y419435000D01*
X-343141335Y419435000D01*
X-343418574Y419379853D01*
X-343679727Y419271680D01*
X-343914759Y419114637D01*
X-344114637Y418914759D01*
X-344271680Y418679727D01*
X-344379853Y418418574D01*
X-344435000Y418141335D01*
X-344435000Y417858665D01*
X-344379853Y417581426D01*
X-344271680Y417320273D01*
X-344135000Y417115716D01*
X-344134999Y413055761D01*
X-344140491Y413000000D01*
X-344118577Y412777502D01*
X-344053676Y412563554D01*
X-344053675Y412563553D01*
X-343948283Y412366377D01*
X-343806448Y412193551D01*
X-343763141Y412158009D01*
X-343427850Y411822718D01*
X-343379853Y411581426D01*
X-343271680Y411320273D01*
X-343114637Y411085241D01*
X-342914759Y410885363D01*
X-342679727Y410728320D01*
X-342418574Y410620147D01*
X-342141335Y410565000D01*
X-341858665Y410565000D01*
X-341581426Y410620147D01*
X-341320273Y410728320D01*
X-341264790Y410765393D01*
X-341251185Y410748815D01*
X-341154494Y410669463D01*
X-341044180Y410610498D01*
X-340924482Y410574188D01*
X-340800000Y410561928D01*
X-339200000Y410561928D01*
X-339075518Y410574188D01*
X-338955820Y410610498D01*
X-338845506Y410669463D01*
X-338748815Y410748815D01*
X-338669463Y410845506D01*
X-338610498Y410955820D01*
X-338574188Y411075518D01*
X-338561928Y411200000D01*
X-338561928Y411832941D01*
X-337529868Y412865000D01*
X-335884284Y412865000D01*
X-335679727Y412728320D01*
X-335418574Y412620147D01*
X-335141335Y412565000D01*
X-334858665Y412565000D01*
X-334581426Y412620147D01*
X-334320273Y412728320D01*
X-334115716Y412865000D01*
X-328675751Y412865000D01*
X-328620000Y412859509D01*
X-328564249Y412865000D01*
X-328564248Y412865000D01*
X-328397501Y412881423D01*
X-328183553Y412946324D01*
X-327986377Y413051716D01*
X-327813551Y413193551D01*
X-327778005Y413236864D01*
X-327442718Y413572150D01*
X-327201426Y413620147D01*
X-326940273Y413728320D01*
X-326705241Y413885363D01*
X-326505363Y414085241D01*
X-326348320Y414320273D01*
X-326240147Y414581426D01*
X-326185000Y414858665D01*
X-326185000Y415141335D01*
X-326240147Y415418574D01*
X-326348320Y415679727D01*
X-326428683Y415800000D01*
X-321438072Y415800000D01*
X-321438072Y414200000D01*
X-321425812Y414075518D01*
X-321389502Y413955820D01*
X-321330537Y413845506D01*
X-321251185Y413748815D01*
X-321154494Y413669463D01*
X-321044180Y413610498D01*
X-320924482Y413574188D01*
X-320800000Y413561928D01*
X-319200000Y413561928D01*
X-319075518Y413574188D01*
X-318955820Y413610498D01*
X-318845506Y413669463D01*
X-318748815Y413748815D01*
X-318669463Y413845506D01*
X-318659043Y413865000D01*
X-314055751Y413865000D01*
X-314000000Y413859509D01*
X-313944249Y413865000D01*
X-313944248Y413865000D01*
X-313777501Y413881423D01*
X-313563553Y413946324D01*
X-313366377Y414051716D01*
X-313193551Y414193551D01*
X-313158005Y414236864D01*
X-312236855Y415158013D01*
X-312193551Y415193551D01*
X-312051716Y415366377D01*
X-311946324Y415563553D01*
X-311927490Y415625641D01*
X-311845506Y415669463D01*
X-311748815Y415748815D01*
X-311735210Y415765393D01*
X-311679727Y415728320D01*
X-311418574Y415620147D01*
X-311141335Y415565000D01*
X-310858665Y415565000D01*
X-310581426Y415620147D01*
X-310459622Y415670600D01*
X-299267910Y415670600D01*
X-299237238Y415569472D01*
X-299129473Y415336371D01*
X-298978303Y415128773D01*
X-298789537Y414954656D01*
X-298570430Y414820711D01*
X-298329401Y414732085D01*
X-298127000Y414854915D01*
X-298127000Y415873000D01*
X-297873000Y415873000D01*
X-297873000Y414854915D01*
X-297670599Y414732085D01*
X-297429570Y414820711D01*
X-297210463Y414954656D01*
X-297021697Y415128773D01*
X-296870527Y415336371D01*
X-296762762Y415569472D01*
X-296732090Y415670600D01*
X-296855776Y415873000D01*
X-297873000Y415873000D01*
X-298127000Y415873000D01*
X-299144224Y415873000D01*
X-299267910Y415670600D01*
X-310459622Y415670600D01*
X-310320273Y415728320D01*
X-310115716Y415865000D01*
X-306055751Y415865000D01*
X-306000000Y415859509D01*
X-305944249Y415865000D01*
X-305944248Y415865000D01*
X-305777501Y415881423D01*
X-305563553Y415946324D01*
X-305366377Y416051716D01*
X-305193551Y416193551D01*
X-305158005Y416236864D01*
X-304529868Y416865000D01*
X-299115444Y416865000D01*
X-299032441Y416796881D01*
X-299129473Y416663629D01*
X-299237238Y416430528D01*
X-299267910Y416329400D01*
X-299144224Y416127000D01*
X-298127000Y416127000D01*
X-298127000Y416147000D01*
X-297873000Y416147000D01*
X-297873000Y416127000D01*
X-296855776Y416127000D01*
X-296732090Y416329400D01*
X-296762762Y416430528D01*
X-296870527Y416663629D01*
X-296967559Y416796881D01*
X-296873815Y416873815D01*
X-296794463Y416970506D01*
X-296735498Y417080820D01*
X-296699188Y417200518D01*
X-296686928Y417325000D01*
X-296686928Y418675000D01*
X-296699188Y418799482D01*
X-296735498Y418919180D01*
X-296794463Y419029494D01*
X-296873815Y419126185D01*
X-296970506Y419205537D01*
X-297080820Y419264502D01*
X-297200518Y419300812D01*
X-297325000Y419313072D01*
X-298675000Y419313072D01*
X-298799482Y419300812D01*
X-298919180Y419264502D01*
X-299029494Y419205537D01*
X-299115444Y419135000D01*
X-304944248Y419135000D01*
X-305000000Y419140491D01*
X-305222499Y419118577D01*
X-305436447Y419053676D01*
X-305633623Y418948284D01*
X-305763144Y418841989D01*
X-305763146Y418841987D01*
X-305806449Y418806449D01*
X-305841987Y418763145D01*
X-306470132Y418135000D01*
X-310115716Y418135000D01*
X-310320273Y418271680D01*
X-310581426Y418379853D01*
X-310858665Y418435000D01*
X-311141335Y418435000D01*
X-311418574Y418379853D01*
X-311679727Y418271680D01*
X-311735210Y418234607D01*
X-311748815Y418251185D01*
X-311845506Y418330537D01*
X-311955820Y418389502D01*
X-312075518Y418425812D01*
X-312200000Y418438072D01*
X-313800000Y418438072D01*
X-313924482Y418425812D01*
X-314044180Y418389502D01*
X-314154494Y418330537D01*
X-314251185Y418251185D01*
X-314330537Y418154494D01*
X-314389502Y418044180D01*
X-314425812Y417924482D01*
X-314438072Y417800000D01*
X-314438072Y416200000D01*
X-314435119Y416170013D01*
X-314470132Y416135000D01*
X-318659043Y416135000D01*
X-318669463Y416154494D01*
X-318748815Y416251185D01*
X-318845506Y416330537D01*
X-318955820Y416389502D01*
X-319075518Y416425812D01*
X-319083961Y416426643D01*
X-318885363Y416625241D01*
X-318728320Y416860273D01*
X-318620147Y417121426D01*
X-318565000Y417398665D01*
X-318565000Y417681335D01*
X-318620147Y417958574D01*
X-318728320Y418219727D01*
X-318885363Y418454759D01*
X-319085241Y418654637D01*
X-319317759Y418810000D01*
X-319085241Y418965363D01*
X-318885363Y419165241D01*
X-318728320Y419400273D01*
X-318620147Y419661426D01*
X-318565000Y419938665D01*
X-318565000Y420221335D01*
X-318620147Y420498574D01*
X-318728320Y420759727D01*
X-318885363Y420994759D01*
X-319085241Y421194637D01*
X-319320273Y421351680D01*
X-319330865Y421356067D01*
X-319144869Y421467615D01*
X-318936481Y421656586D01*
X-318768963Y421882580D01*
X-318648754Y422136913D01*
X-318608096Y422270961D01*
X-318730085Y422493000D01*
X-319873000Y422493000D01*
X-319873000Y422473000D01*
X-320127000Y422473000D01*
X-320127000Y422493000D01*
X-321269915Y422493000D01*
X-321391904Y422270961D01*
X-321351246Y422136913D01*
X-321231037Y421882580D01*
X-321063519Y421656586D01*
X-320855131Y421467615D01*
X-320669135Y421356067D01*
X-320679727Y421351680D01*
X-320914759Y421194637D01*
X-321114637Y420994759D01*
X-321271680Y420759727D01*
X-321379853Y420498574D01*
X-321435000Y420221335D01*
X-321435000Y419938665D01*
X-321379853Y419661426D01*
X-321271680Y419400273D01*
X-321114637Y419165241D01*
X-320914759Y418965363D01*
X-320682241Y418810000D01*
X-320914759Y418654637D01*
X-321114637Y418454759D01*
X-321271680Y418219727D01*
X-321379853Y417958574D01*
X-321435000Y417681335D01*
X-321435000Y417398665D01*
X-321379853Y417121426D01*
X-321271680Y416860273D01*
X-321114637Y416625241D01*
X-320916039Y416426643D01*
X-320924482Y416425812D01*
X-321044180Y416389502D01*
X-321154494Y416330537D01*
X-321251185Y416251185D01*
X-321330537Y416154494D01*
X-321389502Y416044180D01*
X-321425812Y415924482D01*
X-321438072Y415800000D01*
X-326428683Y415800000D01*
X-326505363Y415914759D01*
X-326705241Y416114637D01*
X-326937759Y416270000D01*
X-326705241Y416425363D01*
X-326505363Y416625241D01*
X-326348320Y416860273D01*
X-326240147Y417121426D01*
X-326185000Y417398665D01*
X-326185000Y417681335D01*
X-326240147Y417958574D01*
X-326348320Y418219727D01*
X-326505363Y418454759D01*
X-326705241Y418654637D01*
X-326937759Y418810000D01*
X-326705241Y418965363D01*
X-326505363Y419165241D01*
X-326348320Y419400273D01*
X-326240147Y419661426D01*
X-326185000Y419938665D01*
X-326185000Y420221335D01*
X-326240147Y420498574D01*
X-326348320Y420759727D01*
X-326505363Y420994759D01*
X-326705241Y421194637D01*
X-326937759Y421350000D01*
X-326705241Y421505363D01*
X-326505363Y421705241D01*
X-326348320Y421940273D01*
X-326240147Y422201426D01*
X-326185000Y422478665D01*
X-326185000Y422761335D01*
X-326226315Y422969039D01*
X-321391904Y422969039D01*
X-321269915Y422747000D01*
X-320127000Y422747000D01*
X-320127000Y423890624D01*
X-319873000Y423890624D01*
X-319873000Y422747000D01*
X-318730085Y422747000D01*
X-318608096Y422969039D01*
X-318648754Y423103087D01*
X-318768963Y423357420D01*
X-318936481Y423583414D01*
X-319144869Y423772385D01*
X-319386119Y423917070D01*
X-319650960Y424011909D01*
X-319873000Y423890624D01*
X-320127000Y423890624D01*
X-320349040Y424011909D01*
X-320613881Y423917070D01*
X-320855131Y423772385D01*
X-321063519Y423583414D01*
X-321231037Y423357420D01*
X-321351246Y423103087D01*
X-321391904Y422969039D01*
X-326226315Y422969039D01*
X-326240147Y423038574D01*
X-326348320Y423299727D01*
X-326505363Y423534759D01*
X-326705241Y423734637D01*
X-326940273Y423891680D01*
X-327201426Y423999853D01*
X-327478665Y424055000D01*
X-327761335Y424055000D01*
X-328038574Y423999853D01*
X-328299727Y423891680D01*
X-328534759Y423734637D01*
X-328734637Y423534759D01*
X-328891680Y423299727D01*
X-328999853Y423038574D01*
X-329055000Y422761335D01*
X-329055000Y422478665D01*
X-328999853Y422201426D01*
X-328891680Y421940273D01*
X-328734637Y421705241D01*
X-328534759Y421505363D01*
X-328302241Y421350000D01*
X-328534759Y421194637D01*
X-328734637Y420994759D01*
X-328891680Y420759727D01*
X-328999853Y420498574D01*
X-329055000Y420221335D01*
X-329055000Y419938665D01*
X-328999853Y419661426D01*
X-328891680Y419400273D01*
X-328734637Y419165241D01*
X-328534759Y418965363D01*
X-328302241Y418810000D01*
X-328504284Y418675000D01*
X-329069868Y418675000D01*
X-330158004Y419763135D01*
X-330193551Y419806449D01*
X-330366377Y419948284D01*
X-330563553Y420053676D01*
X-330777501Y420118577D01*
X-330944248Y420135000D01*
X-330944249Y420135000D01*
X-331000000Y420140491D01*
X-331055751Y420135000D01*
X-333872805Y420135000D01*
X-333881423Y420222499D01*
X-333946324Y420436447D01*
X-334051716Y420633623D01*
X-334158011Y420763144D01*
X-334158013Y420763146D01*
X-334193551Y420806449D01*
X-334236854Y420841987D01*
X-337158004Y423763135D01*
X-337193551Y423806449D01*
X-337366377Y423948284D01*
X-337563553Y424053676D01*
X-337777501Y424118577D01*
X-337944248Y424135000D01*
X-337944249Y424135000D01*
X-338000000Y424140491D01*
X-338055751Y424135000D01*
X-339053856Y424135000D01*
X-339155820Y424189502D01*
X-339275518Y424225812D01*
X-339400000Y424238072D01*
X-340600000Y424238072D01*
X-340724482Y424225812D01*
X-340844180Y424189502D01*
X-340954494Y424130537D01*
X-341051185Y424051185D01*
X-341130537Y423954494D01*
X-341157499Y423904053D01*
X-341212733Y423959287D01*
X-341415008Y424094443D01*
X-341639764Y424187540D01*
X-341878363Y424235000D01*
X-342121637Y424235000D01*
X-342360236Y424187540D01*
X-342487079Y424135000D01*
X-344104249Y424135000D01*
X-344160001Y424140491D01*
X-344215752Y424135000D01*
X-344382499Y424118577D01*
X-344596447Y424053676D01*
X-344793623Y423948284D01*
X-344966449Y423806449D01*
X-345001991Y423763141D01*
X-346550131Y422215000D01*
X-353864257Y422215000D01*
X-353920001Y422220490D01*
X-353975745Y422215000D01*
X-353975752Y422215000D01*
X-354113572Y422201426D01*
X-354142500Y422198577D01*
X-354192295Y422183471D01*
X-354356447Y422133676D01*
X-354553623Y422028284D01*
X-354726449Y421886449D01*
X-354761989Y421843143D01*
X-356117059Y420488072D01*
X-356850000Y420488072D01*
X-356974482Y420475812D01*
X-357094180Y420439502D01*
X-357204494Y420380537D01*
X-357301185Y420301185D01*
X-357380537Y420204494D01*
X-357439502Y420094180D01*
X-357475812Y419974482D01*
X-357488072Y419850000D01*
X-358873000Y419850000D01*
X-358873000Y426220128D01*
X-358235000Y426220128D01*
X-358235000Y425779872D01*
X-358149110Y425348075D01*
X-357980631Y424941331D01*
X-357736038Y424575271D01*
X-357424729Y424263962D01*
X-357058669Y424019369D01*
X-356651925Y423850890D01*
X-356220128Y423765000D01*
X-355779872Y423765000D01*
X-355348075Y423850890D01*
X-354941331Y424019369D01*
X-354575271Y424263962D01*
X-354263962Y424575271D01*
X-354019369Y424941331D01*
X-353850890Y425348075D01*
X-353765000Y425779872D01*
X-353765000Y426220128D01*
X-296235000Y426220128D01*
X-296235000Y425779872D01*
X-296149110Y425348075D01*
X-295980631Y424941331D01*
X-295736038Y424575271D01*
X-295424729Y424263962D01*
X-295058669Y424019369D01*
X-294651925Y423850890D01*
X-294220128Y423765000D01*
X-293779872Y423765000D01*
X-293348075Y423850890D01*
X-292941331Y424019369D01*
X-292575271Y424263962D01*
X-292263962Y424575271D01*
X-292019369Y424941331D01*
X-291850890Y425348075D01*
X-291765000Y425779872D01*
X-291765000Y426220128D01*
X-291850890Y426651925D01*
X-292019369Y427058669D01*
X-292263962Y427424729D01*
X-292575271Y427736038D01*
X-292941331Y427980631D01*
X-293348075Y428149110D01*
X-293779872Y428235000D01*
X-294220128Y428235000D01*
X-294651925Y428149110D01*
X-295058669Y427980631D01*
X-295424729Y427736038D01*
X-295736038Y427424729D01*
X-295980631Y427058669D01*
X-296149110Y426651925D01*
X-296235000Y426220128D01*
X-353765000Y426220128D01*
X-353850890Y426651925D01*
X-354019369Y427058669D01*
X-354263962Y427424729D01*
X-354575271Y427736038D01*
X-354941331Y427980631D01*
X-355348075Y428149110D01*
X-355779872Y428235000D01*
X-356220128Y428235000D01*
X-356651925Y428149110D01*
X-357058669Y427980631D01*
X-357424729Y427736038D01*
X-357736038Y427424729D01*
X-357980631Y427058669D01*
X-358149110Y426651925D01*
X-358235000Y426220128D01*
X-358873000Y426220128D01*
X-358873000Y428873000D01*
X-291127000Y428873000D01*
X-291127000Y381127000D01*
%TA.AperFunction,Conductor*%
D26*
G36*
X-291127000Y381127000D02*
G01*
X-358873000Y381127000D01*
X-358873000Y384220128D01*
X-358235000Y384220128D01*
X-358235000Y383779872D01*
X-358149110Y383348075D01*
X-357980631Y382941331D01*
X-357736038Y382575271D01*
X-357424729Y382263962D01*
X-357058669Y382019369D01*
X-356651925Y381850890D01*
X-356220128Y381765000D01*
X-355779872Y381765000D01*
X-355348075Y381850890D01*
X-354941331Y382019369D01*
X-354575271Y382263962D01*
X-354263962Y382575271D01*
X-354019369Y382941331D01*
X-353850890Y383348075D01*
X-353765000Y383779872D01*
X-353765000Y384220128D01*
X-296235000Y384220128D01*
X-296235000Y383779872D01*
X-296149110Y383348075D01*
X-295980631Y382941331D01*
X-295736038Y382575271D01*
X-295424729Y382263962D01*
X-295058669Y382019369D01*
X-294651925Y381850890D01*
X-294220128Y381765000D01*
X-293779872Y381765000D01*
X-293348075Y381850890D01*
X-292941331Y382019369D01*
X-292575271Y382263962D01*
X-292263962Y382575271D01*
X-292019369Y382941331D01*
X-291850890Y383348075D01*
X-291765000Y383779872D01*
X-291765000Y384220128D01*
X-291850890Y384651925D01*
X-292019369Y385058669D01*
X-292263962Y385424729D01*
X-292575271Y385736038D01*
X-292941331Y385980631D01*
X-293348075Y386149110D01*
X-293779872Y386235000D01*
X-294220128Y386235000D01*
X-294651925Y386149110D01*
X-295058669Y385980631D01*
X-295424729Y385736038D01*
X-295736038Y385424729D01*
X-295980631Y385058669D01*
X-296149110Y384651925D01*
X-296235000Y384220128D01*
X-353765000Y384220128D01*
X-353850890Y384651925D01*
X-354019369Y385058669D01*
X-354263962Y385424729D01*
X-354575271Y385736038D01*
X-354941331Y385980631D01*
X-355348075Y386149110D01*
X-355779872Y386235000D01*
X-356220128Y386235000D01*
X-356651925Y386149110D01*
X-357058669Y385980631D01*
X-357424729Y385736038D01*
X-357736038Y385424729D01*
X-357980631Y385058669D01*
X-358149110Y384651925D01*
X-358235000Y384220128D01*
X-358873000Y384220128D01*
X-358873000Y387929488D01*
X-351440217Y387929488D01*
X-351398787Y387649870D01*
X-351303603Y387383708D01*
X-351236671Y387258486D01*
X-350992702Y387186903D01*
X-350179605Y388000000D01*
X-350992702Y388813097D01*
X-351236671Y388741514D01*
X-351357571Y388486004D01*
X-351426300Y388211816D01*
X-351440217Y387929488D01*
X-358873000Y387929488D01*
X-358873000Y390446260D01*
X-357485000Y390446260D01*
X-357485000Y390153740D01*
X-357427932Y389866842D01*
X-357315990Y389596589D01*
X-357153475Y389353368D01*
X-356946632Y389146525D01*
X-356703411Y388984010D01*
X-356433158Y388872068D01*
X-356146260Y388815000D01*
X-355853740Y388815000D01*
X-355566842Y388872068D01*
X-355296589Y388984010D01*
X-355283581Y388992702D01*
X-350813097Y388992702D01*
X-350000000Y388179605D01*
X-349985858Y388193748D01*
X-349806253Y388014143D01*
X-349820395Y388000000D01*
X-349806253Y387985858D01*
X-349985858Y387806253D01*
X-350000000Y387820395D01*
X-350813097Y387007298D01*
X-350741514Y386763329D01*
X-350486004Y386642429D01*
X-350211816Y386573700D01*
X-349929488Y386559783D01*
X-349649870Y386601213D01*
X-349383708Y386696397D01*
X-349261691Y386761616D01*
X-349251185Y386748815D01*
X-349154494Y386669463D01*
X-349044180Y386610498D01*
X-348924482Y386574188D01*
X-348800000Y386561928D01*
X-347200000Y386561928D01*
X-347075518Y386574188D01*
X-346955820Y386610498D01*
X-346845506Y386669463D01*
X-346748815Y386748815D01*
X-346669463Y386845506D01*
X-346610498Y386955820D01*
X-346574188Y387075518D01*
X-346561928Y387200000D01*
X-346561928Y388800000D01*
X-346574188Y388924482D01*
X-346610498Y389044180D01*
X-346669463Y389154494D01*
X-346748815Y389251185D01*
X-346845506Y389330537D01*
X-346955820Y389389502D01*
X-347075518Y389425812D01*
X-347200000Y389438072D01*
X-348800000Y389438072D01*
X-348924482Y389425812D01*
X-349044180Y389389502D01*
X-349154494Y389330537D01*
X-349251185Y389251185D01*
X-349261807Y389238242D01*
X-349513996Y389357571D01*
X-349788184Y389426300D01*
X-350070512Y389440217D01*
X-350350130Y389398787D01*
X-350616292Y389303603D01*
X-350741514Y389236671D01*
X-350813097Y388992702D01*
X-355283581Y388992702D01*
X-355053368Y389146525D01*
X-354846525Y389353368D01*
X-354684010Y389596589D01*
X-354572068Y389866842D01*
X-354515000Y390153740D01*
X-354515000Y390446260D01*
X-354572068Y390733158D01*
X-354684010Y391003411D01*
X-354846525Y391246632D01*
X-355053368Y391453475D01*
X-355235534Y391575195D01*
X-355118645Y391644822D01*
X-354902412Y391839731D01*
X-354818299Y391952500D01*
X-342638072Y391952500D01*
X-342638072Y390047500D01*
X-342625812Y389923018D01*
X-342589502Y389803320D01*
X-342530537Y389693006D01*
X-342451185Y389596315D01*
X-342354494Y389516963D01*
X-342244180Y389457998D01*
X-342124482Y389421688D01*
X-342000000Y389409428D01*
X-340000000Y389409428D01*
X-339875518Y389421688D01*
X-339755820Y389457998D01*
X-339645506Y389516963D01*
X-339548815Y389596315D01*
X-339469463Y389693006D01*
X-339410498Y389803320D01*
X-339374188Y389923018D01*
X-339361928Y390047500D01*
X-339361928Y391952500D01*
X-339374188Y392076982D01*
X-339410498Y392196680D01*
X-339469463Y392306994D01*
X-339548815Y392403685D01*
X-339645506Y392483037D01*
X-339737219Y392532059D01*
X-339624031Y392673077D01*
X-339480429Y392948906D01*
X-339409437Y393167020D01*
X-339529406Y393413000D01*
X-340873000Y393413000D01*
X-340873000Y393393000D01*
X-341127000Y393393000D01*
X-341127000Y393413000D01*
X-342470594Y393413000D01*
X-342590563Y393167020D01*
X-342519571Y392948906D01*
X-342375969Y392673077D01*
X-342262781Y392532059D01*
X-342354494Y392483037D01*
X-342451185Y392403685D01*
X-342530537Y392306994D01*
X-342589502Y392196680D01*
X-342625812Y392076982D01*
X-342638072Y391952500D01*
X-354818299Y391952500D01*
X-354728359Y392073080D01*
X-354603175Y392335901D01*
X-354558524Y392483110D01*
X-354679845Y392713000D01*
X-355873000Y392713000D01*
X-355873000Y392693000D01*
X-356127000Y392693000D01*
X-356127000Y392713000D01*
X-357320155Y392713000D01*
X-357441476Y392483110D01*
X-357396825Y392335901D01*
X-357271641Y392073080D01*
X-357097588Y391839731D01*
X-356881355Y391644822D01*
X-356764466Y391575195D01*
X-356946632Y391453475D01*
X-357153475Y391246632D01*
X-357315990Y391003411D01*
X-357427932Y390733158D01*
X-357485000Y390446260D01*
X-358873000Y390446260D01*
X-358873000Y395023110D01*
X-357441476Y395023110D01*
X-357396825Y394875901D01*
X-357271641Y394613080D01*
X-357097588Y394379731D01*
X-356881355Y394184822D01*
X-356755745Y394110000D01*
X-356881355Y394035178D01*
X-357097588Y393840269D01*
X-357271641Y393606920D01*
X-357396825Y393344099D01*
X-357441476Y393196890D01*
X-357320155Y392967000D01*
X-356127000Y392967000D01*
X-356127000Y395253000D01*
X-355873000Y395253000D01*
X-355873000Y392967000D01*
X-354679845Y392967000D01*
X-354558524Y393196890D01*
X-354603175Y393344099D01*
X-354728359Y393606920D01*
X-354902412Y393840269D01*
X-355118645Y394035178D01*
X-355244255Y394110000D01*
X-355118645Y394184822D01*
X-354902412Y394379731D01*
X-354728359Y394613080D01*
X-354603175Y394875901D01*
X-354558524Y395023110D01*
X-354679845Y395253000D01*
X-355873000Y395253000D01*
X-356127000Y395253000D01*
X-357320155Y395253000D01*
X-357441476Y395023110D01*
X-358873000Y395023110D01*
X-358873000Y413563110D01*
X-357441476Y413563110D01*
X-357396825Y413415901D01*
X-357271641Y413153080D01*
X-357097588Y412919731D01*
X-356881355Y412724822D01*
X-356631252Y412575843D01*
X-356356891Y412478519D01*
X-356127000Y412599186D01*
X-356127000Y413793000D01*
X-357320155Y413793000D01*
X-357441476Y413563110D01*
X-358873000Y413563110D01*
X-358873000Y419850000D01*
X-357488072Y419850000D01*
X-357488072Y418150000D01*
X-357475812Y418025518D01*
X-357439502Y417905820D01*
X-357380537Y417795506D01*
X-357301185Y417698815D01*
X-357204494Y417619463D01*
X-357094180Y417560498D01*
X-357021620Y417538487D01*
X-357153475Y417406632D01*
X-357315990Y417163411D01*
X-357427932Y416893158D01*
X-357485000Y416606260D01*
X-357485000Y416313740D01*
X-357427932Y416026842D01*
X-357315990Y415756589D01*
X-357153475Y415513368D01*
X-356946632Y415306525D01*
X-356764466Y415184805D01*
X-356881355Y415115178D01*
X-357097588Y414920269D01*
X-357271641Y414686920D01*
X-357396825Y414424099D01*
X-357441476Y414276890D01*
X-357320155Y414047000D01*
X-356127000Y414047000D01*
X-356127000Y414067000D01*
X-355873000Y414067000D01*
X-355873000Y414047000D01*
X-355853000Y414047000D01*
X-355853000Y413793000D01*
X-355873000Y413793000D01*
X-355873000Y412599186D01*
X-355643109Y412478519D01*
X-355368748Y412575843D01*
X-355135000Y412715080D01*
X-355134999Y405470133D01*
X-356117059Y404488072D01*
X-356850000Y404488072D01*
X-356974482Y404475812D01*
X-357094180Y404439502D01*
X-357204494Y404380537D01*
X-357301185Y404301185D01*
X-357380537Y404204494D01*
X-357439502Y404094180D01*
X-357475812Y403974482D01*
X-357488072Y403850000D01*
X-357488072Y402150000D01*
X-357475812Y402025518D01*
X-357439502Y401905820D01*
X-357380537Y401795506D01*
X-357301185Y401698815D01*
X-357204494Y401619463D01*
X-357094180Y401560498D01*
X-357021620Y401538487D01*
X-357153475Y401406632D01*
X-357315990Y401163411D01*
X-357427932Y400893158D01*
X-357485000Y400606260D01*
X-357485000Y400313740D01*
X-357427932Y400026842D01*
X-357315990Y399756589D01*
X-357153475Y399513368D01*
X-356946632Y399306525D01*
X-356772240Y399190000D01*
X-356946632Y399073475D01*
X-357153475Y398866632D01*
X-357315990Y398623411D01*
X-357427932Y398353158D01*
X-357485000Y398066260D01*
X-357485000Y397773740D01*
X-357427932Y397486842D01*
X-357315990Y397216589D01*
X-357153475Y396973368D01*
X-356946632Y396766525D01*
X-356764466Y396644805D01*
X-356881355Y396575178D01*
X-357097588Y396380269D01*
X-357271641Y396146920D01*
X-357396825Y395884099D01*
X-357441476Y395736890D01*
X-357320155Y395507000D01*
X-356127000Y395507000D01*
X-356127000Y395527000D01*
X-355873000Y395527000D01*
X-355873000Y395507000D01*
X-354679845Y395507000D01*
X-354558524Y395736890D01*
X-354603175Y395884099D01*
X-354728359Y396146920D01*
X-354902412Y396380269D01*
X-355118645Y396575178D01*
X-355235534Y396644805D01*
X-355053368Y396766525D01*
X-354846525Y396973368D01*
X-354684010Y397216589D01*
X-354572068Y397486842D01*
X-354542598Y397634999D01*
X-351287071Y397634999D01*
X-351357571Y397486004D01*
X-351426300Y397211816D01*
X-351440217Y396929488D01*
X-351398787Y396649870D01*
X-351303603Y396383708D01*
X-351236671Y396258486D01*
X-350992702Y396186903D01*
X-350179605Y397000000D01*
X-350193748Y397014143D01*
X-350014143Y397193748D01*
X-350000000Y397179605D01*
X-349985858Y397193748D01*
X-349806253Y397014143D01*
X-349820395Y397000000D01*
X-349806253Y396985858D01*
X-349985858Y396806253D01*
X-350000000Y396820395D01*
X-350813097Y396007298D01*
X-350741514Y395763329D01*
X-350486004Y395642429D01*
X-350211816Y395573700D01*
X-349929488Y395559783D01*
X-349649870Y395601213D01*
X-349383708Y395696397D01*
X-349261691Y395761616D01*
X-349251185Y395748815D01*
X-349154494Y395669463D01*
X-349044180Y395610498D01*
X-348924482Y395574188D01*
X-348800000Y395561928D01*
X-347200000Y395561928D01*
X-347075518Y395574188D01*
X-346955820Y395610498D01*
X-346845506Y395669463D01*
X-346748815Y395748815D01*
X-346669463Y395845506D01*
X-346610498Y395955820D01*
X-346574188Y396075518D01*
X-346561928Y396200000D01*
X-346561928Y397634999D01*
X-341390123Y397634999D01*
X-341657949Y397553755D01*
X-341933735Y397406345D01*
X-342175463Y397207963D01*
X-342373845Y396966235D01*
X-342521255Y396690449D01*
X-342612030Y396391204D01*
X-342642681Y396080000D01*
X-342612030Y395768796D01*
X-342521255Y395469551D01*
X-342373845Y395193765D01*
X-342175463Y394952037D01*
X-341996101Y394804837D01*
X-342181315Y394649437D01*
X-342375969Y394406923D01*
X-342519571Y394131094D01*
X-342590563Y393912980D01*
X-342470594Y393667000D01*
X-341127000Y393667000D01*
X-341127000Y393687000D01*
X-340873000Y393687000D01*
X-340873000Y393667000D01*
X-339529406Y393667000D01*
X-339409437Y393912980D01*
X-339480429Y394131094D01*
X-339624031Y394406923D01*
X-339818685Y394649437D01*
X-340003899Y394804837D01*
X-339824537Y394952037D01*
X-339626155Y395193765D01*
X-339478745Y395469551D01*
X-339387970Y395768796D01*
X-339357319Y396080000D01*
X-339387970Y396391204D01*
X-339478745Y396690449D01*
X-339626155Y396966235D01*
X-339824537Y397207963D01*
X-340066265Y397406345D01*
X-340342051Y397553755D01*
X-340609877Y397634999D01*
X-339240130Y397634999D01*
X-336135000Y394529867D01*
X-336134999Y389055761D01*
X-336140491Y389000000D01*
X-336118577Y388777502D01*
X-336053676Y388563554D01*
X-336004616Y388471770D01*
X-335948283Y388366377D01*
X-335806448Y388193551D01*
X-335763142Y388158011D01*
X-332841987Y385236854D01*
X-332806449Y385193551D01*
X-332763146Y385158013D01*
X-332763144Y385158011D01*
X-332633623Y385051716D01*
X-332436447Y384946324D01*
X-332222499Y384881423D01*
X-332000000Y384859509D01*
X-331944248Y384865000D01*
X-326055751Y384865000D01*
X-326000000Y384859509D01*
X-325944249Y384865000D01*
X-325944248Y384865000D01*
X-325777501Y384881423D01*
X-325563553Y384946324D01*
X-325366377Y385051716D01*
X-325193551Y385193551D01*
X-325158005Y385236864D01*
X-324156854Y386238013D01*
X-324113551Y386273551D01*
X-323971716Y386446377D01*
X-323866324Y386643553D01*
X-323801423Y386857501D01*
X-323785000Y387024248D01*
X-323785000Y387024249D01*
X-323779509Y387080000D01*
X-323785000Y387135752D01*
X-323785000Y388115716D01*
X-323650000Y388317759D01*
X-323494637Y388085241D01*
X-323294759Y387885363D01*
X-323059727Y387728320D01*
X-322798574Y387620147D01*
X-322521335Y387565000D01*
X-322238665Y387565000D01*
X-321961426Y387620147D01*
X-321700273Y387728320D01*
X-321465241Y387885363D01*
X-321265363Y388085241D01*
X-321110000Y388317759D01*
X-320954637Y388085241D01*
X-320754759Y387885363D01*
X-320519727Y387728320D01*
X-320258574Y387620147D01*
X-319981335Y387565000D01*
X-319698665Y387565000D01*
X-319421426Y387620147D01*
X-319160273Y387728320D01*
X-318925241Y387885363D01*
X-318725363Y388085241D01*
X-318570000Y388317759D01*
X-318414637Y388085241D01*
X-318214759Y387885363D01*
X-317979727Y387728320D01*
X-317718574Y387620147D01*
X-317441335Y387565000D01*
X-317158665Y387565000D01*
X-316881426Y387620147D01*
X-316620273Y387728320D01*
X-316385241Y387885363D01*
X-316185363Y388085241D01*
X-316028320Y388320273D01*
X-316023933Y388330865D01*
X-315912385Y388144869D01*
X-315723414Y387936481D01*
X-315497420Y387768963D01*
X-315243087Y387648754D01*
X-315109039Y387608096D01*
X-314887000Y387730085D01*
X-314887000Y388873000D01*
X-314633000Y388873000D01*
X-314633000Y387730085D01*
X-314410961Y387608096D01*
X-314276913Y387648754D01*
X-314022580Y387768963D01*
X-313796586Y387936481D01*
X-313607615Y388144869D01*
X-313462930Y388386119D01*
X-313368091Y388650960D01*
X-313489376Y388873000D01*
X-314633000Y388873000D01*
X-314887000Y388873000D01*
X-314907000Y388873000D01*
X-314907000Y389127000D01*
X-314887000Y389127000D01*
X-314887000Y390269915D01*
X-314633000Y390269915D01*
X-314633000Y389127000D01*
X-313489376Y389127000D01*
X-313368091Y389349040D01*
X-313462930Y389613881D01*
X-313607615Y389855131D01*
X-313796586Y390063519D01*
X-314022580Y390231037D01*
X-314276913Y390351246D01*
X-314410961Y390391904D01*
X-314633000Y390269915D01*
X-314887000Y390269915D01*
X-315109039Y390391904D01*
X-315243087Y390351246D01*
X-315497420Y390231037D01*
X-315723414Y390063519D01*
X-315912385Y389855131D01*
X-316023933Y389669135D01*
X-316028320Y389679727D01*
X-316185363Y389914759D01*
X-316385241Y390114637D01*
X-316620273Y390271680D01*
X-316881426Y390379853D01*
X-317158665Y390435000D01*
X-317441335Y390435000D01*
X-317718574Y390379853D01*
X-317979727Y390271680D01*
X-318214759Y390114637D01*
X-318414637Y389914759D01*
X-318570000Y389682241D01*
X-318725363Y389914759D01*
X-318925241Y390114637D01*
X-319160273Y390271680D01*
X-319421426Y390379853D01*
X-319698665Y390435000D01*
X-319981335Y390435000D01*
X-320258574Y390379853D01*
X-320519727Y390271680D01*
X-320754759Y390114637D01*
X-320954637Y389914759D01*
X-321110000Y389682241D01*
X-321245000Y389884284D01*
X-321245000Y390149868D01*
X-320529868Y390865000D01*
X-311055751Y390865000D01*
X-311000000Y390859509D01*
X-310944249Y390865000D01*
X-310944248Y390865000D01*
X-310777501Y390881423D01*
X-310563553Y390946324D01*
X-310366377Y391051716D01*
X-310193551Y391193551D01*
X-310158004Y391236865D01*
X-310105753Y391289116D01*
X-305481279Y391289116D01*
X-305288230Y390942019D01*
X-304861024Y390720486D01*
X-304398808Y390586555D01*
X-303919345Y390545370D01*
X-303441059Y390598516D01*
X-302982332Y390743950D01*
X-302611770Y390942019D01*
X-302418721Y391289116D01*
X-303950000Y392820395D01*
X-305481279Y391289116D01*
X-310105753Y391289116D01*
X-308425524Y392969345D01*
X-306404630Y392969345D01*
X-306351484Y392491059D01*
X-306206050Y392032332D01*
X-306007981Y391661770D01*
X-305660884Y391468721D01*
X-304129605Y393000000D01*
X-303770395Y393000000D01*
X-302239116Y391468721D01*
X-301892019Y391661770D01*
X-301670486Y392088976D01*
X-301536555Y392551192D01*
X-301495370Y393030655D01*
X-301548516Y393508941D01*
X-301693950Y393967668D01*
X-301892019Y394338230D01*
X-302239116Y394531279D01*
X-303770395Y393000000D01*
X-304129605Y393000000D01*
X-305660884Y394531279D01*
X-306007981Y394338230D01*
X-306229514Y393911024D01*
X-306363445Y393448808D01*
X-306404630Y392969345D01*
X-308425524Y392969345D01*
X-308236859Y393158009D01*
X-308193551Y393193551D01*
X-308051716Y393366377D01*
X-307946324Y393563553D01*
X-307881423Y393777501D01*
X-307865000Y393944248D01*
X-307865000Y393944249D01*
X-307859509Y393999999D01*
X-307865000Y394055751D01*
X-307865000Y394710884D01*
X-305481279Y394710884D01*
X-303950000Y393179605D01*
X-302418721Y394710884D01*
X-302611770Y395057981D01*
X-303038976Y395279514D01*
X-303501192Y395413445D01*
X-303980655Y395454630D01*
X-304458941Y395401484D01*
X-304917668Y395256050D01*
X-305288230Y395057981D01*
X-305481279Y394710884D01*
X-307865000Y394710884D01*
X-307865000Y398259868D01*
X-306841991Y397236859D01*
X-306806449Y397193551D01*
X-306741795Y397140491D01*
X-306633623Y397051716D01*
X-306436447Y396946324D01*
X-306222499Y396881423D01*
X-306000000Y396859509D01*
X-305944248Y396865000D01*
X-305488755Y396865000D01*
X-305433594Y396782446D01*
X-305167554Y396516406D01*
X-304854724Y396307380D01*
X-304507127Y396163400D01*
X-304138119Y396090000D01*
X-303761881Y396090000D01*
X-303392873Y396163400D01*
X-303089370Y396289116D01*
X-300981279Y396289116D01*
X-300788230Y395942019D01*
X-300361024Y395720486D01*
X-299898808Y395586555D01*
X-299419345Y395545370D01*
X-298941059Y395598516D01*
X-298482332Y395743950D01*
X-298111770Y395942019D01*
X-297918721Y396289116D01*
X-299450000Y397820395D01*
X-300981279Y396289116D01*
X-303089370Y396289116D01*
X-303045276Y396307380D01*
X-302732446Y396516406D01*
X-302466406Y396782446D01*
X-302257380Y397095276D01*
X-302113400Y397442873D01*
X-302040000Y397811881D01*
X-302040000Y397969345D01*
X-301904630Y397969345D01*
X-301851484Y397491059D01*
X-301706050Y397032332D01*
X-301507981Y396661770D01*
X-301160884Y396468721D01*
X-299629605Y398000000D01*
X-299270395Y398000000D01*
X-297739116Y396468721D01*
X-297392019Y396661770D01*
X-297170486Y397088976D01*
X-297036555Y397551192D01*
X-296995370Y398030655D01*
X-297048516Y398508941D01*
X-297193950Y398967668D01*
X-297392019Y399338230D01*
X-297739116Y399531279D01*
X-299270395Y398000000D01*
X-299629605Y398000000D01*
X-301160884Y399531279D01*
X-301507981Y399338230D01*
X-301729514Y398911024D01*
X-301863445Y398448808D01*
X-301904630Y397969345D01*
X-302040000Y397969345D01*
X-302040000Y398188119D01*
X-302113400Y398557127D01*
X-302257380Y398904724D01*
X-302466406Y399217554D01*
X-302732446Y399483594D01*
X-303045276Y399692620D01*
X-303089369Y399710884D01*
X-300981279Y399710884D01*
X-299450000Y398179605D01*
X-297918721Y399710884D01*
X-298111770Y400057981D01*
X-298538976Y400279514D01*
X-299001192Y400413445D01*
X-299480655Y400454630D01*
X-299958941Y400401484D01*
X-300417668Y400256050D01*
X-300788230Y400057981D01*
X-300981279Y399710884D01*
X-303089369Y399710884D01*
X-303392873Y399836600D01*
X-303761881Y399910000D01*
X-304138119Y399910000D01*
X-304507127Y399836600D01*
X-304854724Y399692620D01*
X-305167554Y399483594D01*
X-305433594Y399217554D01*
X-305488755Y399135000D01*
X-305529868Y399135000D01*
X-307683984Y401289116D01*
X-305481279Y401289116D01*
X-305288230Y400942019D01*
X-304861024Y400720486D01*
X-304398808Y400586555D01*
X-303919345Y400545370D01*
X-303441059Y400598516D01*
X-302982332Y400743950D01*
X-302611770Y400942019D01*
X-302418721Y401289116D01*
X-303950000Y402820395D01*
X-305481279Y401289116D01*
X-307683984Y401289116D01*
X-309364213Y402969345D01*
X-306404630Y402969345D01*
X-306351484Y402491059D01*
X-306206050Y402032332D01*
X-306007981Y401661770D01*
X-305660884Y401468721D01*
X-304129605Y403000000D01*
X-303770395Y403000000D01*
X-302239116Y401468721D01*
X-301892019Y401661770D01*
X-301670486Y402088976D01*
X-301536555Y402551192D01*
X-301495370Y403030655D01*
X-301548516Y403508941D01*
X-301693950Y403967668D01*
X-301892019Y404338230D01*
X-302239116Y404531279D01*
X-303770395Y403000000D01*
X-304129605Y403000000D01*
X-305660884Y404531279D01*
X-306007981Y404338230D01*
X-306229514Y403911024D01*
X-306363445Y403448808D01*
X-306404630Y402969345D01*
X-309364213Y402969345D01*
X-309865000Y403470131D01*
X-309865000Y404710884D01*
X-305481279Y404710884D01*
X-303950000Y403179605D01*
X-302418721Y404710884D01*
X-302611770Y405057981D01*
X-303038976Y405279514D01*
X-303501192Y405413445D01*
X-303980655Y405454630D01*
X-304458941Y405401484D01*
X-304917668Y405256050D01*
X-305288230Y405057981D01*
X-305481279Y404710884D01*
X-309865000Y404710884D01*
X-309865000Y406115716D01*
X-309728320Y406320273D01*
X-309620147Y406581426D01*
X-309565000Y406858665D01*
X-309565000Y407141335D01*
X-309620147Y407418574D01*
X-309728320Y407679727D01*
X-309885363Y407914759D01*
X-310085241Y408114637D01*
X-310320273Y408271680D01*
X-310581426Y408379853D01*
X-310822718Y408427850D01*
X-312158004Y409763135D01*
X-312193551Y409806449D01*
X-312366377Y409948284D01*
X-312563553Y410053676D01*
X-312777501Y410118577D01*
X-312944248Y410135000D01*
X-312944249Y410135000D01*
X-313000000Y410140491D01*
X-313055751Y410135000D01*
X-323944248Y410135000D01*
X-324000000Y410140491D01*
X-324222499Y410118577D01*
X-324436447Y410053676D01*
X-324633623Y409948284D01*
X-324763144Y409841989D01*
X-324763145Y409841988D01*
X-324806449Y409806449D01*
X-324841987Y409763145D01*
X-325763141Y408841991D01*
X-325806448Y408806449D01*
X-325948283Y408633623D01*
X-325985735Y408563554D01*
X-326053676Y408436446D01*
X-326118577Y408222498D01*
X-326140491Y408000000D01*
X-326134999Y407944239D01*
X-326135000Y403055752D01*
X-326140491Y403000000D01*
X-326135000Y402944249D01*
X-326118577Y402777502D01*
X-326053676Y402563554D01*
X-325948284Y402366377D01*
X-325806449Y402193551D01*
X-325763136Y402158005D01*
X-324841987Y401236855D01*
X-324806449Y401193551D01*
X-324763146Y401158013D01*
X-324763144Y401158011D01*
X-324633623Y401051716D01*
X-324436447Y400946324D01*
X-324222499Y400881423D01*
X-324000000Y400859509D01*
X-323944248Y400865000D01*
X-323391689Y400865000D01*
X-323328284Y400746377D01*
X-323186449Y400573551D01*
X-323143136Y400538005D01*
X-321841987Y399236854D01*
X-321806449Y399193551D01*
X-321763146Y399158013D01*
X-321763144Y399158011D01*
X-321633623Y399051716D01*
X-321436447Y398946324D01*
X-321222499Y398881423D01*
X-321000000Y398859509D01*
X-320944248Y398865000D01*
X-312470132Y398865000D01*
X-312134999Y398529867D01*
X-312135000Y395470132D01*
X-312470132Y395135000D01*
X-325944248Y395135000D01*
X-326000000Y395140491D01*
X-326055752Y395135000D01*
X-326222499Y395118577D01*
X-326436447Y395053676D01*
X-326633623Y394948284D01*
X-326806449Y394806449D01*
X-326841989Y394763143D01*
X-328223140Y393381991D01*
X-328266448Y393346449D01*
X-328408283Y393173623D01*
X-328411812Y393167020D01*
X-328513676Y392976446D01*
X-328578577Y392762498D01*
X-328600491Y392540000D01*
X-328594999Y392484239D01*
X-328595000Y389993089D01*
X-328610498Y390044180D01*
X-328669463Y390154494D01*
X-328748815Y390251185D01*
X-328845506Y390330537D01*
X-328955820Y390389502D01*
X-329075518Y390425812D01*
X-329200000Y390438072D01*
X-330800000Y390438072D01*
X-330924482Y390425812D01*
X-331044180Y390389502D01*
X-331154494Y390330537D01*
X-331251185Y390251185D01*
X-331330537Y390154494D01*
X-331340957Y390135000D01*
X-331529868Y390135000D01*
X-331865000Y390470132D01*
X-331865000Y395944259D01*
X-331859510Y396000001D01*
X-331865000Y396055743D01*
X-331865000Y396055752D01*
X-331877783Y396185543D01*
X-331099324Y395407084D01*
X-330912753Y395253970D01*
X-330628715Y395102148D01*
X-330320517Y395008657D01*
X-330000000Y394977089D01*
X-329679484Y395008657D01*
X-329371285Y395102148D01*
X-329087248Y395253970D01*
X-328838287Y395458287D01*
X-328633970Y395707248D01*
X-328608197Y395755466D01*
X-328574637Y395705241D01*
X-328374759Y395505363D01*
X-328139727Y395348320D01*
X-327878574Y395240147D01*
X-327601335Y395185000D01*
X-327318665Y395185000D01*
X-327041426Y395240147D01*
X-326780273Y395348320D01*
X-326545241Y395505363D01*
X-326345363Y395705241D01*
X-326190000Y395937759D01*
X-326034637Y395705241D01*
X-325834759Y395505363D01*
X-325599727Y395348320D01*
X-325338574Y395240147D01*
X-325061335Y395185000D01*
X-324778665Y395185000D01*
X-324501426Y395240147D01*
X-324240273Y395348320D01*
X-324005241Y395505363D01*
X-323805363Y395705241D01*
X-323650000Y395937759D01*
X-323494637Y395705241D01*
X-323294759Y395505363D01*
X-323059727Y395348320D01*
X-322798574Y395240147D01*
X-322521335Y395185000D01*
X-322238665Y395185000D01*
X-321961426Y395240147D01*
X-321700273Y395348320D01*
X-321465241Y395505363D01*
X-321265363Y395705241D01*
X-321110000Y395937759D01*
X-320954637Y395705241D01*
X-320754759Y395505363D01*
X-320519727Y395348320D01*
X-320258574Y395240147D01*
X-319981335Y395185000D01*
X-319698665Y395185000D01*
X-319421426Y395240147D01*
X-319160273Y395348320D01*
X-318925241Y395505363D01*
X-318725363Y395705241D01*
X-318570000Y395937759D01*
X-318414637Y395705241D01*
X-318214759Y395505363D01*
X-317979727Y395348320D01*
X-317718574Y395240147D01*
X-317441335Y395185000D01*
X-317158665Y395185000D01*
X-316881426Y395240147D01*
X-316620273Y395348320D01*
X-316385241Y395505363D01*
X-316185363Y395705241D01*
X-316030000Y395937759D01*
X-315874637Y395705241D01*
X-315674759Y395505363D01*
X-315439727Y395348320D01*
X-315178574Y395240147D01*
X-314901335Y395185000D01*
X-314618665Y395185000D01*
X-314341426Y395240147D01*
X-314080273Y395348320D01*
X-313845241Y395505363D01*
X-313645363Y395705241D01*
X-313488320Y395940273D01*
X-313380147Y396201426D01*
X-313325000Y396478665D01*
X-313325000Y396761335D01*
X-313380147Y397038574D01*
X-313488320Y397299727D01*
X-313645363Y397534759D01*
X-313845241Y397734637D01*
X-314080273Y397891680D01*
X-314341426Y397999853D01*
X-314618665Y398055000D01*
X-314901335Y398055000D01*
X-315178574Y397999853D01*
X-315439727Y397891680D01*
X-315674759Y397734637D01*
X-315874637Y397534759D01*
X-316030000Y397302241D01*
X-316185363Y397534759D01*
X-316385241Y397734637D01*
X-316620273Y397891680D01*
X-316881426Y397999853D01*
X-317158665Y398055000D01*
X-317441335Y398055000D01*
X-317718574Y397999853D01*
X-317979727Y397891680D01*
X-318214759Y397734637D01*
X-318414637Y397534759D01*
X-318570000Y397302241D01*
X-318725363Y397534759D01*
X-318925241Y397734637D01*
X-319160273Y397891680D01*
X-319421426Y397999853D01*
X-319698665Y398055000D01*
X-319981335Y398055000D01*
X-320258574Y397999853D01*
X-320519727Y397891680D01*
X-320754759Y397734637D01*
X-320954637Y397534759D01*
X-321110000Y397302241D01*
X-321265363Y397534759D01*
X-321465241Y397734637D01*
X-321700273Y397891680D01*
X-321961426Y397999853D01*
X-322238665Y398055000D01*
X-322521335Y398055000D01*
X-322798574Y397999853D01*
X-323059727Y397891680D01*
X-323294759Y397734637D01*
X-323494637Y397534759D01*
X-323650000Y397302241D01*
X-323805363Y397534759D01*
X-324005241Y397734637D01*
X-324240273Y397891680D01*
X-324501426Y397999853D01*
X-324778665Y398055000D01*
X-325061335Y398055000D01*
X-325338574Y397999853D01*
X-325599727Y397891680D01*
X-325834759Y397734637D01*
X-326034637Y397534759D01*
X-326190000Y397302241D01*
X-326345363Y397534759D01*
X-326545241Y397734637D01*
X-326780273Y397891680D01*
X-327041426Y397999853D01*
X-327318665Y398055000D01*
X-327601335Y398055000D01*
X-327878574Y397999853D01*
X-328139727Y397891680D01*
X-328374759Y397734637D01*
X-328574637Y397534759D01*
X-328608196Y397484534D01*
X-328633970Y397532753D01*
X-328787084Y397719324D01*
X-333209096Y402141335D01*
X-331435000Y402141335D01*
X-331435000Y401858665D01*
X-331379853Y401581426D01*
X-331271680Y401320273D01*
X-331114637Y401085241D01*
X-330914759Y400885363D01*
X-330679727Y400728320D01*
X-330418574Y400620147D01*
X-330141335Y400565000D01*
X-329858665Y400565000D01*
X-329581426Y400620147D01*
X-329320273Y400728320D01*
X-329085241Y400885363D01*
X-328885363Y401085241D01*
X-328728320Y401320273D01*
X-328620147Y401581426D01*
X-328565000Y401858665D01*
X-328565000Y402141335D01*
X-328620147Y402418574D01*
X-328728320Y402679727D01*
X-328885363Y402914759D01*
X-329085241Y403114637D01*
X-329320273Y403271680D01*
X-329581426Y403379853D01*
X-329858665Y403435000D01*
X-330141335Y403435000D01*
X-330418574Y403379853D01*
X-330679727Y403271680D01*
X-330914759Y403114637D01*
X-331114637Y402914759D01*
X-331271680Y402679727D01*
X-331379853Y402418574D01*
X-331435000Y402141335D01*
X-333209096Y402141335D01*
X-337167075Y406099313D01*
X-337218286Y406161714D01*
X-337467248Y406366031D01*
X-337751285Y406517852D01*
X-338059484Y406611343D01*
X-338299678Y406635000D01*
X-338299681Y406635000D01*
X-338380000Y406642911D01*
X-338460319Y406635000D01*
X-346080322Y406635000D01*
X-346320516Y406611343D01*
X-346628715Y406517852D01*
X-346912752Y406366031D01*
X-347161714Y406161714D01*
X-347366031Y405912752D01*
X-347517852Y405628715D01*
X-347611343Y405320516D01*
X-347642911Y405000000D01*
X-347611343Y404679484D01*
X-347517852Y404371285D01*
X-347366031Y404087248D01*
X-347161714Y403838286D01*
X-346912752Y403633969D01*
X-346628715Y403482148D01*
X-346320516Y403388657D01*
X-346080322Y403365000D01*
X-339057238Y403365000D01*
X-337274455Y401582217D01*
X-337404248Y401595000D01*
X-337404249Y401595000D01*
X-337460000Y401600491D01*
X-337515751Y401595000D01*
X-354841272Y401595000D01*
X-354795506Y401619463D01*
X-354698815Y401698815D01*
X-354619463Y401795506D01*
X-354560498Y401905820D01*
X-354524188Y402025518D01*
X-354511928Y402150000D01*
X-354511928Y402882941D01*
X-353387571Y404007298D01*
X-351813097Y404007298D01*
X-351741514Y403763329D01*
X-351486004Y403642429D01*
X-351211816Y403573700D01*
X-350929488Y403559783D01*
X-350649870Y403601213D01*
X-350383708Y403696397D01*
X-350258486Y403763329D01*
X-350186903Y404007298D01*
X-351000000Y404820395D01*
X-351813097Y404007298D01*
X-353387571Y404007298D01*
X-353236859Y404158009D01*
X-353193551Y404193551D01*
X-353051716Y404366377D01*
X-352946324Y404563553D01*
X-352881423Y404777501D01*
X-352866454Y404929488D01*
X-352440217Y404929488D01*
X-352398787Y404649870D01*
X-352303603Y404383708D01*
X-352236671Y404258486D01*
X-351992702Y404186903D01*
X-351179605Y405000000D01*
X-350820395Y405000000D01*
X-350007298Y404186903D01*
X-349763329Y404258486D01*
X-349642429Y404513996D01*
X-349573700Y404788184D01*
X-349559783Y405070512D01*
X-349601213Y405350130D01*
X-349696397Y405616292D01*
X-349763329Y405741514D01*
X-350007298Y405813097D01*
X-350820395Y405000000D01*
X-351179605Y405000000D01*
X-351992702Y405813097D01*
X-352236671Y405741514D01*
X-352357571Y405486004D01*
X-352426300Y405211816D01*
X-352440217Y404929488D01*
X-352866454Y404929488D01*
X-352865000Y404944248D01*
X-352859509Y404999999D01*
X-352865000Y405055751D01*
X-352865000Y405992702D01*
X-351813097Y405992702D01*
X-351000000Y405179605D01*
X-350186903Y405992702D01*
X-350258486Y406236671D01*
X-350513996Y406357571D01*
X-350788184Y406426300D01*
X-351070512Y406440217D01*
X-351350130Y406398787D01*
X-351616292Y406303603D01*
X-351741514Y406236671D01*
X-351813097Y405992702D01*
X-352865000Y405992702D01*
X-352865000Y407141335D01*
X-331435000Y407141335D01*
X-331435000Y406858665D01*
X-331379853Y406581426D01*
X-331271680Y406320273D01*
X-331114637Y406085241D01*
X-330914759Y405885363D01*
X-330679727Y405728320D01*
X-330418574Y405620147D01*
X-330141335Y405565000D01*
X-329858665Y405565000D01*
X-329581426Y405620147D01*
X-329320273Y405728320D01*
X-329085241Y405885363D01*
X-328885363Y406085241D01*
X-328728320Y406320273D01*
X-328620147Y406581426D01*
X-328565000Y406858665D01*
X-328565000Y407141335D01*
X-328620147Y407418574D01*
X-328728320Y407679727D01*
X-328885363Y407914759D01*
X-329085241Y408114637D01*
X-329320273Y408271680D01*
X-329581426Y408379853D01*
X-329858665Y408435000D01*
X-330141335Y408435000D01*
X-330418574Y408379853D01*
X-330679727Y408271680D01*
X-330914759Y408114637D01*
X-331114637Y407914759D01*
X-331271680Y407679727D01*
X-331379853Y407418574D01*
X-331435000Y407141335D01*
X-352865000Y407141335D01*
X-352865000Y415944259D01*
X-352859510Y416000001D01*
X-352865000Y416055743D01*
X-352865000Y416055752D01*
X-352881423Y416222499D01*
X-352946324Y416436447D01*
X-353051716Y416633623D01*
X-353193551Y416806449D01*
X-353236865Y416841996D01*
X-353618004Y417223135D01*
X-353653551Y417266449D01*
X-353826377Y417408284D01*
X-354023553Y417513676D01*
X-354237501Y417578577D01*
X-354404248Y417595000D01*
X-354404249Y417595000D01*
X-354460000Y417600491D01*
X-354515751Y417595000D01*
X-354841272Y417595000D01*
X-354795506Y417619463D01*
X-354757126Y417650961D01*
X-352011904Y417650961D01*
X-351971246Y417516913D01*
X-351851037Y417262580D01*
X-351683519Y417036586D01*
X-351475131Y416847615D01*
X-351233881Y416702930D01*
X-350969040Y416608091D01*
X-350747000Y416729376D01*
X-350747000Y417873000D01*
X-350493000Y417873000D01*
X-350493000Y416729376D01*
X-350270960Y416608091D01*
X-350006119Y416702930D01*
X-349764869Y416847615D01*
X-349556481Y417036586D01*
X-349388963Y417262580D01*
X-349268754Y417516913D01*
X-349228096Y417650961D01*
X-349350085Y417873000D01*
X-350493000Y417873000D01*
X-350747000Y417873000D01*
X-351889915Y417873000D01*
X-352011904Y417650961D01*
X-354757126Y417650961D01*
X-354698815Y417698815D01*
X-354619463Y417795506D01*
X-354560498Y417905820D01*
X-354524188Y418025518D01*
X-354511928Y418150000D01*
X-354511928Y418349039D01*
X-352011904Y418349039D01*
X-351889915Y418127000D01*
X-350747000Y418127000D01*
X-350747000Y419270624D01*
X-350493000Y419270624D01*
X-350493000Y418127000D01*
X-349350085Y418127000D01*
X-349228096Y418349039D01*
X-349268754Y418483087D01*
X-349388963Y418737420D01*
X-349556481Y418963414D01*
X-349764869Y419152385D01*
X-350006119Y419297070D01*
X-350270960Y419391909D01*
X-350493000Y419270624D01*
X-350747000Y419270624D01*
X-350969040Y419391909D01*
X-351233881Y419297070D01*
X-351475131Y419152385D01*
X-351683519Y418963414D01*
X-351851037Y418737420D01*
X-351971246Y418483087D01*
X-352011904Y418349039D01*
X-354511928Y418349039D01*
X-354511928Y418882941D01*
X-353449868Y419945000D01*
X-346135751Y419945000D01*
X-346080000Y419939509D01*
X-346024249Y419945000D01*
X-346024248Y419945000D01*
X-345857501Y419961423D01*
X-345643553Y420026324D01*
X-345446377Y420131716D01*
X-345273551Y420273551D01*
X-345238004Y420316865D01*
X-343689868Y421865000D01*
X-342487079Y421865000D01*
X-342360236Y421812460D01*
X-342121637Y421765000D01*
X-341878363Y421765000D01*
X-341639764Y421812460D01*
X-341415008Y421905557D01*
X-341212733Y422040713D01*
X-341157499Y422095947D01*
X-341130537Y422045506D01*
X-341051185Y421948815D01*
X-340954494Y421869463D01*
X-340844180Y421810498D01*
X-340724482Y421774188D01*
X-340600000Y421761928D01*
X-339400000Y421761928D01*
X-339275518Y421774188D01*
X-339155820Y421810498D01*
X-339053856Y421865000D01*
X-338470131Y421865000D01*
X-336275540Y419670408D01*
X-336379853Y419418574D01*
X-336435000Y419141335D01*
X-336435000Y418858665D01*
X-336379853Y418581426D01*
X-336271680Y418320273D01*
X-336114637Y418085241D01*
X-335914759Y417885363D01*
X-335679727Y417728320D01*
X-335418574Y417620147D01*
X-335141335Y417565000D01*
X-334858665Y417565000D01*
X-334581426Y417620147D01*
X-334320273Y417728320D01*
X-334115716Y417865000D01*
X-331470131Y417865000D01*
X-330381992Y416776860D01*
X-330346449Y416733551D01*
X-330224685Y416633622D01*
X-330173623Y416591716D01*
X-329976447Y416486324D01*
X-329762499Y416421423D01*
X-329540000Y416399509D01*
X-329484248Y416405000D01*
X-328504284Y416405000D01*
X-328302241Y416270000D01*
X-328534759Y416114637D01*
X-328734637Y415914759D01*
X-328891680Y415679727D01*
X-328999853Y415418574D01*
X-329047850Y415177282D01*
X-329090132Y415135000D01*
X-334115716Y415135000D01*
X-334320273Y415271680D01*
X-334581426Y415379853D01*
X-334858665Y415435000D01*
X-335141335Y415435000D01*
X-335418574Y415379853D01*
X-335679727Y415271680D01*
X-335884284Y415135000D01*
X-337944249Y415135000D01*
X-338000001Y415140491D01*
X-338222500Y415118577D01*
X-338272295Y415103471D01*
X-338436447Y415053676D01*
X-338633623Y414948284D01*
X-338806449Y414806449D01*
X-338841989Y414763143D01*
X-340167059Y413438072D01*
X-340800000Y413438072D01*
X-340924482Y413425812D01*
X-341044180Y413389502D01*
X-341154494Y413330537D01*
X-341251185Y413251185D01*
X-341264790Y413234607D01*
X-341320273Y413271680D01*
X-341581426Y413379853D01*
X-341822718Y413427850D01*
X-341865000Y413470132D01*
X-341865000Y417115716D01*
X-341728320Y417320273D01*
X-341620147Y417581426D01*
X-341565000Y417858665D01*
X-341565000Y418141335D01*
X-341620147Y418418574D01*
X-341728320Y418679727D01*
X-341885363Y418914759D01*
X-342085241Y419114637D01*
X-342320273Y419271680D01*
X-342581426Y419379853D01*
X-342858665Y419435000D01*
X-343141335Y419435000D01*
X-343418574Y419379853D01*
X-343679727Y419271680D01*
X-343914759Y419114637D01*
X-344114637Y418914759D01*
X-344271680Y418679727D01*
X-344379853Y418418574D01*
X-344435000Y418141335D01*
X-344435000Y417858665D01*
X-344379853Y417581426D01*
X-344271680Y417320273D01*
X-344135000Y417115716D01*
X-344134999Y413055761D01*
X-344140491Y413000000D01*
X-344118577Y412777502D01*
X-344053676Y412563554D01*
X-344053675Y412563553D01*
X-343948283Y412366377D01*
X-343806448Y412193551D01*
X-343763141Y412158009D01*
X-343427850Y411822718D01*
X-343379853Y411581426D01*
X-343271680Y411320273D01*
X-343114637Y411085241D01*
X-342914759Y410885363D01*
X-342679727Y410728320D01*
X-342418574Y410620147D01*
X-342141335Y410565000D01*
X-341858665Y410565000D01*
X-341581426Y410620147D01*
X-341320273Y410728320D01*
X-341264790Y410765393D01*
X-341251185Y410748815D01*
X-341154494Y410669463D01*
X-341044180Y410610498D01*
X-340924482Y410574188D01*
X-340800000Y410561928D01*
X-339200000Y410561928D01*
X-339075518Y410574188D01*
X-338955820Y410610498D01*
X-338845506Y410669463D01*
X-338748815Y410748815D01*
X-338669463Y410845506D01*
X-338610498Y410955820D01*
X-338574188Y411075518D01*
X-338561928Y411200000D01*
X-338561928Y411832941D01*
X-337529868Y412865000D01*
X-335884284Y412865000D01*
X-335679727Y412728320D01*
X-335418574Y412620147D01*
X-335141335Y412565000D01*
X-334858665Y412565000D01*
X-334581426Y412620147D01*
X-334320273Y412728320D01*
X-334115716Y412865000D01*
X-328675751Y412865000D01*
X-328620000Y412859509D01*
X-328564249Y412865000D01*
X-328564248Y412865000D01*
X-328397501Y412881423D01*
X-328183553Y412946324D01*
X-327986377Y413051716D01*
X-327813551Y413193551D01*
X-327778005Y413236864D01*
X-327442718Y413572150D01*
X-327201426Y413620147D01*
X-326940273Y413728320D01*
X-326705241Y413885363D01*
X-326505363Y414085241D01*
X-326348320Y414320273D01*
X-326240147Y414581426D01*
X-326185000Y414858665D01*
X-326185000Y415141335D01*
X-326240147Y415418574D01*
X-326348320Y415679727D01*
X-326428683Y415800000D01*
X-321438072Y415800000D01*
X-321438072Y414200000D01*
X-321425812Y414075518D01*
X-321389502Y413955820D01*
X-321330537Y413845506D01*
X-321251185Y413748815D01*
X-321154494Y413669463D01*
X-321044180Y413610498D01*
X-320924482Y413574188D01*
X-320800000Y413561928D01*
X-319200000Y413561928D01*
X-319075518Y413574188D01*
X-318955820Y413610498D01*
X-318845506Y413669463D01*
X-318748815Y413748815D01*
X-318669463Y413845506D01*
X-318659043Y413865000D01*
X-314055751Y413865000D01*
X-314000000Y413859509D01*
X-313944249Y413865000D01*
X-313944248Y413865000D01*
X-313777501Y413881423D01*
X-313563553Y413946324D01*
X-313366377Y414051716D01*
X-313193551Y414193551D01*
X-313158005Y414236864D01*
X-312236855Y415158013D01*
X-312193551Y415193551D01*
X-312051716Y415366377D01*
X-311946324Y415563553D01*
X-311927490Y415625641D01*
X-311845506Y415669463D01*
X-311748815Y415748815D01*
X-311735210Y415765393D01*
X-311679727Y415728320D01*
X-311418574Y415620147D01*
X-311141335Y415565000D01*
X-310858665Y415565000D01*
X-310581426Y415620147D01*
X-310459622Y415670600D01*
X-299267910Y415670600D01*
X-299237238Y415569472D01*
X-299129473Y415336371D01*
X-298978303Y415128773D01*
X-298789537Y414954656D01*
X-298570430Y414820711D01*
X-298329401Y414732085D01*
X-298127000Y414854915D01*
X-298127000Y415873000D01*
X-297873000Y415873000D01*
X-297873000Y414854915D01*
X-297670599Y414732085D01*
X-297429570Y414820711D01*
X-297210463Y414954656D01*
X-297021697Y415128773D01*
X-296870527Y415336371D01*
X-296762762Y415569472D01*
X-296732090Y415670600D01*
X-296855776Y415873000D01*
X-297873000Y415873000D01*
X-298127000Y415873000D01*
X-299144224Y415873000D01*
X-299267910Y415670600D01*
X-310459622Y415670600D01*
X-310320273Y415728320D01*
X-310115716Y415865000D01*
X-306055751Y415865000D01*
X-306000000Y415859509D01*
X-305944249Y415865000D01*
X-305944248Y415865000D01*
X-305777501Y415881423D01*
X-305563553Y415946324D01*
X-305366377Y416051716D01*
X-305193551Y416193551D01*
X-305158005Y416236864D01*
X-304529868Y416865000D01*
X-299115444Y416865000D01*
X-299032441Y416796881D01*
X-299129473Y416663629D01*
X-299237238Y416430528D01*
X-299267910Y416329400D01*
X-299144224Y416127000D01*
X-298127000Y416127000D01*
X-298127000Y416147000D01*
X-297873000Y416147000D01*
X-297873000Y416127000D01*
X-296855776Y416127000D01*
X-296732090Y416329400D01*
X-296762762Y416430528D01*
X-296870527Y416663629D01*
X-296967559Y416796881D01*
X-296873815Y416873815D01*
X-296794463Y416970506D01*
X-296735498Y417080820D01*
X-296699188Y417200518D01*
X-296686928Y417325000D01*
X-296686928Y418675000D01*
X-296699188Y418799482D01*
X-296735498Y418919180D01*
X-296794463Y419029494D01*
X-296873815Y419126185D01*
X-296970506Y419205537D01*
X-297080820Y419264502D01*
X-297200518Y419300812D01*
X-297325000Y419313072D01*
X-298675000Y419313072D01*
X-298799482Y419300812D01*
X-298919180Y419264502D01*
X-299029494Y419205537D01*
X-299115444Y419135000D01*
X-304944248Y419135000D01*
X-305000000Y419140491D01*
X-305222499Y419118577D01*
X-305436447Y419053676D01*
X-305633623Y418948284D01*
X-305763144Y418841989D01*
X-305763146Y418841987D01*
X-305806449Y418806449D01*
X-305841987Y418763145D01*
X-306470132Y418135000D01*
X-310115716Y418135000D01*
X-310320273Y418271680D01*
X-310581426Y418379853D01*
X-310858665Y418435000D01*
X-311141335Y418435000D01*
X-311418574Y418379853D01*
X-311679727Y418271680D01*
X-311735210Y418234607D01*
X-311748815Y418251185D01*
X-311845506Y418330537D01*
X-311955820Y418389502D01*
X-312075518Y418425812D01*
X-312200000Y418438072D01*
X-313800000Y418438072D01*
X-313924482Y418425812D01*
X-314044180Y418389502D01*
X-314154494Y418330537D01*
X-314251185Y418251185D01*
X-314330537Y418154494D01*
X-314389502Y418044180D01*
X-314425812Y417924482D01*
X-314438072Y417800000D01*
X-314438072Y416200000D01*
X-314435119Y416170013D01*
X-314470132Y416135000D01*
X-318659043Y416135000D01*
X-318669463Y416154494D01*
X-318748815Y416251185D01*
X-318845506Y416330537D01*
X-318955820Y416389502D01*
X-319075518Y416425812D01*
X-319083961Y416426643D01*
X-318885363Y416625241D01*
X-318728320Y416860273D01*
X-318620147Y417121426D01*
X-318565000Y417398665D01*
X-318565000Y417681335D01*
X-318620147Y417958574D01*
X-318728320Y418219727D01*
X-318885363Y418454759D01*
X-319085241Y418654637D01*
X-319317759Y418810000D01*
X-319085241Y418965363D01*
X-318885363Y419165241D01*
X-318728320Y419400273D01*
X-318620147Y419661426D01*
X-318565000Y419938665D01*
X-318565000Y420221335D01*
X-318620147Y420498574D01*
X-318728320Y420759727D01*
X-318885363Y420994759D01*
X-319085241Y421194637D01*
X-319320273Y421351680D01*
X-319330865Y421356067D01*
X-319144869Y421467615D01*
X-318936481Y421656586D01*
X-318768963Y421882580D01*
X-318648754Y422136913D01*
X-318608096Y422270961D01*
X-318730085Y422493000D01*
X-319873000Y422493000D01*
X-319873000Y422473000D01*
X-320127000Y422473000D01*
X-320127000Y422493000D01*
X-321269915Y422493000D01*
X-321391904Y422270961D01*
X-321351246Y422136913D01*
X-321231037Y421882580D01*
X-321063519Y421656586D01*
X-320855131Y421467615D01*
X-320669135Y421356067D01*
X-320679727Y421351680D01*
X-320914759Y421194637D01*
X-321114637Y420994759D01*
X-321271680Y420759727D01*
X-321379853Y420498574D01*
X-321435000Y420221335D01*
X-321435000Y419938665D01*
X-321379853Y419661426D01*
X-321271680Y419400273D01*
X-321114637Y419165241D01*
X-320914759Y418965363D01*
X-320682241Y418810000D01*
X-320914759Y418654637D01*
X-321114637Y418454759D01*
X-321271680Y418219727D01*
X-321379853Y417958574D01*
X-321435000Y417681335D01*
X-321435000Y417398665D01*
X-321379853Y417121426D01*
X-321271680Y416860273D01*
X-321114637Y416625241D01*
X-320916039Y416426643D01*
X-320924482Y416425812D01*
X-321044180Y416389502D01*
X-321154494Y416330537D01*
X-321251185Y416251185D01*
X-321330537Y416154494D01*
X-321389502Y416044180D01*
X-321425812Y415924482D01*
X-321438072Y415800000D01*
X-326428683Y415800000D01*
X-326505363Y415914759D01*
X-326705241Y416114637D01*
X-326937759Y416270000D01*
X-326705241Y416425363D01*
X-326505363Y416625241D01*
X-326348320Y416860273D01*
X-326240147Y417121426D01*
X-326185000Y417398665D01*
X-326185000Y417681335D01*
X-326240147Y417958574D01*
X-326348320Y418219727D01*
X-326505363Y418454759D01*
X-326705241Y418654637D01*
X-326937759Y418810000D01*
X-326705241Y418965363D01*
X-326505363Y419165241D01*
X-326348320Y419400273D01*
X-326240147Y419661426D01*
X-326185000Y419938665D01*
X-326185000Y420221335D01*
X-326240147Y420498574D01*
X-326348320Y420759727D01*
X-326505363Y420994759D01*
X-326705241Y421194637D01*
X-326937759Y421350000D01*
X-326705241Y421505363D01*
X-326505363Y421705241D01*
X-326348320Y421940273D01*
X-326240147Y422201426D01*
X-326185000Y422478665D01*
X-326185000Y422761335D01*
X-326226315Y422969039D01*
X-321391904Y422969039D01*
X-321269915Y422747000D01*
X-320127000Y422747000D01*
X-320127000Y423890624D01*
X-319873000Y423890624D01*
X-319873000Y422747000D01*
X-318730085Y422747000D01*
X-318608096Y422969039D01*
X-318648754Y423103087D01*
X-318768963Y423357420D01*
X-318936481Y423583414D01*
X-319144869Y423772385D01*
X-319386119Y423917070D01*
X-319650960Y424011909D01*
X-319873000Y423890624D01*
X-320127000Y423890624D01*
X-320349040Y424011909D01*
X-320613881Y423917070D01*
X-320855131Y423772385D01*
X-321063519Y423583414D01*
X-321231037Y423357420D01*
X-321351246Y423103087D01*
X-321391904Y422969039D01*
X-326226315Y422969039D01*
X-326240147Y423038574D01*
X-326348320Y423299727D01*
X-326505363Y423534759D01*
X-326705241Y423734637D01*
X-326940273Y423891680D01*
X-327201426Y423999853D01*
X-327478665Y424055000D01*
X-327761335Y424055000D01*
X-328038574Y423999853D01*
X-328299727Y423891680D01*
X-328534759Y423734637D01*
X-328734637Y423534759D01*
X-328891680Y423299727D01*
X-328999853Y423038574D01*
X-329055000Y422761335D01*
X-329055000Y422478665D01*
X-328999853Y422201426D01*
X-328891680Y421940273D01*
X-328734637Y421705241D01*
X-328534759Y421505363D01*
X-328302241Y421350000D01*
X-328534759Y421194637D01*
X-328734637Y420994759D01*
X-328891680Y420759727D01*
X-328999853Y420498574D01*
X-329055000Y420221335D01*
X-329055000Y419938665D01*
X-328999853Y419661426D01*
X-328891680Y419400273D01*
X-328734637Y419165241D01*
X-328534759Y418965363D01*
X-328302241Y418810000D01*
X-328504284Y418675000D01*
X-329069868Y418675000D01*
X-330158004Y419763135D01*
X-330193551Y419806449D01*
X-330366377Y419948284D01*
X-330563553Y420053676D01*
X-330777501Y420118577D01*
X-330944248Y420135000D01*
X-330944249Y420135000D01*
X-331000000Y420140491D01*
X-331055751Y420135000D01*
X-333872805Y420135000D01*
X-333881423Y420222499D01*
X-333946324Y420436447D01*
X-334051716Y420633623D01*
X-334158011Y420763144D01*
X-334158013Y420763146D01*
X-334193551Y420806449D01*
X-334236854Y420841987D01*
X-337158004Y423763135D01*
X-337193551Y423806449D01*
X-337366377Y423948284D01*
X-337563553Y424053676D01*
X-337777501Y424118577D01*
X-337944248Y424135000D01*
X-337944249Y424135000D01*
X-338000000Y424140491D01*
X-338055751Y424135000D01*
X-339053856Y424135000D01*
X-339155820Y424189502D01*
X-339275518Y424225812D01*
X-339400000Y424238072D01*
X-340600000Y424238072D01*
X-340724482Y424225812D01*
X-340844180Y424189502D01*
X-340954494Y424130537D01*
X-341051185Y424051185D01*
X-341130537Y423954494D01*
X-341157499Y423904053D01*
X-341212733Y423959287D01*
X-341415008Y424094443D01*
X-341639764Y424187540D01*
X-341878363Y424235000D01*
X-342121637Y424235000D01*
X-342360236Y424187540D01*
X-342487079Y424135000D01*
X-344104249Y424135000D01*
X-344160001Y424140491D01*
X-344215752Y424135000D01*
X-344382499Y424118577D01*
X-344596447Y424053676D01*
X-344793623Y423948284D01*
X-344966449Y423806449D01*
X-345001991Y423763141D01*
X-346550131Y422215000D01*
X-353864257Y422215000D01*
X-353920001Y422220490D01*
X-353975745Y422215000D01*
X-353975752Y422215000D01*
X-354113572Y422201426D01*
X-354142500Y422198577D01*
X-354192295Y422183471D01*
X-354356447Y422133676D01*
X-354553623Y422028284D01*
X-354726449Y421886449D01*
X-354761989Y421843143D01*
X-356117059Y420488072D01*
X-356850000Y420488072D01*
X-356974482Y420475812D01*
X-357094180Y420439502D01*
X-357204494Y420380537D01*
X-357301185Y420301185D01*
X-357380537Y420204494D01*
X-357439502Y420094180D01*
X-357475812Y419974482D01*
X-357488072Y419850000D01*
X-358873000Y419850000D01*
X-358873000Y426220128D01*
X-358235000Y426220128D01*
X-358235000Y425779872D01*
X-358149110Y425348075D01*
X-357980631Y424941331D01*
X-357736038Y424575271D01*
X-357424729Y424263962D01*
X-357058669Y424019369D01*
X-356651925Y423850890D01*
X-356220128Y423765000D01*
X-355779872Y423765000D01*
X-355348075Y423850890D01*
X-354941331Y424019369D01*
X-354575271Y424263962D01*
X-354263962Y424575271D01*
X-354019369Y424941331D01*
X-353850890Y425348075D01*
X-353765000Y425779872D01*
X-353765000Y426220128D01*
X-296235000Y426220128D01*
X-296235000Y425779872D01*
X-296149110Y425348075D01*
X-295980631Y424941331D01*
X-295736038Y424575271D01*
X-295424729Y424263962D01*
X-295058669Y424019369D01*
X-294651925Y423850890D01*
X-294220128Y423765000D01*
X-293779872Y423765000D01*
X-293348075Y423850890D01*
X-292941331Y424019369D01*
X-292575271Y424263962D01*
X-292263962Y424575271D01*
X-292019369Y424941331D01*
X-291850890Y425348075D01*
X-291765000Y425779872D01*
X-291765000Y426220128D01*
X-291850890Y426651925D01*
X-292019369Y427058669D01*
X-292263962Y427424729D01*
X-292575271Y427736038D01*
X-292941331Y427980631D01*
X-293348075Y428149110D01*
X-293779872Y428235000D01*
X-294220128Y428235000D01*
X-294651925Y428149110D01*
X-295058669Y427980631D01*
X-295424729Y427736038D01*
X-295736038Y427424729D01*
X-295980631Y427058669D01*
X-296149110Y426651925D01*
X-296235000Y426220128D01*
X-353765000Y426220128D01*
X-353850890Y426651925D01*
X-354019369Y427058669D01*
X-354263962Y427424729D01*
X-354575271Y427736038D01*
X-354941331Y427980631D01*
X-355348075Y428149110D01*
X-355779872Y428235000D01*
X-356220128Y428235000D01*
X-356651925Y428149110D01*
X-357058669Y427980631D01*
X-357424729Y427736038D01*
X-357736038Y427424729D01*
X-357980631Y427058669D01*
X-358149110Y426651925D01*
X-358235000Y426220128D01*
X-358873000Y426220128D01*
X-358873000Y428873000D01*
X-291127000Y428873000D01*
X-291127000Y381127000D01*
G37*
%TD.AperFunction*%
%TD*%
M02*
