M48
; DRILL file {KiCad (5.1.10)-1} date 07/05/22 19:17:08
; FORMAT={-:-/ absolute / inch / decimal}
; #@! TF.CreationDate,2022-07-05T19:17:08+09:00
; #@! TF.GenerationSoftware,Kicad,Pcbnew,(5.1.10)-1
FMAT,2
INCH
T1C0.0236
T2C0.0315
T3C0.0394
T4C0.0433
T5C0.0669
T6C0.1024
T7C0.1260
%
G90
G05
T1
X-13.4646Y16.6535
X-13.3858Y16.6535
T2
X-13.8189Y15.9449
X-13.8039Y16.4567
X-13.7795Y15.6299
X-13.7795Y15.2756
X-13.7008Y15.6299
X-13.7008Y15.2756
X-13.622Y15.9449
X-13.5039Y16.4567
X-13.4646Y16.2205
X-13.3858Y16.2205
X-13.189Y16.4961
X-13.189Y16.2992
X-12.9921Y16.0236
X-12.9921Y15.8268
X-12.9921Y15.615
X-12.9921Y15.315
X-12.8984Y16.6386
X-12.8984Y16.5386
X-12.8984Y16.4386
X-12.8984Y16.3386
X-12.8921Y15.615
X-12.8921Y15.315
X-12.7921Y15.615
X-12.7921Y15.315
X-12.6921Y16.0236
X-12.6921Y15.8268
X-12.6921Y15.615
X-12.6921Y15.315
X-12.5984Y16.6386
X-12.5984Y16.5386
X-12.5984Y16.4386
X-12.5984Y16.3386
X-12.5921Y15.615
X-12.5921Y15.315
X-12.5441Y16.0236
X-12.4921Y15.615
X-12.4921Y15.315
X-12.3921Y15.615
X-12.3921Y15.315
X-12.3228Y16.4173
X-12.2441Y16.4173
X-12.2441Y16.0236
X-11.7323Y16.4567
X-11.7323Y16.378
T3
X-14.0157Y16.4961
X-14.0157Y16.3961
X-14.0157Y16.2961
X-14.0157Y15.8661
X-14.0157Y15.7661
X-14.0157Y15.6661
X-14.0157Y15.5661
X-14.0157Y15.4661
X-14.0157Y15.3661
T4
X-13.4252Y15.5937
X-13.4252Y15.4937
X-13.4252Y15.3937
T5
X-11.9665Y15.6693
T6
X-11.9665Y15.8661
X-11.9665Y15.4724
X-11.7894Y15.6693
T7
X-14.0157Y16.7717
X-14.0157Y15.1181
X-11.5748Y16.7717
X-11.5748Y15.1181
T0
M30
