%TF.GenerationSoftware,KiCad,Pcbnew,(5.1.10)-1*%
%TF.CreationDate,2022-07-05T19:15:51+09:00*%
%TF.ProjectId,MZ_CVBS,4d5a5f43-5642-4532-9e6b-696361645f70,rev?*%
%TF.SameCoordinates,Original*%
%TF.FileFunction,Soldermask,Bot*%
%TF.FilePolarity,Negative*%
%FSLAX46Y46*%
G04 Gerber Fmt 4.6, Leading zero omitted, Abs format (unit mm)*
G04 Created by KiCad (PCBNEW (5.1.10)-1) date 2022-07-05 19:15:51*
%MOMM*%
%LPD*%
G01*
G04 APERTURE LIST*
%ADD10C,3.200000*%
%ADD11R,1.200000X1.200000*%
%ADD12C,1.200000*%
%ADD13R,1.600000X1.600000*%
%ADD14C,1.600000*%
%ADD15R,1.700000X1.700000*%
%ADD16O,1.700000X1.700000*%
%ADD17R,1.350000X1.350000*%
%ADD18O,1.350000X1.350000*%
%ADD19C,2.550000*%
%ADD20C,3.616000*%
%ADD21O,1.600000X1.600000*%
%ADD22R,2.000000X1.905000*%
%ADD23O,2.000000X1.905000*%
G04 APERTURE END LIST*
D10*
%TO.C,*%
X-356000000Y426000000D03*
%TD*%
%TO.C,*%
X-356000000Y384000000D03*
%TD*%
%TO.C,*%
X-294000000Y384000000D03*
%TD*%
%TO.C,*%
X-294000000Y426000000D03*
%TD*%
D11*
%TO.C,C1*%
X-340000000Y423000000D03*
D12*
X-342000000Y423000000D03*
%TD*%
D13*
%TO.C,C2*%
X-348000000Y388000000D03*
D14*
X-350000000Y388000000D03*
%TD*%
%TO.C,C3*%
X-335000000Y414000000D03*
X-335000000Y419000000D03*
%TD*%
D13*
%TO.C,C4*%
X-340000000Y412000000D03*
D14*
X-342000000Y412000000D03*
%TD*%
%TO.C,C5*%
X-346000000Y405000000D03*
X-351000000Y405000000D03*
%TD*%
%TO.C,C6*%
X-350000000Y397000000D03*
D13*
X-348000000Y397000000D03*
%TD*%
D14*
%TO.C,C7*%
X-311000000Y417000000D03*
D13*
X-313000000Y417000000D03*
%TD*%
D15*
%TO.C,J1*%
X-356000000Y419000000D03*
D16*
X-356000000Y416460000D03*
X-356000000Y413920000D03*
%TD*%
D15*
%TO.C,J2*%
X-356000000Y403000000D03*
D16*
X-356000000Y400460000D03*
X-356000000Y397920000D03*
X-356000000Y395380000D03*
X-356000000Y392840000D03*
X-356000000Y390300000D03*
%TD*%
D17*
%TO.C,J3*%
X-298000000Y418000000D03*
D18*
X-298000000Y416000000D03*
%TD*%
D19*
%TO.C,J4*%
X-303950000Y398000000D03*
D20*
X-303950000Y393000000D03*
X-303950000Y403000000D03*
X-299450000Y398000000D03*
%TD*%
D14*
%TO.C,R1*%
X-343000000Y418000000D03*
D21*
X-350620000Y418000000D03*
%TD*%
%TO.C,R2*%
X-322380000Y402000000D03*
D14*
X-330000000Y402000000D03*
%TD*%
%TO.C,R3*%
X-330000000Y407000000D03*
D21*
X-322380000Y407000000D03*
%TD*%
%TO.C,R4*%
X-318620000Y407000000D03*
D14*
X-311000000Y407000000D03*
%TD*%
D13*
%TO.C,U1*%
X-330000000Y389000000D03*
D21*
X-314760000Y396620000D03*
X-327460000Y389000000D03*
X-317300000Y396620000D03*
X-324920000Y389000000D03*
X-319840000Y396620000D03*
X-322380000Y389000000D03*
X-322380000Y396620000D03*
X-319840000Y389000000D03*
X-324920000Y396620000D03*
X-317300000Y389000000D03*
X-327460000Y396620000D03*
X-314760000Y389000000D03*
X-330000000Y396620000D03*
%TD*%
D22*
%TO.C,U2*%
X-341000000Y391000000D03*
D23*
X-341000000Y393540000D03*
X-341000000Y396080000D03*
%TD*%
D13*
%TO.C,U3*%
X-320000000Y415000000D03*
D21*
X-327620000Y422620000D03*
X-320000000Y417540000D03*
X-327620000Y420080000D03*
X-320000000Y420080000D03*
X-327620000Y417540000D03*
X-320000000Y422620000D03*
X-327620000Y415000000D03*
%TD*%
M02*
